<?xml version="1.0" standalone="no"?>
<!DOCTYPE svg PUBLIC "-//W3C//DTD SVG 1.1//EN" "http://www.w3.org/Graphics/SVG/1.1/DTD/svg11.dtd" >
<svg xmlns="http://www.w3.org/2000/svg" xmlns:xlink="http://www.w3.org/1999/xlink" version="1.1">
<metadata>
Created by FontForge 20161013 at Sat Jul 21 06:07:11 2007
 By ,,,
(c) 2005, 2007 Adobe Systems Incorporated. All rights reserved.
</metadata>
<defs>
<font id="GaramondPremrPro-Bd" horiz-adv-x="577" >
  <font-face 
    font-family="Garamond Premr Pro"
    font-weight="700"
    font-stretch="normal"
    units-per-em="1000"
    panose-1="2 2 7 2 6 5 6 2 4 3"
    ascent="725"
    descent="-275"
    x-height="399"
    cap-height="632"
    bbox="-184.882 -325 1399 928.143"
    underline-thickness="50"
    underline-position="-200"
    unicode-range="U+0020-FB06"
  />
<missing-glyph horiz-adv-x="500" 
d="M0 0v700h500v-700h-500zM250 395l170 255h-340zM280 350l170 -255v510zM80 50h340l-170 255zM50 605v-510l170 255z" />
    <glyph glyph-name="f_f" unicode="ff" horiz-adv-x="593" 
d="M362 343h-146q-8 0 -8 -17q0 -9 1.5 -110.5t1.5 -106.5q1 -30 5.5 -45t10 -19.5t19.5 -9.5q26 -10 26 -17q0 -8 -8.5 -14.5t-19.5 -6.5q-15 0 -52 1.5t-46 1.5q-21 0 -55.5 -2.5t-45.5 -2.5q-28 0 -28 13t22 19q17 5 26 13.5t11 16t3 18.5q1 10 4 242q0 16 -10 17l-40 8
q-7 2 -7 10q0 9 8 16.5t22.5 15.5t16.5 9q11 8 11 17q0 59 29 122q11 23 34.5 51t51.5 47q69 46 145 46q72 0 113 -32q9 -4 13 0q22 22 63.5 39.5t84.5 17.5q36 0 67.5 -15.5t31.5 -47.5q0 -18 -11 -35t-26 -22q-10 -4 -22 -4q-15 0 -32 19q-52 57 -76 57q-16 0 -28 -14
q-31 -37 -31 -237q0 -2 3.5 -4.5t4.5 -2.5h93q5 0 9.5 -16t4.5 -31q0 -3 -6 -7.5t-9 -4.5t-43.5 1t-46.5 1q-2 0 -5 -4.5t-3 -8.5q0 -190 5 -244q1 -17 4 -25t14.5 -15.5t35.5 -12.5q25 -6 25 -17q0 -6 -8.5 -11t-23.5 -5q-4 0 -43 2.5t-54 2.5q-42 0 -78.5 -3.5t-41.5 -3.5
q-25 0 -25 16q0 3 6.5 8.5t14.5 7.5q28 9 33.5 21.5t6.5 50.5q3 123 3 233q0 13 -5 13zM215 395h142q3 0 6.5 3t3.5 5q0 37 9 83.5t24 73.5q2 3 2.5 9t-0.5 7q-21 24 -50.5 42t-57.5 18q-25 0 -45 -23q-41 -48 -41 -206q0 -12 7 -12z" />
    <glyph glyph-name="f_f_i" unicode="ffi" horiz-adv-x="844" 
d="M358 343h-140q-10 0 -10 -17q0 -9 1.5 -110.5t1.5 -106.5q1 -30 5.5 -45t10 -19.5t19.5 -9.5q26 -10 26 -17q0 -8 -8.5 -14.5t-19.5 -6.5q-15 0 -52 1.5t-46 1.5q-21 0 -55.5 -2.5t-45.5 -2.5q-28 0 -28 13t22 19q17 5 26 13.5t11 16t3 18.5q1 10 4 242q0 17 -7 17l-43 8
q-10 4 -6.5 14.5t10.5 15.5q6 5 19.5 12t16.5 9q11 8 11 17q0 59 29 122q11 23 34.5 51t51.5 47q69 46 145 46q32 0 66.5 -11t51.5 -24q9 -4 13 0q21 21 70.5 40.5t93.5 19.5q76 0 111 -42q11 -11 11 -33q0 -19 -22.5 -39.5t-38.5 -20.5q-19 0 -38 22q-18 21 -48.5 41.5
t-50.5 20.5q-27 0 -44 -21q-12 -14 -21.5 -76t-9.5 -147q0 -10 11 -10q12 -1 91 -1q89 0 137 12q18 5 31 5q6 0 8 -1.5t4 -16t2 -46.5l-1 -138q-1 -138 1 -138q0 -15 4.5 -23t8 -10t15.5 -6q29 -10 29 -21q0 -6 -10 -10.5t-22 -4.5q-2 0 -39.5 1.5t-50.5 1.5q-18 0 -50 -1.5
t-39 -1.5q-29 0 -29 18q0 2 1.5 4t5 4t6.5 3.5t9 4t9 3.5q21 9 23 37q4 66 4 262q0 4 -4 8.5t-7 4.5q-93 2 -136 0q-1 0 -2.5 -1.5t-3 -4.5t-1.5 -6q0 -199 5 -253q1 -17 4 -25t14.5 -15.5t35.5 -12.5q25 -6 25 -17q0 -6 -8.5 -11t-23.5 -5q-3 0 -22.5 1.5t-44.5 2.5t-44 1
q-23 0 -60 -3.5t-46 -3.5q-25 0 -25 16q0 3 6.5 8.5t14.5 7.5q28 9 33.5 21.5t6.5 50.5q2 82 2 233q0 13 -8 13zM216 395h144q7 0 7 8q0 35 10.5 80.5t25.5 73.5q5 9 1 17q-55 62 -110 62q-25 0 -45 -23q-41 -48 -41 -206q0 -12 8 -12z" />
    <glyph glyph-name="f_f_l" unicode="ffl" horiz-adv-x="840" 
d="M359 343h-144q-7 0 -7 -16q0 -9 1.5 -111t1.5 -107q1 -30 5.5 -45t10 -19.5t19.5 -9.5q26 -10 26 -17q0 -8 -8.5 -14.5t-19.5 -6.5q-15 0 -52 1.5t-46 1.5q-21 0 -55.5 -2.5t-45.5 -2.5q-28 0 -28 13t22 19q17 5 26 13.5t11 16t3 18.5q1 10 4 242q0 16 -10 17l-36 8
q-3 1 -7.5 4.5t-4.5 5.5q0 9 8 17t23 15t17 9q11 8 11 17q0 59 29 122q11 23 34.5 51t51.5 47q69 46 145 46q32 0 65 -9t50 -22q9 -4 13 -1q66 51 147 51q52 0 89 -16q10 -4 17 3q28 25 38 25q5 0 10 -5.5t5 -10.5q0 -32 -6 -332q-3 -166 3 -281q1 -28 9 -36q9 -7 25 -12
q23 -6 23 -15q0 -18 -24 -18q-9 0 -45.5 1.5t-54.5 1.5q-21 0 -50 -1.5t-34 -1.5q-34 0 -34 17q0 9 25 17q19 6 24 16.5t6 33.5q2 35 3 133t0 116q0 13 -7 14q-15 1 -69 1.5t-72 -0.5q-8 0 -8 -10q0 -189 6 -254q2 -24 9.5 -34t33.5 -17q25 -7 25 -17q0 -6 -8.5 -11
t-23.5 -5q-2 0 -40 1.5t-62 1.5q-23 0 -59 -2.5t-45 -2.5q-25 0 -25 16q0 3 6.5 8.5t14.5 7.5q28 9 33.5 20.5t6.5 49.5q3 123 3 234q0 12 -8 12zM216 396h146q5 0 5 8q0 36 9.5 84t24.5 75q4 7 1 13q-46 60 -108 60q-25 0 -45 -23q-41 -48 -41 -205q0 -12 8 -12zM564 652
q-28 0 -47 -28q-27 -40 -27 -219q0 -3 3 -6t5 -3h6h16.5h24h27.5h27h24h17q8 0 8 11q1 14 -0.5 81.5t-2.5 91.5q-1 22 -10 35q-7 11 -29 24t-42 13z" />
    <glyph glyph-name="longs_t" unicode="&#x17f;t" horiz-adv-x="620" 
d="M73 337l-32 5q-3 1 -7.5 6.5t-4.5 11.5q0 2 43 37q10 8 12.5 12t2.5 16q0 56 27.5 113.5t74.5 97.5q66 52 139 52q74 0 111.5 -37t37.5 -84v-163q0 -2 3 -5.5t6 -3.5q10 0 33.5 0.5t44 1t21.5 0.5q16 0 17 -13l3 -41v-1q0 -12 -26 -12h-92q-7 0 -7 -21v-182q0 -32 14 -46
q16 -16 45 -16q18 0 40 14q11 7 18 7q8 0 8 -18q0 -14 -17 -31q-44 -49 -117 -49q-29 0 -55.5 11.5t-40.5 29.5q-20 26 -20 73q0 19 2 111.5t2 109.5q0 7 -47 20q-11 4 -11 12q0 10 11 17q4 2 19 10.5t18 10.5q7 7 11 21q9 32 9 166q0 11 -11 28t-21 27q-19 14 -42 14
q-20 0 -37 -15.5t-32 -69.5t-15 -143q0 -261 4 -341q1 -22 7 -32.5t21 -14.5q30 -9 30 -20q0 -17 -35 -17q-15 0 -40 2t-46 2q-36 0 -62 -2t-41 -2q-27 0 -28 12q0 14 23 20q12 4 19.5 9t11.5 8.5t5.5 16t2 16.5t0.5 25q2 66 2 225q0 7 -12 9z" />
    <glyph glyph-name="T_h" unicode="Th" horiz-adv-x="1078" 
d="M341 628h154q143 0 178 7q16 4 39 21q25 21 34 21q4 0 8.5 -4t4.5 -7q-10 -101 -12 -142q-6 -135 -3 -158q0 -1 1 -2t2.5 -3t3.5 0q53 48 113 48q73 0 109 -50q29 -39 29 -110q2 -148 4 -178q1 -32 39 -42q25 -6 25 -19q0 -14 -30 -14q-13 0 -42.5 2t-40.5 2
q-22 0 -53 -2t-49 -2q-13 0 -19.5 4.5t-6.5 9.5q0 10 20 17q16 5 22 16t8 35q2 23 2 177q0 53 -29 74q-21 16 -50 16q-34 0 -47 -10q-7 -5 -10 -26q-2 -58 -2 -222q1 -26 7.5 -38.5t24.5 -16.5q26 -6 26 -18q0 -15 -33 -15q-2 0 -14 0.5t-33.5 0.5h-47.5q-29 0 -57 -1.5
t-33 -1.5q-10 0 -18.5 4t-8.5 10q0 12 28 21q5 2 9.5 4t7.5 4.5t5.5 4.5t4 5.5t3 5.5t2 6t1 5t1.5 5v5q9 72 9 260q0 203 -4 216q-7 29 -19 29q-18 1 -90 0.5t-93 -3.5q-10 -1 -10 -12q0 -18 -1 -80t-1 -110q0 -199 6 -283q2 -23 17.5 -38t63.5 -25q9 -2 16 -9t7 -12
q0 -6 -9 -10t-18 -4q-3 0 -79 2t-86 2q-11 0 -66 -3t-64 -3q-32 0 -32 12q0 16 24 23q46 12 57.5 27.5t14.5 67.5q9 133 9 332q0 34 -0.5 73t-0.5 42q0 7 -4.5 10.5t-7.5 3.5q-24 4 -107 4q-5 0 -22 -8t-24 -15q-6 -6 -35 -53q-19 -30 -23 -30q-17 0 -17 23q0 7 9 58.5
t10 77.5q0 3 6 12.5t11 9.5q12 0 21 -16q6 -10 45 -14q57 -6 210 -6z" />
    <glyph glyph-name="f_b" unicode="fb" horiz-adv-x="832" 
d="M211 109q1 -46 8.5 -57t38.5 -17q11 -2 19.5 -8t8.5 -9q0 -8 -9.5 -14.5t-20.5 -6.5q-15 0 -58 1.5t-52 1.5q-21 0 -55.5 -2.5t-45.5 -2.5q-28 0 -28 13t22 19q17 5 26 13.5t11 16t3 18.5q1 10 4 242q0 16 -10 17l-40 8q-7 2 -7 10q0 9 8 16.5t22.5 15.5t16.5 9
q11 8 11 17q0 40 10 80q25 93 99 153q25 19 69 35.5t81 16.5q52 0 89 -16q8 -3 14 3q28 25 38 25q5 0 10 -5.5t5 -10.5q0 -34 -4 -234v-66q0 -10 8 -10q46 28 97 28q81 0 131 -44q69 -60 69 -159q0 -104 -98 -174q-30 -22 -73.5 -33t-78.5 -11q-60 0 -138 22q-5 2 -21 -5
l-13 -5q-4 0 -9 4.5t-5 9.5q7 109 7 334q1 14 -0.5 111t-2.5 121q-1 21 -11 35q-6 10 -31 22t-45 12q-28 0 -47 -28q-28 -41 -28 -216q0 -2 4.5 -6t5.5 -4h93q5 0 9.5 -16t4.5 -31q0 -3 -6 -7.5t-9 -4.5t-45 1t-48 1t-6 -9q-1 -20 0 -101.5t2 -118.5zM661 187q0 76 -40 125
q-12 17 -37 30t-50 13q-14 0 -29 -5q-8 -5 -8 -10q-2 -18 -2 -54q0 -133 9 -182q8 -38 31 -59q20 -20 47 -20q18 0 42 28q37 46 37 134z" />
    <glyph glyph-name="f_f_b" unicode="ffb" horiz-adv-x="1115" 
d="M359 343h-143q-8 0 -8 -15q0 -9 1.5 -111.5t1.5 -107.5q1 -30 5.5 -45t10 -19.5t19.5 -9.5q26 -10 26 -17q0 -8 -8.5 -14.5t-19.5 -6.5q-15 0 -52 1.5t-46 1.5q-21 0 -55.5 -2.5t-45.5 -2.5q-28 0 -28 13t22 19q17 5 26 13.5t11 16t3 18.5q1 10 4 242q0 16 -10 17l-40 8
q-7 2 -7 10q0 9 8 16.5t22.5 15.5t16.5 9q11 8 11 17q0 59 29 122q11 23 34.5 51t51.5 47q69 46 145 46q72 0 113 -32q9 -4 13 0q21 21 65 39t88 18q45 0 92 -20q8 -3 14 3q28 25 38 25q5 0 10 -5.5t5 -10.5q0 -39 -4 -239v-66q0 -10 8 -10q46 28 97 28q81 0 131 -44
q69 -60 69 -159q0 -105 -98 -174q-29 -22 -73 -33t-78 -11q-61 0 -139 22q-5 2 -21 -5q-12 -5 -13 -5q-3 0 -8.5 4.5t-5.5 9.5q7 109 7 335q1 14 -0.5 117t-2.5 127q-1 22 -10 35q-7 10 -31 22t-44 12q-26 0 -47 -28q-28 -41 -28 -229q0 -2 3.5 -4.5t4.5 -2.5h93
q5 0 12 -16.5t7 -30.5q0 -3 -8.5 -7.5t-11.5 -4.5t-43.5 1t-46.5 1q-2 0 -5 -4.5t-3 -8.5q0 -190 5 -244q1 -17 4 -24.5t14.5 -15t35.5 -12.5q25 -6 25 -17q0 -6 -8.5 -11t-23.5 -5q-4 0 -43 2t-54 2q-42 0 -78.5 -2.5t-41.5 -2.5q-25 0 -25 16q0 3 6.5 8.5t14.5 7.5
q28 9 33.5 20.5t6.5 49.5q3 123 3 233q0 4 -3 8.5t-5 4.5zM944 184q0 76 -40 125q-12 17 -37 30t-50 13q-14 0 -29 -5q-2 -1 -5 -5t-3 -5q-2 -18 -2 -54q0 -133 9 -182q8 -38 31 -59q21 -20 47 -20q18 0 42 28q37 44 37 134zM216 395h141q4 0 7 3t3 5q0 37 9 83.5t24 73.5
q2 3 2.5 9t-0.5 7q-21 24 -50.5 42t-57.5 18q-25 0 -45 -23q-41 -48 -41 -206q0 -12 8 -12z" />
    <glyph glyph-name="f_f_h" unicode="ffh" horiz-adv-x="1110" 
d="M896 409q137 0 137 -160q2 -148 4 -178q0 -6 1.5 -11t5.5 -9.5t6.5 -7t8.5 -5.5t8 -4.5t9.5 -4.5t8.5 -3q17 -7 17 -16q0 -14 -30 -14q-14 0 -43 2t-40 2q-23 0 -53.5 -2t-48.5 -2q-27 0 -27 14q0 10 21 17q16 5 22 16t8 35q2 32 2 137q0 77 -17.5 103.5t-62.5 26.5
q-33 0 -46 -10q-7 -5 -10 -26q0 -25 -1.5 -116t-0.5 -106q1 -41 39 -58q18 -7 18 -15q0 -17 -32 -17q-7 0 -36 1.5t-47 1.5q-23 0 -61 -1.5t-41 -1.5q-10 0 -18.5 4t-8.5 10q0 14 27 23q16 5 23.5 13t10.5 30q9 72 9 394q0 112 -8 128q-11 20 -41 37t-54 17q-30 0 -42 -32
q-21 -55 -21 -219q0 -2 3.5 -4.5t4.5 -2.5h93q5 0 9.5 -16t4.5 -31q0 -3 -6 -7.5t-9 -4.5t-43.5 1t-46.5 1q-2 0 -5 -4.5t-3 -8.5q0 -190 5 -244q1 -17 3 -25.5t9.5 -16.5t21.5 -11q25 -6 25 -17q0 -6 -8.5 -11t-23.5 -5q-18 0 -46.5 2.5t-49.5 2.5q-15 0 -54 -3t-47 -3
q-25 0 -25 15q0 3 6.5 8.5t14.5 7.5q28 9 33.5 21.5t6.5 50.5q3 123 3 235q1 11 -11 11h-141q-7 0 -7 -27q3 -144 3 -207q0 -29 5 -45t10.5 -20t19.5 -9q26 -10 26 -17q0 -9 -9 -15t-23 -6q-20 0 -49.5 1.5t-51.5 1.5q-12 0 -48 -2.5t-46 -2.5q-28 0 -28 13t22 19
q25 7 32 19.5t8 36.5l4 234q0 9 -7 14t-11.5 5.5t-17.5 2.5q-16 2 -18 4q-6 6 -6 9q0 13 21 26q4 3 16.5 9t18 11t5.5 12q0 74 27.5 126.5t87.5 93.5q69 46 145 46q72 0 113 -32q9 -4 13 0q22 22 65 39.5t86 17.5q51 0 82 -19q9 -6 16 -3q8 3 22 9t23 9.5t10 3.5q3 0 7.5 -5
t4.5 -8q-5 -35 -8 -115.5t-3 -135.5v-71q0 -1 1 -2t2.5 -3t3.5 0q53 48 113 48zM216 395h142q10 0 10 10q0 37 9 82.5t24 72.5q2 3 2.5 9t-0.5 7q-21 24 -50.5 42t-57.5 18q-86 0 -86 -229q0 -3 2.5 -7.5t4.5 -4.5z" />
    <glyph glyph-name="f_f_j" unicode="ffj" horiz-adv-x="836" 
d="M361 343h-143q-8 0 -8 -17q0 -9 1.5 -110.5t1.5 -106.5q1 -30 5.5 -45t10 -19.5t19.5 -9.5q26 -10 26 -17q0 -8 -8.5 -14.5t-19.5 -6.5q-15 0 -52 1.5t-46 1.5q-21 0 -55.5 -2.5t-45.5 -2.5q-28 0 -28 13t22 19q17 5 26 13.5t11 15.5t3 19q1 10 4 242q0 3 -2.5 9t-3.5 6
l-44 10q-7 2 -7 10q0 9 8 16.5t22.5 15.5t16.5 9q11 8 11 17q0 59 29 122q11 23 34.5 51t51.5 47q69 46 145 46q70 0 115 -39q2 -2 6.5 -2t6.5 2q23 23 70 43.5t97 20.5q76 0 111 -42q11 -11 11 -33q0 -19 -22.5 -39.5t-38.5 -20.5q-19 0 -38 22q-18 21 -48.5 41.5
t-50.5 20.5q-22 0 -44 -28q-27 -33 -27 -217q0 -10 11 -10h24h32.5h33.5q84 0 132 12q18 5 31 5q3 0 7 -5.5t4 -11.5q0 -22 -1.5 -174t-2.5 -166q-3 -101 -39 -163q-40 -66 -85 -106q-23 -19 -50 -34.5t-34 -15.5q-14 0 -24 14q-7 7 3 13q45 29 61 48q47 55 47 239
q0 196 -5 281q0 13 -8 13q-89 2 -130 0q-1 0 -2 -1.5t-2.5 -4.5t-1.5 -6q0 -197 5 -251q1 -17 4 -25t14.5 -15.5t35.5 -12.5q25 -6 25 -17q0 -6 -8.5 -11t-23.5 -5q-1 0 -44.5 2.5t-70.5 2.5q-22 0 -57.5 -2.5t-44.5 -2.5q-25 0 -25 16q0 3 6.5 8.5t14.5 7.5q28 9 33.5 20.5
t6.5 49.5q2 82 2 233q1 4 -2 8.5t-5 4.5zM216 395h145q8 0 8 8q0 90 33 150q5 9 1 17q-19 29 -48.5 47.5t-58.5 18.5q-25 0 -45 -23q-41 -48 -41 -206q0 -3 2.5 -7.5t3.5 -4.5z" />
    <glyph glyph-name="f_f_k" unicode="ffk" horiz-adv-x="1094" 
d="M360 343h-143q-8 0 -8 -17q0 -9 1.5 -110.5t1.5 -106.5q1 -30 5.5 -45t10 -19.5t19.5 -9.5q26 -10 26 -17q0 -8 -8.5 -14.5t-19.5 -6.5q-15 0 -52 1.5t-46 1.5q-21 0 -55.5 -2.5t-45.5 -2.5q-28 0 -28 13t22 19q17 5 26 13.5t11 16t3 18.5q1 10 4 242q0 14 -8 16l-42 9
q-3 1 -7 5t-4 6q0 9 11 17t27.5 15.5t19.5 9.5q4 4 4 15q0 59 29 122q11 23 34.5 51t51.5 47q69 46 145 46q72 0 113 -32q9 -4 13 0q22 22 63.5 39.5t84.5 17.5q45 0 92 -20q8 -3 14 3q28 25 34 25q10 0 21 -20q-9 -56 -9 -374q0 -81 3 -91q1 -5 8 -5q2 0 14 10
q36 29 112 113q1 3 2.5 7t-5 8.5t-19.5 7.5q-26 6 -26 17q0 13 21 13h40q33 0 87.5 5t62.5 5q10 0 10 -8t-8.5 -16t-13.5 -9q-46 -11 -71.5 -22t-55.5 -35q-12 -9 -30 -25t-21 -23q-1 -2 -1 -7q5 -12 63.5 -92.5t84.5 -105.5q28 -26 56 -34q25 -8 25 -16q0 -18 -34 -18
q-6 0 -62.5 3t-86.5 2l-50 -1q-27 0 -27 14q0 9 22 16t13 21q-20 30 -89 129q-12 18 -16 18q-1 0 -5 -9q-2 -7 -1.5 -57t2.5 -62t4 -18t9 -12.5t21 -9.5q22 -6 22 -15q0 -17 -30 -17q-13 0 -50 2t-50 2q-21 0 -55 -2t-35 -2q-31 0 -31 14q0 10 32 20q19 5 25 13t7 32
q7 133 7 396q2 28 -4 119q-1 22 -10 35q-7 11 -28.5 22.5t-41.5 11.5q-26 0 -47 -28q-28 -41 -28 -229q0 -2 2.5 -4.5t3.5 -2.5h95q5 0 9.5 -16t4.5 -31q0 -3 -6 -7.5t-9 -4.5t-44.5 1t-47.5 1t-6 -13q0 -223 2 -244q3 -45 41 -53q24 -6 24 -17q0 -16 -31 -16
q-3 0 -40.5 2.5t-60.5 2.5q-21 0 -56 -3.5t-44 -3.5q-25 0 -25 16q0 3 6.5 8.5t14.5 7.5q28 9 33.5 21.5t6.5 50.5q3 123 3 233q1 5 -2 9t-6 4zM216 395h145q7 0 7 8q0 37 9 83.5t24 73.5q2 3 2.5 9t-0.5 7q-21 24 -50.5 42t-57.5 18q-25 0 -45 -23q-41 -48 -41 -206
q0 -12 7 -12z" />
    <glyph glyph-name="f_f_t" unicode="fft" horiz-adv-x="902" 
d="M356 339h-138q-10 0 -10 -18q3 -165 3 -212q2 -32 6 -46.5t9 -18.5t20 -9q26 -10 26 -17q0 -8 -9 -14.5t-22 -6.5q-17 0 -50 1.5t-54 1.5q-15 0 -49 -2.5t-43 -2.5q-28 0 -28 13t22 19q17 5 26 13.5t11 16t3 18.5q0 8 1 54t2 106t1 91q0 1 -4 3.5t-14.5 6t-23.5 5.5
q-15 3 -15 13q0 9 7 15t35 22q16 8 16 15q0 147 115 224q81 46 145 46q32 0 65 -9.5t51 -23.5q6 -3 10 1q22 22 63.5 39.5t84.5 17.5q35 0 67 -15.5t32 -47.5q0 -17 -11 -34t-26 -23q-10 -4 -22 -4t-40 29.5t-48 40.5q-10 6 -20 6q-29 0 -41 -41q-18 -56 -18 -207
q0 -10 8 -10q74 -3 131 -1q15 0 48 26q11 9 25 23t23 23.5t11 9.5q6 0 14 -7t8 -13v-52q0 -2 3 -5.5t6 -3.5q10 0 33.5 0.5t44 1t21.5 0.5q7 0 10.5 -2t6.5 -12.5t3 -30.5q0 -12 -26 -12h-89q-10 0 -10 -43v-170q0 -62 59 -62q18 0 40 14q11 7 18 7q8 0 8 -18
q0 -30 -44.5 -55t-89.5 -25q-29 0 -55.5 11.5t-40.5 29.5q-19 25 -19 73q0 19 2 105.5t2 103.5q0 29 -12 29q-58 1 -130 0q-1 0 -2.5 -1.5t-3 -4.5t-1.5 -6q0 -193 5 -247q1 -17 4 -24.5t14.5 -15t35.5 -12.5q25 -6 25 -17q0 -6 -8.5 -11t-23.5 -5q-14 0 -50.5 1.5
t-54.5 1.5q-110 -5 -112 -5q-25 0 -25 16q0 3 6.5 8.5t14.5 7.5q28 9 33.5 21.5t6.5 50.5q3 123 3 228q1 13 -11 13zM218 396h139q10 0 10 8q0 37 9.5 86t24.5 76q1 2 1 10q-20 25 -49.5 42.5t-58.5 17.5q-86 0 -86 -228q0 -12 10 -12z" />
    <glyph glyph-name="f_h" unicode="fh" horiz-adv-x="824" 
d="M500 691q0 -2 -1.5 -61.5t-3.5 -140t-3 -123.5l5 -5q53 48 113 48q73 0 109 -50q29 -39 29 -110q0 -124 3 -178q1 -18 10 -27.5t30 -14.5q25 -6 25 -19q0 -14 -30 -14q-14 0 -43 2t-40 2q-23 0 -53.5 -2t-48.5 -2q-27 0 -27 14q0 10 21 17q16 5 22 16t8 35q2 23 2 177
q0 53 -29 74q-22 16 -50 16q-34 0 -47 -10q-7 -5 -10 -26q-2 -39 -2.5 -123t0.5 -99q1 -26 7.5 -38.5t24.5 -16.5q26 -6 26 -18q0 -15 -33 -15q-2 0 -14 0.5t-33.5 0.5h-47.5q-30 0 -57.5 -1.5t-32.5 -1.5q-10 0 -18.5 4t-8.5 10q0 12 28 21q5 2 9 4t7.5 4.5t5.5 4.5t4 5.5
t3 5.5t1.5 6t1 5t1 5t0.5 5q9 72 9 331q3 55 -4 172q-1 21 -11 35q-6 10 -31 22t-45 12q-28 0 -47 -28q-30 -44 -28 -217q0 -2 4 -5.5t5 -3.5h93q5 0 9.5 -16t4.5 -31q0 -3 -6 -7.5t-9 -4.5t-43.5 1t-46.5 1q-2 0 -5 -4.5t-3 -8.5q-1 -20 0 -99.5t2 -116.5q1 -30 5.5 -45
t10 -19.5t19.5 -9.5q26 -10 26 -17q0 -8 -8.5 -14.5t-19.5 -6.5q-15 0 -52 1.5t-46 1.5q-21 0 -55.5 -2.5t-45.5 -2.5q-28 0 -28 13t22 19q17 5 26 13.5t11 16t3 18.5q1 10 4 242q0 16 -10 17l-40 8q-7 2 -7 10q0 9 8 16.5t22.5 15.5t16.5 9q11 8 11 17q0 40 10 80
q25 93 99 153q25 19 69 35.5t81 16.5q48 0 85 -16q10 -4 17 3q28 25 40 25q5 0 10 -5.5t5 -10.5z" />
    <glyph glyph-name="f_i" unicode="fi" horiz-adv-x="561" 
d="M217 396q12 -1 91 -1q90 0 136 12q18 5 32 5q6 0 8 -1.5t4 -16t2 -46.5l-1 -138q-1 -138 1 -138q0 -15 4.5 -23t8 -10t15.5 -6q28 -10 28 -21q0 -6 -9.5 -10.5t-21.5 -4.5q-2 0 -40 1.5t-50 1.5q-19 0 -51 -1.5t-38 -1.5q-29 0 -29 18q0 2 1.5 4t5 4t6.5 3.5t9 4t9 3.5
q21 9 23 37q4 66 4 262q0 4 -4.5 8.5t-7.5 4.5q-92 2 -135 0q-1 0 -3 -1.5t-4 -4.5t-2 -6q-1 -13 0.5 -128.5t2.5 -127.5q2 -21 10 -30t33 -17q20 -7 20 -17q0 -6 -6 -11.5t-16 -5.5q-4 0 -53 1.5t-63 1.5q-19 0 -58 -3t-41 -3q-8 0 -14 4.5t-6 9.5q0 4 5 9t13 7
q30 10 36.5 23t7.5 50q2 82 2 220q0 16 -8 17l-38 7q-12 3 -12 11q0 14 47 39q13 7 13 15q0 87 36 153q29 56 98 100q64 42 142 42q71 0 108 -42q11 -11 11 -33q0 -19 -22.5 -39.5t-38.5 -20.5q-19 0 -38 22q-19 21 -48.5 40.5t-49.5 19.5q-30 0 -45 -21q-12 -14 -21.5 -75
t-9.5 -146q0 -10 11 -10z" />
    <glyph glyph-name="f_j" unicode="fj" horiz-adv-x="549" 
d="M339 346q-83 2 -121 0q-1 0 -3 -1.5t-4 -4.5t-2 -6q-1 -13 0.5 -128.5t2.5 -127.5q2 -21 10 -30t33 -17q20 -7 20 -17q0 -6 -6 -11.5t-16 -5.5q-4 0 -53 1.5t-63 1.5q-19 0 -58 -3t-41 -3q-8 0 -14 4.5t-6 9.5q0 4 5 9t13 7q30 10 36.5 23t7.5 50q2 82 2 220q0 16 -8 17
l-38 7q-12 3 -12 11q0 14 47 39q13 7 13 15q0 87 36 153q29 56 98 100q64 42 142 42q71 0 108 -42q11 -11 11 -33q0 -19 -22.5 -39.5t-38.5 -20.5q-19 0 -38 22q-19 21 -48.5 40.5t-49.5 19.5q-30 0 -45 -21q-12 -14 -21.5 -75t-9.5 -146q0 -10 11 -10q12 -1 81 -1
q89 0 137 12q17 5 31 5q15 0 15 -17q0 -22 -1.5 -174t-2.5 -166q-3 -101 -39 -163q-41 -67 -86 -106q-22 -19 -49 -34.5t-34 -15.5q-5 0 -13 4.5t-11 9.5q-6 6 2 13q46 29 62 48q46 54 46 239q0 198 -5 283q0 4 -4 8.5t-7 4.5z" />
    <glyph glyph-name="f_k" unicode="fk" horiz-adv-x="814" 
d="M491 366q0 -132 3 -142q1 -5 8 -5q2 0 14 10q36 29 112 113q1 3 2.5 7t-5 8.5t-19.5 7.5q-26 6 -26 17q0 13 21 13h40q33 0 87.5 5t62.5 5q10 0 10 -8t-8.5 -16t-13.5 -9q-46 -11 -71.5 -22t-56.5 -35q-42 -33 -50 -48q-1 -2 -1 -7q5 -12 63.5 -92.5t83.5 -105.5
q29 -26 57 -34q25 -8 25 -16q0 -18 -34 -18q-6 0 -62.5 3t-86.5 2q-8 0 -25 -0.5t-25 -0.5q-27 0 -27 14q0 9 22 16t13 21q-20 30 -89 129q-12 18 -16 18q-1 0 -5 -9q-2 -7 -1.5 -57t2.5 -62t4 -18t9 -12.5t21 -9.5q21 -6 21 -15q0 -17 -29 -17q-13 0 -50 2t-50 2
q-21 0 -57.5 -2t-37.5 -2q-31 0 -31 14q0 10 32 20q20 6 28 15t9 30q7 133 7 290q1 14 -1 102t-3 113q-1 21 -11 35q-6 10 -31 22t-45 12q-28 0 -47 -28q-30 -44 -28 -217q0 -2 4 -5.5t5 -3.5h93q5 0 9.5 -16t4.5 -31q0 -3 -6 -7.5t-9 -4.5t-43.5 1t-46.5 1q-2 0 -5 -4.5
t-3 -8.5q-1 -20 0 -99.5t2 -116.5q1 -30 5.5 -45t10 -19.5t19.5 -9.5q26 -10 26 -17q0 -8 -8.5 -14.5t-19.5 -6.5q-15 0 -52 1.5t-46 1.5q-21 0 -55.5 -2.5t-45.5 -2.5q-28 0 -28 13t22 19q17 5 26 13.5t11 16t3 18.5q1 10 4 242q0 16 -10 17l-40 8q-7 2 -7 10q0 9 8 16.5
t22.5 15.5t16.5 9q11 8 11 17q0 40 10 80q25 93 99 153q25 19 69 35.5t81 16.5q48 0 85 -16q10 -4 17 3q28 25 40 25q5 0 10 -5.5t5 -10.5q0 -2 -1.5 -61.5t-3.5 -140t-3 -123.5z" />
    <glyph glyph-name="f_l" unicode="fl" horiz-adv-x="555" 
d="M335 695q52 0 89 -16q10 -4 17 3q28 25 38 25q5 0 10 -5.5t5 -10.5q0 -32 -6 -332q-3 -166 3 -281q1 -28 9 -36q7 -7 25 -12q22 -6 22 -15q0 -18 -23 -18q-10 0 -45.5 1.5t-44.5 1.5q-22 1 -57 -1t-37 -2q-34 0 -34 17q0 9 25 17q18 6 23.5 16.5t6.5 33.5q8 178 3 247
q0 16 -8 17q-14 1 -67.5 2t-72.5 0q-8 0 -8 -10q-1 -19 0 -106t2 -124q1 -30 5.5 -45t10 -19.5t19.5 -9.5q26 -10 26 -17q0 -8 -8.5 -13.5t-19.5 -5.5q-15 0 -52 1.5t-46 1.5q-21 0 -55.5 -2.5t-45.5 -2.5q-28 0 -28 13t22 19q17 5 26 13.5t11 16t3 18.5q1 10 4 242
q0 16 -10 17l-40 8q-7 2 -7 10q0 9 8 16.5t22.5 15.5t16.5 9q11 8 11 17q0 40 10 80q25 93 99 153q26 20 66 36t77 16zM280 649q-28 0 -47 -28q-28 -41 -28 -216q0 -9 13 -9h4h9t14.5 -0.5t18 -0.5h19.5h20.5t20 0.5t17.5 1t14 0.5q9 0 9 11q3 55 -4 172q-1 21 -11 35
q-6 10 -27.5 22t-41.5 12z" />
    <glyph glyph-name="f_t" unicode="ft" horiz-adv-x="620" 
d="M486 395q10 0 33.5 0.5t44 1t21.5 0.5q7 0 13 -13q4 -8 4 -35q0 -12 -26 -12h-86q-10 0 -10 -9q-1 -23 -1 -65t0.5 -86.5t0.5 -49.5q0 -62 58 -62q10 0 33 10.5t26 10.5q8 0 8 -18q0 -30 -44.5 -55t-89.5 -25q-29 0 -55.5 11.5t-40.5 29.5q-12 16 -16 29t-4 44
q0 19 2 111.5t2 109.5q0 15 -8 15h-133q-2 0 -5 -4.5t-3 -8.5q0 -190 5 -244q1 -17 4 -24.5t14.5 -15t35.5 -12.5q25 -6 25 -17q0 -6 -8.5 -11t-23.5 -5q-1 0 -37 2t-68 2q-30 -1 -67 -2.5t-45 -1.5q-25 0 -25 16q0 3 6.5 8.5t14.5 7.5q28 9 33.5 20t6.5 49q3 123 3 229
q0 11 -8 11l-43 -2q-3 0 -6.5 5.5t-3.5 10.5q0 1 30.5 24.5t30.5 32.5q0 29 10 70.5t27 72.5q31 61 93 105.5t121 44.5q42 0 70.5 -17t28.5 -46q0 -27 -20 -45t-42 -18q-12 0 -29.5 18.5t-38 36.5t-40.5 18q-14 0 -25 -14q-31 -39 -31 -232q0 -2 3.5 -4.5t4.5 -2.5h132
q12 0 21 7q6 5 27.5 25.5t39.5 37t19 16.5q7 0 15 -7t8 -13l-1 -57q0 -2 3 -5.5t6 -3.5z" />
    <glyph glyph-name="longs_b" unicode="&#x17f;b" horiz-adv-x="814" 
d="M480 684q0 -47 -1.5 -143t-1.5 -150q0 -10 8 -10q46 28 97 28q81 0 131 -44q69 -60 69 -159q0 -105 -98 -174q-29 -22 -73 -33t-78 -11q-61 0 -139 22q-5 2 -21 -5l-13 -5q-4 0 -9 4.5t-5 9.5q7 109 7 335q0 219 -3 243q-2 17 -13 30q-10 11 -29 19.5t-33 8.5
q-23 0 -38 -19q-11 -14 -19.5 -71.5t-8.5 -141.5q0 -237 7 -336q2 -23 10.5 -35t30.5 -18q25 -6 25 -16q0 -6 -9 -12t-23 -6q-4 0 -41 2.5t-52 2.5q-21 0 -61.5 -3.5t-49.5 -3.5q-25 0 -25 16q0 3 6.5 8.5t14.5 7.5q28 9 33.5 21.5t6.5 50.5q2 82 2 232q0 7 -12 9l-32 5
q-12 3 -12 16q0 2 43 37q13 11 13 15q0 75 41 149q32 63 98 104q55 37 118 37q48 0 74 -16q10 -6 31 16q11 11 23 11q5 0 8 -10.5t3 -17.5zM643 187q0 76 -40 125q-12 17 -37 30t-50 13q-14 0 -29 -5q-8 -5 -8 -10q-2 -18 -2 -54q0 -133 9 -182q8 -38 31 -59q21 -20 47 -20
q18 0 42 28q37 44 37 134z" />
    <glyph glyph-name="longs_h" unicode="&#x17f;h" horiz-adv-x="805" 
d="M84 329q0 7 -12 9l-32 5q-12 3 -12 16q0 2 43 37q13 11 13 15q0 75 41 149q32 63 98 104q55 37 118 37q48 0 74 -16q10 -6 31 16q11 11 23 11q5 0 8 -10.5t3 -17.5q0 -47 -4 -155.5t-4 -162.5q0 -2 1.5 -4.5t4.5 -0.5q53 48 113 48q73 0 109 -50q29 -39 29 -110
q2 -148 4 -178q1 -18 9.5 -27.5t29.5 -14.5q25 -6 25 -19q0 -14 -30 -14q-13 0 -42.5 2t-40.5 2q-22 0 -53 -2t-49 -2q-27 0 -27 14q0 10 21 17q16 5 22 16t8 35q2 23 2 177q0 53 -29 74q-22 16 -50 16q-34 0 -47 -10q-7 -5 -10 -26q-2 -39 -2.5 -123.5t0.5 -99.5
q1 -26 7.5 -38.5t24.5 -16.5q26 -7 26 -18q0 -15 -33 -15q-2 0 -14 0.5t-33.5 1t-47.5 0.5q-30 0 -55.5 -1.5t-30.5 -1.5q-10 0 -18.5 4t-8.5 10q0 12 28 21q9 3 15 7t8.5 10t3.5 9t2 10.5t1 8.5q8 85 8 394q0 97 -3 121q-2 17 -13 30q-10 11 -29 19.5t-33 8.5
q-23 0 -38 -19q-11 -14 -19.5 -71.5t-8.5 -141.5q0 -236 7 -335q1 -17 3 -25.5t8.5 -16t19.5 -11.5q24 -8 24 -17q0 -6 -8.5 -11t-22.5 -5q-4 0 -36 1.5t-47 1.5q-21 0 -61 -2.5t-50 -2.5q-25 0 -25 16q0 3 6.5 8.5t14.5 7.5q28 9 33.5 21.5t6.5 50.5q2 82 2 230z" />
    <glyph glyph-name="longs_i" unicode="&#x17f;i" horiz-adv-x="551" 
d="M207 406q0 -296 2 -325q3 -41 39 -52q25 -7 25 -17q0 -6 -8.5 -11t-22.5 -5q-4 0 -38 2t-49 2q-21 0 -61 -2.5t-50 -2.5q-25 0 -25 16q0 3 6.5 8.5t14.5 7.5q28 9 33.5 21.5t6.5 50.5q3 123 3 227q0 3 -4 7.5t-9 5.5l-32 4q-3 0 -7.5 6t-4.5 12q0 2 5.5 6.5t17.5 13
t20 15.5q13 11 13 15q0 74 37 142q33 64 99 106q64 42 141 42q71 0 108 -42q11 -11 11 -33q0 -19 -22.5 -39.5t-38.5 -20.5q-19 0 -38 22q-19 21 -48.5 40.5t-49.5 19.5q-30 0 -45 -21q-11 -14 -20 -74.5t-9 -146.5zM356 240q0 46 -2 58q-1 9 -30 36q-14 14 -14 19
q0 14 31 19q18 4 46.5 12t53 16t29.5 9q3 1 6.5 -3.5t3.5 -7.5q-4 -59 -4 -239q0 -15 2 -85q1 -21 7.5 -29t26.5 -14q24 -7 24 -20q0 -14 -32 -14q-2 0 -36.5 1.5t-47.5 1.5q-18 0 -54.5 -2t-43.5 -2q-12 0 -20.5 4.5t-8.5 9.5q0 10 28 19q22 8 29 30q6 21 6 181z" />
    <glyph glyph-name="longs_k" unicode="&#x17f;k" horiz-adv-x="797" 
d="M85 329q0 7 -12 9l-32 5q-12 3 -12 16q0 2 43 37q13 11 13 15q0 75 41 149q33 64 98 105q54 36 118 36q48 0 74 -16q10 -6 28 13q14 14 26 14q5 0 8 -10.5t3 -17.5q0 -47 -3.5 -181t-3.5 -188q0 -81 3 -91q1 -5 8 -5q2 0 14 10q36 29 112 113q1 3 2.5 7t-5 8.5t-19.5 7.5
q-26 6 -26 17q0 13 21 13h40q33 0 87.5 5t62.5 5q10 0 10 -8t-8.5 -16t-13.5 -9q-46 -11 -71.5 -22t-55.5 -35q-12 -9 -30 -25t-21 -23q-1 -2 -1 -7q5 -12 63.5 -92.5t84.5 -105.5q28 -26 56 -34q25 -8 25 -16q0 -18 -34 -18q-6 0 -62.5 3t-86.5 2q-9 0 -25 -0.5t-25 -0.5
q-27 0 -27 14q0 9 22 16t13 21q-42 63 -89 129q-12 18 -16 18q-1 0 -5 -9q-2 -7 -1.5 -57t2.5 -62t4 -18t9 -12.5t21 -9.5q22 -6 22 -15q0 -17 -30 -17q-12 0 -50 2t-50 2q-21 0 -52.5 -2t-32.5 -2q-31 0 -31 14q0 11 28 20q19 6 24 13.5t8 30.5q6 44 6 291q0 203 -3 227
q-2 17 -13 30q-10 11 -29 19.5t-33 8.5q-23 0 -38 -19q-11 -14 -19.5 -71.5t-8.5 -141.5q0 -238 7 -337q1 -17 3 -25.5t8.5 -16t19.5 -11.5q24 -7 24 -17q0 -6 -8.5 -11t-22.5 -5q-4 0 -36 2.5t-47 2.5q-22 0 -62 -3.5t-49 -3.5q-25 0 -25 16q0 3 6.5 8.5t14.5 7.5
q28 9 33.5 21.5t6.5 50.5q2 82 2 232z" />
    <glyph glyph-name="longs_l" unicode="&#x17f;l" horiz-adv-x="553" 
d="M85 329q0 7 -12 9l-32 5q-12 3 -12 16q0 2 43 37q13 11 13 15q0 75 41 149q32 63 98 104q55 37 118 37q48 0 74 -16q10 -6 31 16q11 11 23 11q5 0 8 -10.5t3 -17.5q0 -47 -2 -212t-2 -219q0 -127 5 -180q2 -20 9.5 -29.5t32.5 -17.5q21 -7 21 -18q0 -13 -28 -13
q-13 0 -55.5 2.5t-50.5 2.5q-12 0 -46 -2t-45 -2q-30 0 -30 12t25 19q21 6 26 19t7 55q6 94 6 248q0 219 -3 243q-2 17 -13 30q-10 11 -29 19.5t-33 8.5q-23 0 -38 -19q-11 -14 -19.5 -71.5t-8.5 -141.5q0 -238 7 -337q1 -17 3 -25.5t8.5 -16t19.5 -11.5q24 -7 24 -17
q0 -6 -8.5 -11t-22.5 -5q-4 0 -36 2.5t-47 2.5q-22 0 -62 -3.5t-49 -3.5q-25 0 -25 16q0 3 6.5 8.5t14.5 7.5q28 9 33.5 21.5t6.5 50.5q2 82 2 232z" />
    <glyph glyph-name="longs_longs" unicode="&#x17f;&#x17f;" horiz-adv-x="571" 
d="M85 329q0 9 -12 11l-28 5q-9 1 -13 8t1 13q9 13 35 26q17 8 17 21q0 54 29 117q28 57 87 98q72 48 140 48q74 0 123 -35q3 -2 10 3q55 57 142 57q40 0 71.5 -18t31.5 -45q0 -18 -11 -35t-26 -22q-10 -4 -22 -4q-15 0 -32 19q-52 57 -76 57q-16 0 -28 -14
q-33 -40 -33 -230q0 -225 4 -313q2 -32 9 -45.5t29 -18.5q27 -6 27 -20q0 -5 -9.5 -10.5t-17.5 -5.5q-17 0 -42 2t-53 2t-58.5 -2t-43.5 -2q-29 0 -29 18q0 9 27 18q32 11 32 55q0 13 1 108.5t1 128.5q0 14 -11 16l-33 5q-9 2 -12.5 7.5t0.5 11.5q10 13 38 28q15 8 17 21
q10 108 35 152q6 10 1 15q-20 22 -50.5 38.5t-58.5 16.5q-24 0 -45 -21q-40 -37 -39 -278v-14q0 -162 4 -242q1 -22 7 -32.5t21 -14.5q28 -9 28 -21q0 -15 -33 -15q-15 0 -40 1.5t-46 1.5q-36 0 -62 -2t-41 -2q-26 0 -28 14q0 13 25 20q7 2 12 4t9 5t6.5 5t4 7t2.5 7t1.5 9
t1 10t0.5 12.5v13.5q3 99 3 226z" />
    <glyph glyph-name="longs_longs_i" unicode="&#x17f;&#x17f;i" horiz-adv-x="844" 
d="M341 676q74 0 122 -35q3 -3 11 3q55 57 142 57q37 0 70 -15t33 -48q0 -18 -11 -35t-26 -22q-10 -4 -22 -4q-15 0 -32 19q-52 57 -76 57q-16 0 -28 -14q-33 -40 -33 -230q0 -241 4 -313q2 -24 3.5 -33t9 -17.5t22.5 -11.5q27 -6 27 -22q0 -5 -9.5 -10.5t-17.5 -5.5
q-17 0 -40.5 2t-51.5 2t-58.5 -2.5t-43.5 -2.5q-29 0 -29 19q0 3 8.5 10t18.5 10q32 11 32 53q0 4 1 98t1 139q0 14 -11 16l-33 5q-9 1 -13 8t1 13q9 13 35 26q19 9 20 21q10 108 35 152q1 2 -1 9.5t-3 8.5q-46 52 -104 52q-22 0 -47 -25q-7 -6 -12.5 -17t-9 -27t-6.5 -31.5
t-4.5 -37.5t-2.5 -38t-1.5 -39.5t-0.5 -36v-34.5v-27q0 -178 4 -242q1 -22 6.5 -31.5t21.5 -13.5q28 -9 28 -20q0 -19 -33 -19q-15 0 -40 2t-46 2q-36 0 -62 -2t-41 -2q-26 0 -28 12q0 14 23 20q12 4 19.5 9t11.5 8.5t5.5 16t2 16.5t0.5 25q3 99 3 226q0 9 -12 11l-28 5
q-9 1 -13 8t1 13q9 13 35 26q17 8 17 21q0 54 29 117q28 57 87 98q72 48 140 48zM603 353q0 14 31 19q18 4 46.5 12t53 16t29.5 9q3 1 6.5 -3.5t3.5 -7.5q-4 -59 -4 -239q0 -15 2 -85q1 -21 7.5 -29t26.5 -14q24 -7 24 -20q0 -14 -32 -14q-2 0 -36.5 1.5t-47.5 1.5
q-18 0 -55 -2t-44 -2q-12 0 -20.5 4.5t-8.5 9.5q0 11 28 19q12 3 19 9t8.5 9.5t3.5 11.5q5 23 5 181q0 46 -2 58q-1 9 -30 36q-14 14 -14 19z" />
    <glyph glyph-name="longs_longs_l" unicode="&#x17f;&#x17f;l" horiz-adv-x="830" 
d="M341 676q72 0 121 -33q7 -4 12 1q59 53 146 53q36 0 78 -18q10 -4 17 3q29 25 38 25q5 0 10 -5.5t5 -10.5q0 -32 -6 -332q-5 -177 3 -281q0 -2 0.5 -6.5t0.5 -6.5t0.5 -6t1 -5.5t2 -4.5t3 -4.5l4 -4t5.5 -4t7.5 -3.5t9.5 -3q23 -6 23 -15q0 -18 -24 -18q-10 0 -45 1.5
t-45 1.5q-22 1 -57 -1t-37 -2q-34 0 -34 17q0 9 25 17q19 6 24.5 16.5t6.5 33.5q2 34 3 171.5t0 155.5q3 55 -4 172q-1 21 -11 35q-8 12 -25.5 23t-36.5 11q-21 0 -33 -16q-11 -13 -17.5 -27t-13.5 -65t-7 -132q0 -241 4 -313q2 -24 3.5 -33t9 -17.5t22.5 -11.5
q27 -6 27 -22q0 -5 -9.5 -10.5t-17.5 -5.5q-17 0 -40.5 2t-51.5 2t-58.5 -2.5t-43.5 -2.5q-29 0 -29 17q0 3 8.5 10t18.5 10q32 11 32 55q0 4 1 98t1 139q0 14 -11 16l-33 5q-9 1 -13 8t1 13q9 13 35 26q19 9 20 21q10 108 35 152q5 10 0 16q-20 22 -50 38t-58 16
q-22 0 -47 -25q-7 -6 -12.5 -17t-9 -27t-6.5 -31.5t-4.5 -37.5t-2.5 -38t-1.5 -39.5t-0.5 -36v-34.5v-27q0 -178 4 -242q1 -36 33 -45q31 -10 31 -22q0 -17 -36 -17q-15 0 -42.5 2t-48.5 2q-36 0 -62 -2t-41 -2q-26 0 -28 12q0 14 23 20q12 4 19.5 9t11.5 8.5t5.5 16t2 16.5
t0.5 25q3 99 3 226q0 9 -12 11l-28 5q-6 1 -10 9.5t-2 11.5q8 10 35 26q17 10 17 21q0 54 29 117q28 57 87 98q72 48 140 48z" />
    <glyph glyph-name="Tcommaaccent_h" unicode="&#x162;h" horiz-adv-x="1078" 
d="M341 628h154q143 0 178 7q16 4 39 21q25 21 34 21q4 0 8.5 -4t4.5 -7q-10 -101 -12 -142q-6 -135 -3 -158q0 -1 1 -2t2.5 -3t3.5 0q53 48 113 48q73 0 109 -50q29 -39 29 -110q2 -148 4 -178q1 -32 39 -42q25 -6 25 -19q0 -14 -30 -14q-13 0 -42.5 2t-40.5 2
q-22 0 -53 -2t-49 -2q-13 0 -19.5 4.5t-6.5 9.5q0 10 20 17q16 5 22 16t8 35q2 23 2 177q0 53 -29 74q-21 16 -50 16q-34 0 -47 -10q-7 -5 -10 -26q-2 -58 -2 -222q1 -26 7.5 -38.5t24.5 -16.5q26 -6 26 -18q0 -15 -33 -15q-2 0 -14 0.5t-33.5 0.5h-47.5q-29 0 -57 -1.5
t-33 -1.5q-10 0 -18.5 4t-8.5 10q0 12 28 21q5 2 9.5 4t7.5 4.5t5.5 4.5t4 5.5t3 5.5t2 6t1 5t1.5 5v5q9 72 9 260q0 203 -4 216q-7 29 -19 29q-18 1 -90 0.5t-93 -3.5q-10 -1 -10 -12q0 -18 -1 -80t-1 -110q0 -199 6 -283q2 -23 17.5 -38t63.5 -25q9 -2 16 -9t7 -12
q0 -6 -9 -10t-18 -4q-3 0 -79 2t-86 2q-11 0 -66 -3t-64 -3q-32 0 -32 12q0 16 24 23q46 12 57.5 27.5t14.5 67.5q9 133 9 332q0 34 -0.5 73t-0.5 42q0 7 -4.5 10.5t-7.5 3.5q-24 4 -107 4q-5 0 -22 -8t-24 -15q-6 -6 -35 -53q-19 -30 -23 -30q-17 0 -17 23q0 7 9 58.5
t10 77.5q0 3 6 12.5t11 9.5q12 0 21 -16q6 -10 45 -14q57 -6 210 -6zM325 -53q35 0 60.5 -26.5t25.5 -71.5q0 -40 -27.5 -69t-54 -39t-42.5 -10q-19 0 -19 11q0 5 6 12t13 9q23 9 42 25.5t19 38.5q0 15 -7.5 21t-28.5 9q-41 9 -41 44q0 22 17.5 34t36.5 12z" />
    <glyph glyph-name="Tcaron_h" unicode="&#x164;h" horiz-adv-x="1078" 
d="M341 628h154q143 0 178 7q16 4 39 21q25 21 34 21q4 0 8.5 -4t4.5 -7q-10 -101 -12 -142q-6 -135 -3 -158q0 -1 1 -2t2.5 -3t3.5 0q53 48 113 48q73 0 109 -50q29 -39 29 -110q2 -148 4 -178q1 -32 39 -42q25 -6 25 -19q0 -14 -30 -14q-13 0 -42.5 2t-40.5 2
q-22 0 -53 -2t-49 -2q-13 0 -19.5 4.5t-6.5 9.5q0 10 20 17q16 5 22 16t8 35q2 23 2 177q0 53 -29 74q-21 16 -50 16q-34 0 -47 -10q-7 -5 -10 -26q-2 -58 -2 -222q1 -26 7.5 -38.5t24.5 -16.5q26 -6 26 -18q0 -15 -33 -15q-2 0 -14 0.5t-33.5 0.5h-47.5q-29 0 -57 -1.5
t-33 -1.5q-10 0 -18.5 4t-8.5 10q0 12 28 21q5 2 9.5 4t7.5 4.5t5.5 4.5t4 5.5t3 5.5t2 6t1 5t1.5 5v5q9 72 9 260q0 203 -4 216q-7 29 -19 29q-18 1 -90 0.5t-93 -3.5q-10 -1 -10 -12q0 -18 -1 -80t-1 -110q0 -199 6 -283q2 -23 17.5 -38t63.5 -25q9 -2 16 -9t7 -12
q0 -6 -9 -10t-18 -4q-3 0 -79 2t-86 2q-11 0 -66 -3t-64 -3q-32 0 -32 12q0 16 24 23q46 12 57.5 27.5t14.5 67.5q9 133 9 332q0 34 -0.5 73t-0.5 42q0 7 -4.5 10.5t-7.5 3.5q-24 4 -107 4q-5 0 -22 -8t-24 -15q-6 -6 -35 -53q-19 -30 -23 -30q-17 0 -17 23q0 7 9 58.5
t10 77.5q0 3 6 12.5t11 9.5q12 0 21 -16q6 -10 45 -14q57 -6 210 -6zM335 667q-14 0 -46 30q-70 66 -97 92q-2 1 -5.5 6t-6 11.5t0 11t12.5 4.5q18 0 36 -9q54 -27 100 -54q10 -6 21 0q12 8 50 25.5t52 25.5q22 11 35 11q11 0 6 -15q-4 -11 -18 -25l-96 -84q-30 -30 -44 -30
z" />
    <glyph glyph-name="gamma_gamma" unicode="&#x3b3;&#x3b3;" horiz-adv-x="811" 
d="M132 415q93 0 125 -146q13 -61 13 -148q0 -6 5 -2q2 2 3 5q63 186 122 246q17 22 40.5 33.5t38.5 11.5q82 0 111 -136q17 -80 17 -152q0 -7 7 -1q2 1 3 4q42 83 82 178q33 79 39 111q0 1 5 2t10.5 1t7.5 -2q31 -20 40 -53q6 -30 -10 -67q-2 -5 -71.5 -124.5t-83.5 -176.5
q-5 -25 -5 -29q0 -193 -4 -208q-1 -4 -10 -10.5t-14 -5.5q-27 6 -54 21.5t-37 35.5q-9 20 -5 33q23 84 58 175q10 31 8 77q-2 77 -32.5 143t-85.5 66q-24 0 -47 -15q-38 -25 -62.5 -86.5t-47.5 -165.5q-3 -15 -3 -51q2 -46 -0.5 -131.5t-7.5 -103.5q-1 -4 -14.5 -12
t-18.5 -7q-24 2 -53 21t-38 40q-9 20 -5 34q7 27 21 64t31.5 79t23.5 57q5 20 5 54t-4 56q-10 54 -45.5 103t-84.5 49q-47 0 -84 -28q-16 -11 -19 9q-2 11 3 34t11 35q17 30 49.5 56.5t66.5 26.5z" />
    <glyph glyph-name="lambda_lambda" unicode="&#x3bb;&#x3bb;" horiz-adv-x="776" 
d="M106 680q35 0 60 -29t51 -110q9 -27 39 -157.5t39 -162.5q7 -28 14.5 -49.5t14.5 -34t12 -21t11 -12.5t9.5 -5.5t8 -2t5.5 -0.5q3 -1 9.5 6.5t7.5 10.5q22 37 69.5 123t58.5 103q3 4 26 33q7 7 5 19q-40 204 -153 204q-52 0 -86 -20q-1 -1 -4 2.5t-5 8.5t-2 7q0 21 20 47
q44 61 110 61q90 0 129 -146q2 -6 42 -186t54 -217q6 -14 27 -34t47 -20q38 0 59 5q1 0 2 -1.5t1.5 -5.5t0.5 -5q2 -4 -1 -22q-5 -33 -30.5 -60t-51.5 -27q-57 0 -79 69q-22 65 -47 204q-2 7 -6.5 5t-5.5 -6q-3 -10 -22.5 -57t-50.5 -109.5t-52 -86.5q-6 -6 -20 -12t-22 -6
q-27 0 -48 12t-34.5 34.5t-20.5 40.5t-14 44q-38 146 -39 150q-2 6 -7.5 3.5t-6.5 -6.5q-3 -9 -42.5 -114t-42.5 -111q-24 -55 -41 -55q-35 0 -76 36q-4 4 -7 13t-2 11q4 18 37 79t70 125.5t39 68.5q28 54 33 60q13 13 6 36q-3 10 -7.5 33.5t-8 37t-12 33t-19 30t-29.5 18.5
t-43 8q-38 0 -70 -8q-2 -1 -8.5 4.5t-6.5 8.5q0 28 20 58q31 47 86 47z" />
    <glyph glyph-name=".notdef" horiz-adv-x="500" 
d="M0 0v700h500v-700h-500zM250 395l170 255h-340zM280 350l170 -255v510zM80 50h340l-170 255zM50 605v-510l170 255z" />
    <glyph glyph-name=".null" horiz-adv-x="0" 
 />
    <glyph glyph-name="nonmarkingreturn" horiz-adv-x="333" 
 />
    <glyph glyph-name="space" unicode=" " horiz-adv-x="190" 
 />
    <glyph glyph-name="exclam" unicode="!" horiz-adv-x="287" 
d="M160 612q40 0 60.5 -39.5t16.5 -72.5q-10 -91 -56 -272q-8 -35 -29 -35q-2 0 -6 3t-9.5 11.5t-8.5 20.5q-45 185 -52 265q-4 55 22.5 87t61.5 32zM154 152q32 0 56 -24t24 -56t-24 -58t-57 -26q-34 0 -56 24.5t-22 58.5q0 33 23.5 57t55.5 24z" />
    <glyph glyph-name="quotedbl" unicode="&#x22;" horiz-adv-x="374" 
d="M143 671q6 0 12.5 -9t6.5 -26q0 -29 -14 -104.5t-24 -102.5q-5 -14 -15 -26t-18 -12q-6 0 -12 9.5t-7 19.5q-12 123 -22 185q0 8 9 19q44 47 84 47zM310 684q7 0 13.5 -9t6.5 -26q0 -27 -15 -104t-26 -112q-5 -14 -15 -26.5t-19 -12.5q-6 0 -11.5 10t-6.5 20
q-4 42 -9 114t-6 83q0 10 9 19q44 44 79 44z" />
    <glyph glyph-name="numbersign" unicode="#" horiz-adv-x="502" 
d="M463 442q-12 -52 -25 -52l-73 -3q-5 0 -8 -10l-25 -95q-1 -2 1 -4.5t4 -1.5l75 2q3 0 5 -11t1 -17q-2 -15 -11 -36.5t-17 -21.5l-70 -3q-3 0 -5.5 -1.5t-3.5 -3t-1 -2.5l-39 -151q-5 -14 -28 -14q-5 0 -9.5 3t-2.5 8l38 151q1 3 -2 6t-5 3l-94 -4q-2 0 -6 -3.5t-4 -4.5
l-40 -153q-3 -11 -26 -11q-5 0 -9.5 5t-3.5 8l38 148q3 10 -6 10l-72 -2q-2 0 -4.5 10.5t-2.5 13.5q4 18 12 39.5t13 21.5l75 4q7 0 9 7l24 94q1 4 -0.5 7.5t-4.5 2.5l-75 -1q-3 0 -5 6.5t-2 17.5t3 22q3 10 10.5 22.5t11.5 13.5l76 4q8 0 10 7l36 136q6 12 27 12
q3 0 7.5 -3.5t4.5 -5.5l-33 -136q0 -7 3 -7l95 2q9 0 10 7l39 143q3 8 29 8q1 0 3 -1.5t3.5 -4.5t0.5 -8l-34 -133q-2 -9 3 -9h76q3 -3 4 -14.5t0 -16.5zM318 375q2 5 1 8t-5 2l-101 -3q-4 0 -6 -8l-24 -96q-1 -2 1 -5.5t5 -2.5l92 4q8 0 11 9z" />
    <glyph glyph-name="dollar" unicode="$" horiz-adv-x="502" 
d="M272 615l8 63q0 2 2.5 4.5t4.5 2.5q7 0 15.5 -3t8.5 -7l-8 -61q0 -7 4 -7q61 -6 94 -22q9 -3 16 -29q11 -41 11 -69q0 -11 -4 -20.5t-8 -9.5q-11 0 -16 12q-33 82 -95 104q-8 2 -8 -5l-19 -193q0 -7 5 -10q27 -13 38 -18.5t33.5 -18.5t32.5 -21.5t25.5 -23.5t21.5 -29.5
t11.5 -34.5t5.5 -43q0 -74 -72 -128q-45 -35 -136 -44q-7 -1 -7 -7l-7 -75q-1 -3 -9.5 -5.5t-12.5 -1.5q-6 0 -12 6l8 76q0 7 -4 7q-15 1 -63 12l-66 15q-13 4 -18 24q-2 11 -6 53t-4 46q0 18 9 18t18 -8t24 -35q29 -51 51.5 -68.5t57.5 -25.5q6 -1 6 5l22 199q1 6 -4 9
q-40 20 -63 34.5t-47.5 37t-35.5 52.5t-11 69q0 62 50 110q24 23 64 39t81 17q7 0 8 8zM261 223l-20 -185q0 -5 6 -5q39 5 68 29.5t29 69.5q0 28 -17 49.5t-59 44.5q-6 4 -7 -3zM247 390l19 181q0 8 -6 8q-43 -2 -67.5 -27.5t-24.5 -68.5q0 -58 73 -97q6 0 6 4z" />
    <glyph glyph-name="percent" unicode="%" horiz-adv-x="731" 
d="M194 622q67 0 105.5 -55t38.5 -116q0 -76 -39.5 -129.5t-109.5 -53.5q-52 0 -87.5 29.5t-48.5 66t-13 74.5q0 79 39 131.5t115 52.5zM197 296q46 0 46 138q0 57 -14.5 108t-46.5 51q-50 0 -50 -139q0 -50 16.5 -104t48.5 -54zM561 635q12 0 20.5 -8t5.5 -14
q-64 -98 -201 -314t-209 -326q-6 -8 -21 4q-13 13 -8 21q72 114 207 325t191 299q10 13 15 13zM546 340q68 0 106.5 -54t38.5 -114q0 -81 -37.5 -133.5t-113.5 -52.5q-73 0 -110 53.5t-37 111.5q0 81 38 135t115 54zM551 13q16 0 26.5 13t14 37.5t4.5 40t1 40.5v4v3
q0 54 -16.5 107t-45.5 53q-26 0 -37.5 -41.5t-11.5 -97.5q0 -20 3 -45t10 -51.5t20.5 -44.5t31.5 -18z" />
    <glyph glyph-name="ampersand" unicode="&#x26;" horiz-adv-x="787" 
d="M282 607q66 0 108 -39t42 -90q0 -14 -4.5 -26t-9.5 -20t-16.5 -18t-18 -14.5t-22.5 -14t-21 -13.5q-8 -5 -1 -10q25 -18 70.5 -60t77.5 -80q5 -4 12 3q57 58 83 111q13 26 13 35q0 14 -52 23q-7 2 -7 9q-1 4 6.5 12t15.5 8q68 0 125 6q11 1 33.5 4t28.5 3q11 0 19 -4
t8 -7q0 -15 -21 -20q-42 -12 -63 -25t-57 -51q-50 -52 -113 -131q-7 -7 -4 -12q5 -7 13 -17.5t19 -25t18 -23.5q15 -20 43.5 -35t63.5 -15q27 0 69 20q1 1 3 -0.5t3 -5t1 -6.5q0 -17 -17 -34q-53 -59 -149 -59q-43 0 -76 12q-27 11 -40 30q-43 63 -44 64q-4 4 -10 -2
q-39 -48 -83 -78q-45 -32 -99 -30q-86 2 -135.5 52t-49.5 125q0 32 15.5 60.5t27.5 40t38 31.5q4 3 6 5q29 23 48 33q3 1 3 5t-2 5q-56 56 -56 113q0 73 56 118q20 16 50.5 27t51.5 11zM267 575q-15 0 -31 -17.5t-16 -56.5q0 -28 26 -61.5t54 -49.5q8 -5 13 -3q13 6 23 29
q10 20 10 58q0 26 -20.5 63.5t-58.5 37.5zM295 72q21 0 51.5 13t44.5 29q7 7 3 12q-35 49 -98.5 111t-85.5 73q-6 4 -9 -3q-41 -45 -41 -103q0 -26 12.5 -54.5t32.5 -45.5q39 -32 90 -32z" />
    <glyph glyph-name="quotesingle" unicode="'" horiz-adv-x="214" 
d="M149 678q6 0 13.5 -9t7.5 -26q0 -29 -12.5 -97t-25.5 -106q-5 -15 -15 -28.5t-18 -13.5q-7 0 -14 10t-8 19q-14 122 -28 184q0 11 9 19q68 48 91 48z" />
    <glyph glyph-name="parenleft" unicode="(" horiz-adv-x="327" 
d="M144 287q0 -140 31 -225.5t108 -194.5q8 -12 -3 -21q-33 -19 -41 -19q-16 0 -31 17q-140 172 -140 422q0 134 48.5 244.5t115.5 185.5q15 17 28 17q9 0 20 -6.5t12 -11.5q4 -6 -4 -15q-68 -79 -106 -187.5t-38 -205.5z" />
    <glyph glyph-name="parenright" unicode=")" horiz-adv-x="327" 
d="M195 252q0 97 -16.5 170t-44 125t-79.5 125q-8 13 3 22q33 19 42 19q16 0 31 -17q139 -172 139 -419q0 -134 -49.5 -247t-115.5 -188q-13 -15 -25 -15q-9 0 -20.5 6.5t-12.5 11.5q-4 6 3 14q69 79 107 187.5t38 205.5z" />
    <glyph glyph-name="asterisk" unicode="*" horiz-adv-x="321" 
d="M161 647q5 1 11 -5t8 -13q12 -30 25 -89q0 -7 9 -2q51 34 75 40q23 6 25 -6q1 -10 -12 -25q-22 -21 -67 -54q-5 -5 1 -9q57 -32 79 -47q15 -10 15 -24q0 -6 -9.5 -8t-16.5 0q-48 10 -87 30q-3 2 -4.5 0t-1.5 -4q1 -30 1 -74q0 -38 -18 -38q-16 0 -22 28q-11 46 -16 80
q-2 4 -8 4q-48 -28 -79 -38q-11 -4 -21 -2t-10 8q0 13 14 25q16 14 69 51q4 3 -1 8q-52 26 -72 42q-15 10 -15 20q0 16 28 11q16 -3 82 -29q1 -1 3 1t2 4q-5 57 -1 89q3 25 14 26z" />
    <glyph glyph-name="plus" unicode="+" horiz-adv-x="624" 
d="M277 498q0 5 22 10t35 5q15 0 15 -11l-2 -208q0 -8 7 -8l198 -1q3 0 7 -4.5t4 -10.5q0 -17 -4.5 -32.5t-9.5 -15.5l-194 -2q-8 0 -8 -10l-1 -207q0 -9 -18 -13.5t-34 -4.5q-5 0 -10 4.5t-5 10.5l-2 209q0 11 -7 11h-194q-16 0 -16 20q0 13 4 29.5t9 16.5h195q9 0 9 8v204
z" />
    <glyph glyph-name="comma" unicode="," horiz-adv-x="257" 
d="M119 158q38 0 66 -31.5t28 -86.5q0 -38 -19 -70.5t-45 -50t-49 -27t-35 -9.5q-21 0 -21 14q0 11 21 21q70 37 70 82q0 31 -44 38q-6 1 -14 4.5t-18 16t-10 31.5q0 29 22.5 48.5t47.5 19.5z" />
    <glyph glyph-name="hyphen" unicode="-" horiz-adv-x="320" 
d="M63 236q17 4 106.5 13.5t99.5 9.5q4 0 8.5 -3.5t4.5 -7.5q1 -21 -6.5 -45.5t-17.5 -25.5q-195 -15 -201 -16t-11 5t-5 11q0 17 6.5 37t15.5 22z" />
    <glyph glyph-name="period" unicode="." horiz-adv-x="257" 
d="M132 148q37 0 55.5 -28t17.5 -53q-1 -38 -24 -58.5t-51 -20.5t-50.5 21.5t-22.5 57.5q0 40 25 60.5t50 20.5z" />
    <glyph glyph-name="slash" unicode="/" horiz-adv-x="421" 
d="M48 -49q51 131 143.5 373.5t123.5 322.5q12 24 21 24q15 0 33 -6q5 -2 8 -8.5t0 -13.5q-37 -94 -127.5 -329.5t-140.5 -363.5q-12 -28 -39 -16q-3 0 -9 3q-5 2 -5 0q0 -1 1 -2q-12 6 -9 16z" />
    <glyph glyph-name="zero" unicode="0" horiz-adv-x="502" 
d="M253 622q60 0 105 -30.5t69 -79.5t35.5 -99.5t11.5 -100.5q0 -117 -32 -191t-85 -105q-47 -30 -103 -30q-63 0 -110 33t-70.5 85t-34.5 102.5t-11 98.5q0 213 126 290q46 27 99 27zM242 591q-32 0 -52 -44q-30 -66 -30 -214q0 -136 29.5 -224.5t75.5 -88.5q29 0 45 32
q31 64 31 247q0 119 -20 188t-44 90q-16 14 -35 14z" />
    <glyph glyph-name="one" unicode="1" horiz-adv-x="502" 
d="M94 8q0 14 34 23q10 2 18 4.5t14 6t10 5.5t7 6.5t5 6t3 8t1.5 8t1.5 10t1 10.5q9 81 9 297v104q-3 19 -12 22q-10 4 -27 6.5t-18 2.5q-10 2 -18.5 8.5t-8.5 12.5q0 11 24 16q113 26 139 40q32 17 49 17q3 0 6 -3t3 -7q0 -3 -0.5 -20.5t-1.5 -51.5t-2 -65q-2 -129 0 -351
q0 -53 8.5 -66.5t56.5 -25.5q24 -7 24 -23q0 -13 -29 -13q-2 0 -47.5 2t-70.5 2q-37 0 -72.5 -1.5t-56 -3t-22.5 -1.5q-28 0 -28 14z" />
    <glyph glyph-name="two" unicode="2" horiz-adv-x="502" 
d="M52 -3q-5 0 -14.5 7t-9.5 11q0 11 11 21q87 78 164 176q81 105 81 202q0 56 -29.5 86.5t-70.5 30.5q-58 0 -116 -56q-20 -18 -21 -18q-3 0 -8 5.5t-5 10.5q0 12 16 35q36 52 85.5 83t103.5 31q76 0 127 -49t51 -128q0 -81 -87 -171q-35 -37 -174 -165q-1 -2 1.5 -4.5
t4.5 -2.5q33 -5 124.5 -5.5t108.5 3.5q25 5 49 37q12 18 23 18q8 0 10.5 -7t0.5 -15t-6 -16q-25 -53 -38 -112q-2 -10 -15 -10q-1 0 -59 1t-124 2.5t-86 1.5q-22 0 -56.5 -1.5t-41.5 -1.5z" />
    <glyph glyph-name="three" unicode="3" horiz-adv-x="502" 
d="M251 622q70 0 112 -38.5t42 -82.5q0 -55 -37 -87q-26 -21 -67 -44q-2 -1 -2 -3.5t4 -3.5q86 -15 130 -70q29 -39 29 -93q0 -65 -39 -120.5t-106 -94.5q-80 -46 -172 -46q-38 0 -69.5 16t-31.5 38q0 11 8 27q19 27 38 27q10 0 30 -16q55 -44 105 -44q31 0 55 18
q26 19 40.5 56.5t14.5 70.5q0 72 -34 109q-32 35 -85 35q-11 0 -76 -13q-3 -1 -5.5 4.5t-1.5 9.5q2 5 5 9.5t5.5 6.5t7 5.5t5.5 4.5q14 12 48 26q85 35 85 112q0 45 -28.5 74.5t-67.5 29.5q-60 0 -102 -49q-15 -18 -24 -18q-10 0 -10 15q-1 13 19 39t43 44q57 46 132 46z
" />
    <glyph glyph-name="four" unicode="4" horiz-adv-x="502" 
d="M393 439v-193q0 -2 2.5 -5.5t3.5 -3.5l83 3q4 0 8 -3t4 -7q0 -8 -8 -26t-15 -21l-72 2q-4 0 -6 -7q0 -57 2 -86q2 -31 11 -40.5t43 -21.5q22 -8 22 -17q0 -5 -7.5 -11t-20.5 -6q-12 -1 -57.5 1.5t-60.5 2.5q-20 0 -62.5 -2t-60.5 -2q-24 0 -24 14q0 11 30 21q34 11 40 20
t10 48q2 20 2 76q0 7 -8 7q-31 0 -87.5 0.5t-92 0.5t-49.5 -1q-18 -2 -18 10q0 10 22 41l315 441q9 15 21 15l19 -1q13 0 13 -8q0 -7 -3 -11l-309 -420q-5 -6 1 -8q11 -4 171 -4q5 0 5 8l2 172q0 14 10 20t51 16.5t54 10.5q5 0 10.5 -6t5.5 -19z" />
    <glyph glyph-name="five" unicode="5" horiz-adv-x="502" 
d="M447 182q0 -104 -95 -174q-45 -35 -118 -56t-113 -21h-19q-30 0 -30 11q0 4 8.5 14.5t11.5 10.5q38 5 76 16.5t75 31t60 51t23 69.5q0 73 -95 113q-71 30 -162 48q-4 1 -11 13.5t-7 19.5q0 27 22.5 105.5t38.5 115.5q2 5 12.5 19.5t12.5 14.5q19 8 115 23t142 15
q3 0 9.5 -4t6.5 -7q0 -24 -24 -67t-42 -47q-72 -16 -202 -16q-4 0 -11.5 -4.5t-8.5 -6.5q-11 -24 -12 -38q0 -2 4 -7t6 -6q49 -11 123.5 -35t100.5 -38q103 -60 103 -164z" />
    <glyph glyph-name="six" unicode="6" horiz-adv-x="502" 
d="M335 371q71 0 106.5 -48t35.5 -102q0 -124 -108 -197q-61 -43 -127 -43q-102 0 -159.5 64t-57.5 165q0 107 66 216t174 181q116 75 191 75q28 0 28 -15q0 -9 -15 -15q-89 -35 -176 -122q-53 -54 -92.5 -138t-39.5 -161q0 -99 39 -151.5t95 -52.5q24 0 45 21q28 28 28 86
q0 68 -29.5 111t-84.5 43q-16 0 -50 -12q-5 -1 -8.5 1t-3.5 5q0 19 14 31q23 21 63 40q37 18 66 18z" />
    <glyph glyph-name="seven" unicode="7" horiz-adv-x="502" 
d="M275 608q47 -1 152 3q10 0 19.5 0.5t14 1t6.5 0.5q13 0 17 -13q2 -5 -1 -8q-13 -19 -47.5 -86.5t-86.5 -173t-74 -148.5l-106 -212q-7 -15 -15 -15q-6 0 -18.5 7t-12.5 14q0 11 20 47q158 297 239 458q4 10 -2 10q-44 4 -203 4q-56 0 -76 -7q-16 -5 -48 -50
q-10 -15 -24 -15q-10 0 -10 12q0 8 8 28q6 16 12 43.5t11.5 55t5.5 28.5q1 4 15 22q4 2 10 0q21 -4 194 -6z" />
    <glyph glyph-name="eight" unicode="8" horiz-adv-x="502" 
d="M242 640q80 0 132.5 -44t52.5 -111q0 -48 -55 -92l-48 -37q-8 -4 1 -9q62 -42 93.5 -84t31.5 -99q0 -68 -63 -121q-66 -55 -158 -55q-98 0 -150.5 48.5t-52.5 106.5q0 30 13 55t25.5 36.5t33.5 26.5q22 16 52 33q4 4 1 7q-26 18 -47 39q-59 57 -59 124q0 79 63 130
q56 46 134 46zM251 25q41 0 60.5 27t19.5 68q0 65 -130 153q-14 9 -18 7q-19 -8 -37 -44.5t-18 -80.5q0 -47 33 -85q40 -45 90 -45zM229 604q-37 0 -56.5 -23.5t-19.5 -62.5q0 -73 130 -146q1 -2 5.5 -1.5t6.5 2.5q19 14 30 43q12 31 12 63q0 48 -33.5 86.5t-74.5 38.5z" />
    <glyph glyph-name="nine" unicode="9" horiz-adv-x="502" 
d="M255 622q97 0 155.5 -71t58.5 -176q0 -112 -71 -221.5t-183 -173.5q-88 -49 -137 -49q-8 0 -16.5 4.5t-8.5 13.5q0 6 4 8q102 53 167 133q110 138 110 280q0 139 -57 190q-25 22 -55 22q-39 0 -57.5 -36t-18.5 -79q0 -64 31 -109t85 -45q11 0 31 8q4 2 7 -1.5t3 -7.5
q0 -9 -5 -19q-11 -19 -19 -25q-46 -35 -94 -35q-65 0 -110 45t-45 128q0 49 27.5 100.5t88.5 85.5q53 30 109 30z" />
    <glyph glyph-name="colon" unicode=":" horiz-adv-x="322" 
d="M163 398q34 0 53 -27t18 -51q-1 -36 -24 -55t-50 -19q-28 0 -50.5 19.5t-22.5 58.5q0 37 25.5 55.5t50.5 18.5zM163 141q34 0 53 -27.5t18 -51.5q-1 -35 -24 -54t-50 -19q-28 0 -50.5 19.5t-22.5 57.5t25.5 56.5t50.5 18.5z" />
    <glyph glyph-name="semicolon" unicode=";" horiz-adv-x="322" 
d="M163 398q34 0 53 -27t18 -51q-1 -36 -24 -55t-50 -19q-28 0 -50.5 19.5t-22.5 58.5q0 37 25.5 55.5t50.5 18.5zM149 148q37 0 63.5 -30t26.5 -82q0 -47 -30.5 -83.5t-61.5 -51t-49 -14.5q-20 0 -20 13q0 12 20 20q67 27 67 78q0 26 -35 32q-18 3 -33 16t-15 38
q0 27 22 45.5t45 18.5z" />
    <glyph glyph-name="less" unicode="&#x3c;" horiz-adv-x="499" 
d="M451 89q2 -3 0.5 -12.5t-8 -23.5t-14.5 -22q-3 -3 -5.5 -3.5t-4.5 0.5t-9 5l-323 178q-41 23 -41 33q0 3 5 13q17 24 33 33l327 182q13 8 20 2q10 -10 18 -29.5t0 -26.5l-300 -157q-11 -6 -1 -11z" />
    <glyph glyph-name="equal" unicode="=" horiz-adv-x="624" 
d="M552 383q11 0 11 -12q0 -53 -10 -53l-478 -3q-15 0 -15 18q0 12 5 29t10 17zM555 194q8 0 8 -19q0 -18 -4.5 -32.5t-9.5 -14.5l-477 3q-3 0 -7.5 8t-4.5 17q0 11 5.5 24.5t9.5 13.5h480z" />
    <glyph glyph-name="greater" unicode="&#x3e;" horiz-adv-x="499" 
d="M451 261q0 -5 -5 -13q-17 -24 -33 -33l-332 -186q-5 -3 -22 11q-5 5 -9 16t-5 18.5t0 9.5q50 26 151.5 80t151.5 80q10 5 1 10l-303 160q-2 3 -2.5 11.5t4 21.5t12.5 21q11 11 16 7q55 -30 167 -91t167 -90q41 -23 41 -33z" />
    <glyph glyph-name="question" unicode="?" horiz-adv-x="385" 
d="M138 612q54 0 122 -48q19 -14 51.5 -59t32.5 -88q0 -75 -44 -113q-84 -49 -93 -53q-8 -3 -12.5 -8.5t-5.5 -9.5t-1.5 -13.5t-0.5 -12.5q-1 -11 -11 -16.5t-18 -5.5q-4 0 -25 50q-16 38 -16 72q0 33 31 59.5t98 56.5q23 10 31.5 18t7.5 22q-2 39 -57 39q-4 0 -41.5 -8.5
t-48.5 -8.5q-15 0 -32.5 27t-17.5 50q0 18 16 34t34 16zM186 144q34 0 54.5 -22t20.5 -53q0 -34 -22.5 -57.5t-55.5 -23.5q-32 0 -53 23.5t-21 55.5q0 31 23 54t54 23z" />
    <glyph glyph-name="at" unicode="@" horiz-adv-x="854" 
d="M464 308q-39 0 -66 -29q-31 -32 -51.5 -78t-20.5 -78q0 -36 20 -36q23 0 50 25q69 62 112 171q4 9 -3 14q-20 11 -41 11zM504 371q17 0 31 -10q6 -4 10 3q9 22 17 26q12 5 17 5q28 0 52 -15q5 -3 5 -15q-90 -225 -100 -277q-6 -40 32 -40q81 0 131.5 65t50.5 159
q0 121 -79 190t-206 69q-88 0 -158 -33.5t-112 -90t-64 -124t-22 -140.5q0 -59 18.5 -113.5t54.5 -99.5t96 -72t136 -27q59 0 116 19t94 46q4 3 7.5 -2t3.5 -13q0 -5 -9 -18q-41 -44 -110.5 -63t-129.5 -19q-67 0 -129.5 23t-113.5 66.5t-82 114t-31 157.5q0 79 27.5 149.5
t72.5 120.5t101 86.5t114.5 54t112.5 17.5q160 0 251.5 -87t91.5 -209q0 -114 -83 -194t-211 -80q-33 0 -55 10t-23 21q0 22 1 26l25 66q2 4 -0.5 5.5t-6.5 -1.5q-55 -57 -108 -92t-90 -35q-14 0 -25.5 15t-11.5 32q-2 62 97 183q46 56 103.5 98.5t90.5 42.5z" />
    <glyph glyph-name="A" unicode="A" horiz-adv-x="678" 
d="M357 645q10 0 18 -20q6 -13 38 -106q94 -266 143 -387q12 -29 22.5 -48t22 -29.5t20 -15t21.5 -8.5q27 -8 27 -19q0 -6 -9 -11t-24 -5q-11 0 -66 2t-68 2q-17 0 -58 -1t-53 -1q-32 0 -32 16q0 11 26 18q18 5 27.5 11.5t11.5 12t2 14.5q0 17 -42 134q-1 3 -8.5 10t-9.5 7
q-58 0 -97.5 -0.5t-56 -1.5t-17.5 -1q-5 0 -11 -11q-38 -96 -38 -130q0 -18 10.5 -28t35.5 -17q29 -7 29 -21q0 -13 -31 -13q-7 0 -33 1t-47 1q-23 0 -57.5 -2t-38.5 -2q-32 0 -32 13t26 20q35 9 50.5 26t39.5 65q11 20 44.5 102.5t72.5 181.5t54 134q5 13 6 17q2 5 8 13
q3 4 17 19t24.5 27.5t13.5 17.5q9 13 19 13zM358 270q1 0 2 1t2 3t0 5q-23 74 -70 193q-2 10 -9 1q-2 -2 -3 -5q-64 -161 -69 -187q-1 -5 2 -8.5t6 -3.5q94 2 139 1z" />
    <glyph glyph-name="B" unicode="B" horiz-adv-x="633" 
d="M551 483q0 -14 -2.5 -26.5t-6 -22t-10.5 -19.5t-11.5 -16t-13 -13.5t-12.5 -10.5t-13 -9.5t-10 -7.5q-2 -1 -1.5 -6t2.5 -5q118 -48 118 -165q0 -84 -86 -143q-32 -22 -87.5 -32.5t-92.5 -10.5q-54 0 -189 3q-25 1 -54 0l-28 -1q-33 0 -33 17q0 13 29 18q39 8 51 20.5
t15 40.5q9 94 9 314q0 114 -7 147q-4 17 -15 24t-48 15q-25 6 -25 21q0 13 28 13h65q15 0 102.5 3.5t109.5 3.5q99 0 146 -30q70 -43 70 -122zM418 469q0 60 -35 94t-84 34q-11 0 -31 -6q-7 -2 -9 -16q-2 -16 -2 -208q0 -3 3.5 -7.5t7.5 -4.5q77 0 105 22q45 33 45 92z
M441 175q0 42 -19 77t-51 52q-32 19 -76 19q-22 0 -29 -7q-9 -7 -9 -56q0 -28 5 -163q0 -19 11 -32q32 -34 61 -34q41 0 74 43t33 101z" />
    <glyph glyph-name="C" unicode="C" horiz-adv-x="706" 
d="M423 645q76 0 137 -17q29 -8 70 -12q5 -1 9.5 -9t4.5 -16l5 -95q1 -16 -4 -28.5t-14 -12.5q-11 0 -21 28q-19 50 -42 69q-65 60 -143 60q-112 0 -165.5 -75.5t-53.5 -198.5q0 -103 34 -171q72 -144 210 -144q55 0 91 21q52 31 83 88q19 34 31 34q7 0 8.5 -15.5
t-1.5 -23.5q-9 -37 -25 -81q-2 -7 -14 -18t-24 -16q-78 -30 -172 -30q-103 0 -182 34.5t-116 77.5q-84 97 -84 222q0 83 34 144.5t75 95.5q108 89 269 89z" />
    <glyph glyph-name="D" unicode="D" horiz-adv-x="763" 
d="M362 636q159 0 262 -95q42 -41 68.5 -99t26.5 -118q0 -97 -48 -170.5t-109 -107.5q-94 -54 -224 -54q-62 0 -202 5q-36 1 -75 1q-16 0 -25 5t-9 12q0 13 28 18q43 6 54 24.5t13 91.5q3 96 2 139q-1 30 -0.5 65.5t0 81t-2.5 71.5q-4 51 -13.5 67t-46.5 22q-8 2 -16 7.5
t-8 10.5q0 6 8.5 10.5t19.5 4.5h64q22 0 109.5 4t123.5 4zM316 599q-20 0 -44 -13q-7 -4 -7 -14q-4 -60 -4 -170v-144q0 -101 4 -160q2 -25 20 -43q10 -9 30.5 -18t28.5 -9q65 0 132 56q43 36 65.5 102.5t22.5 136.5q0 51 -17 106t-49 93q-30 35 -80 56t-102 21z" />
    <glyph glyph-name="E" unicode="E" horiz-adv-x="599" 
d="M264 628h150q50 0 87 8q3 1 7.5 -4t5.5 -10q1 -4 1 -113q0 -11 -5 -20t-12 -9q-6 0 -12 8.5t-8 17.5q-16 68 -63 78q-35 7 -138 7q-11 0 -12 -29q-4 -96 -4 -213q0 -3 3.5 -7t8.5 -4h86q31 0 43.5 4.5t16 9.5t15.5 33q13 28 24 28q13 0 11 -31q-4 -54 -4 -67q0 -35 4 -71
q1 -13 -3 -22t-11 -9q-6 0 -12 7t-8 16q-9 30 -22 41.5t-36 13.5q-32 3 -101 3q-3 0 -9 -6t-6 -8q-4 -43 -1 -130v-40t2 -41q1 -7 8 -15.5t15 -10.5q25 -5 76 -5q66 0 90 10q45 19 77 74q23 38 35 38q9 0 9 -30q0 -6 -16 -55.5t-23 -64.5q-3 -6 -13 -10t-15 -4
q-3 0 -160.5 2t-176.5 2q-41 0 -71.5 -2.5t-42.5 -2.5q-36 0 -36 13q0 15 31 22q38 9 50 23.5t15 54.5q8 109 8 221q0 189 -1 204q-2 28 -12 43t-40 20q-33 6 -33 20q0 6 10.5 10.5t21.5 4.5q24 0 98.5 -1.5t97.5 -1.5z" />
    <glyph glyph-name="F" unicode="F" horiz-adv-x="552" 
d="M205 628h134q115 0 165 5q6 1 10 -3.5t4 -9.5q-1 -21 -0.5 -36t2.5 -42t2 -39q2 -29 -16 -29q-13 0 -23 34q-8 29 -27 51.5t-43 25.5q-29 3 -131 3q-3 0 -9 -4.5t-6 -6.5q-7 -37 -7 -209q0 -35 13 -35q87 0 103 3q24 5 34.5 13t17.5 32q7 28 22 28q5 0 9 -9.5t4 -16.5
q0 -6 -1.5 -30t-1.5 -34q0 -17 1 -43.5t1 -30.5q0 -38 -18 -38q-11 0 -19 28q-12 42 -41 49q-30 6 -65 6q-31 0 -49 -3q-3 -1 -6 -5t-3 -6q0 -39 1 -81t2 -69t1 -29q1 -34 12 -45t46 -18q30 -6 30 -21q0 -7 -10.5 -11.5t-24.5 -4.5q-11 0 -46.5 1.5t-56.5 1.5
q-31 0 -84.5 -3t-70.5 -3q-30 0 -30 13q0 14 30 22q29 8 40.5 20t13.5 34q8 83 8 280q0 150 -2 176q-2 25 -11.5 36.5t-36.5 18.5q-36 10 -36 22q0 15 32 15q22 0 68.5 -1.5t68.5 -1.5z" />
    <glyph glyph-name="G" unicode="G" horiz-adv-x="752" 
d="M428 645q88 0 161 -21q24 -7 48 -7q10 0 12 -23q1 -12 8.5 -57t7.5 -69q0 -10 -5.5 -18t-13.5 -8q-10 0 -19 27q-15 41 -39 71q-22 26 -64.5 48t-95.5 22q-102 0 -163 -83t-61 -204q0 -109 40 -179q31 -56 82.5 -91t113.5 -35q25 0 51 18q20 14 20 79t-4 81
q-4 14 -8.5 22.5t-21 16.5t-45.5 11q-11 1 -20.5 7t-9.5 13q0 6 10.5 10.5t24.5 4.5q26 0 68 -2t53 -2q10 0 58 3t70 3q27 0 27 -16q0 -4 -7.5 -10.5t-15.5 -8.5t-13.5 -4t-9 -5t-5.5 -4.5t-3.5 -6t-2 -5.5t-1 -6.5t-0.5 -6.5q-5 -60 -5 -123q0 -13 17 -31q8 -11 8 -16
q0 -4 -5 -9t-10 -7q-43 -13 -91 -21q-110 -21 -152 -21q-80 0 -152.5 23t-116.5 63q-103 96 -103 250q0 140 110 236q47 42 120.5 66.5t152.5 24.5z" />
    <glyph glyph-name="H" unicode="H" horiz-adv-x="817" 
d="M262 358q3 -9 13 -9q36 0 137 2t136 2q6 0 8 24q2 8 1.5 71.5t-3.5 90.5q-3 28 -11 39t-35 18q-32 9 -32 21q0 15 35 15q5 0 53.5 -2t63.5 -2q18 0 65 2t51 2q32 0 32 -14t-33 -23q-24 -6 -31.5 -16.5t-9.5 -35.5q-8 -72 -8 -254q0 -32 4 -200q0 -19 5.5 -29t13 -14
t29.5 -11q31 -11 31 -23q0 -15 -34 -15q-7 0 -50 1.5t-59 1.5q-12 0 -63.5 -2t-61.5 -2q-39 0 -39 15q0 14 30 22q35 9 42 22.5t11 71.5q2 29 3 89.5t-1 71.5q-2 10 -7 10h-273q-5 -1 -9 -5.5t-4 -8.5q-3 -42 1 -172q1 -37 8.5 -50.5t36.5 -22.5q38 -11 38 -27
q0 -15 -34 -15l-57 1q-57 2 -78 2q-10 0 -52 -2t-60 -2q-38 0 -38 14q0 15 31 24q30 8 40.5 21t14.5 45q10 80 10 330q0 92 -1 111q-1 25 -9.5 35t-31.5 18q-37 12 -37 24q0 15 32 15q13 0 58.5 -2.5t58.5 -2.5q23 0 65.5 2t52.5 2q33 0 33 -14q0 -16 -36 -24
q-28 -6 -35 -20.5t-8 -49.5q-4 -159 -3 -166z" />
    <glyph glyph-name="I" unicode="I" horiz-adv-x="383" 
d="M122 338q0 154 -2 181q-2 29 -4 39.5t-12 20.5t-33 16q-32 9 -32 22q0 6 10.5 10.5t25.5 4.5t57.5 -2t59.5 -2q26 0 67 2t57 2q34 0 34 -15q0 -16 -33 -22q-31 -5 -41 -20t-12 -40q-3 -60 -3 -201q0 -174 3 -217q4 -46 14 -60t50 -25q28 -8 28 -23q0 -14 -33 -14
q-11 0 -41 1.5t-58.5 2.5t-50.5 1q-13 0 -50 -1.5t-56 -1.5q-34 0 -34 18q0 12 31 20t41.5 25t12.5 51q4 80 4 227z" />
    <glyph glyph-name="J" unicode="J" horiz-adv-x="370" 
d="M-79 -169q0 8 12.5 26.5t22.5 28.5q4 4 15.5 10.5t15.5 6.5q14 0 31 -12q45 -32 69 -32q15 0 21 9q10 13 15 56q2 27 2 340q0 121 -4 281q-2 35 -55 49q-32 9 -32 23q0 16 32 16q14 0 53.5 -2.5t62.5 -2.5q37 0 78 2t52 2q29 0 29 -13q0 -16 -31 -24q-24 -6 -33 -19.5
t-10 -49.5q0 -4 -3.5 -186t-5.5 -233q-4 -86 -41.5 -158.5t-93.5 -112.5q-74 -53 -126 -53q-26 0 -51 13t-25 35z" />
    <glyph glyph-name="K" unicode="K" horiz-adv-x="712" 
d="M43 616q0 6 9.5 10.5t21.5 4.5q11 0 52.5 -1.5t57.5 -1.5t60.5 1.5t55.5 1.5q34 0 34 -15q0 -11 -26 -18q-31 -9 -39.5 -19t-10.5 -45q-1 -19 -1 -201q0 -7 7 -7q9 0 18 9q28 20 94.5 88.5t108.5 120.5q18 18 14.5 31.5t-35.5 20.5q-26 6 -26 17q0 15 26 15h44
q48 0 102 3t61 3q30 0 30 -13q0 -14 -40 -21q-12 -2 -23.5 -5.5t-23 -9.5t-19.5 -9.5t-20 -12.5l-16 -12t-17 -13.5t-15 -12.5q-49 -39 -145 -140q-4 -3 -1 -10q17 -29 109 -141.5t136 -158.5q19 -20 37 -30.5t52 -17.5q8 -2 15 -8.5t7 -9.5q0 -7 -10.5 -12t-20.5 -5
q-13 0 -90 4t-91 4q-20 0 -50 -1.5t-39 -1.5q-24 0 -24 16q0 7 49 26q7 3 -1 15q-114 160 -161 214q-30 35 -34 35q-8 0 -8 -25q0 -23 5 -203q0 -27 47 -40q30 -8 30 -21q0 -7 -10.5 -11.5t-23.5 -4.5q-10 0 -59 1t-66 1q-15 0 -60 -2t-61 -2q-11 0 -19.5 5t-8.5 10
q0 13 29 20q36 8 46.5 24t13.5 62q2 31 2 222q0 73 -3 181q-1 40 -9 53.5t-37 21.5q-30 9 -30 21z" />
    <glyph glyph-name="L" unicode="L" horiz-adv-x="598" 
d="M42 616q0 15 30 15q13 0 55 -1.5t57 -1.5q21 0 72 2.5t61 2.5q33 0 33 -12q0 -7 -7 -13t-14 -8q-59 -15 -61 -40q-8 -59 -8 -301q0 -140 4 -175q1 -13 10.5 -22.5t17.5 -13t10 -3.5q30 -6 77 -6q45 0 72 7q19 4 26 11q42 42 67 83q13 20 27 20q13 0 4 -27
q-4 -13 -33 -124q-1 -3 -10 -9.5t-12 -6.5q-2 0 -38 1.5t-108 3.5t-161 2q-19 0 -78 -3t-79 -3q-31 0 -31 13q0 6 7.5 12t18.5 8q39 7 51 21.5t15 51.5q5 62 5 248q0 149 -1 182q-1 32 -10 44.5t-41 21.5q-28 7 -28 20z" />
    <glyph glyph-name="M" unicode="M" horiz-adv-x="885" 
d="M45 618q0 15 29 15q27 0 77.5 -2.5t98.5 -2.5q2 0 6 -5t5 -9q11 -33 39 -90q135 -278 151 -300q1 -1 4.5 -2t4.5 0q75 137 145 305q28 64 32 85q1 4 5.5 10t6.5 6q38 0 79.5 1t67.5 2.5t28 1.5q27 0 27 -13t-30 -21q-21 -5 -45 -18q-13 -6 -17 -23.5t-4 -58.5
q0 -316 12 -406q4 -24 16 -38t47 -22q12 -3 19.5 -9.5t7.5 -12.5q0 -16 -31 -16q-3 0 -65.5 2.5t-82.5 2.5q-8 0 -50 -1.5t-54 -1.5q-30 0 -30 14q0 7 8.5 14t19.5 9q20 4 31 17.5t13.5 27.5t4.5 40q7 89 7 343q0 12 -6 12q-3 0 -5 -4q-73 -151 -138 -302q-13 -32 -33 -81
t-26 -63q-14 -32 -30 -32q-3 0 -9.5 8t-10.5 16q-24 67 -37 100q-39 95 -91.5 213t-59.5 128q-6 10 -6 -3q-16 -158 -16 -332q0 -44 11 -60t50 -28q30 -10 30 -24t-29 -14q-16 0 -47 2t-42 2q-12 0 -47.5 -2.5t-46.5 -2.5q-32 0 -32 15q0 8 30 21q41 16 54.5 33.5t19.5 73.5
q33 293 33 389q0 53 -35 61l-40 11q-24 7 -24 19z" />
    <glyph glyph-name="N" unicode="N" horiz-adv-x="772" 
d="M26 617q0 6 8.5 11t19.5 5q7 0 72 -2.5t94 -2.5q10 0 23 -13q7 -8 18.5 -21t31.5 -35t36 -40q39 -45 282 -294q3 -3 5.5 0t2.5 5q2 11 2 199q0 62 -6 110q-6 39 -61 53q-36 9 -36 23t30 14q13 0 33.5 -0.5t26.5 -0.5q30 0 72.5 3t52.5 3q24 0 24 -15q0 -11 -25 -20
q-25 -8 -38 -20t-16 -21t-6 -28q0 -2 -0.5 -3.5t-0.5 -3.5q-3 -23 -6.5 -170t-3.5 -189q0 -22 3 -87t3 -79q0 -6 -7.5 -12t-10.5 -6q-30 0 -58 41q-12 16 -35.5 43.5t-31.5 37.5q-53 65 -179.5 203t-160.5 178q-3 4 -7 0.5t-4 -6.5q-4 -55 -5 -127q-3 -206 4 -259
q3 -21 16 -35t47 -24q29 -9 29 -19q0 -16 -33 -16q-14 0 -37 1.5t-41 1.5q-12 0 -57 -2t-53 -2q-10 0 -18 4.5t-8 9.5q0 12 24 19q39 11 55.5 28.5t18.5 69.5q2 51 9.5 188.5t7.5 174.5q0 54 -5 60l-9 12q-8 11 -12.5 14.5t-18.5 10.5t-33 11q-9 2 -18.5 7.5t-9.5 11.5z" />
    <glyph glyph-name="O" unicode="O" horiz-adv-x="784" 
d="M389 645q84 0 153 -29.5t111 -76.5t64.5 -103t22.5 -112q0 -161 -119 -263q-43 -35 -104 -57t-125 -22q-159 0 -260 104q-87 90 -87 230q0 155 127 255q38 30 96.5 52t120.5 22zM364 608q-53 0 -100 -47q-27 -26 -46.5 -81.5t-19.5 -137.5q0 -80 26.5 -152.5t79 -120.5
t119.5 -48q51 0 88 37q33 35 53 98t20 137q0 61 -23.5 137.5t-72.5 123.5q-24 23 -58.5 38.5t-65.5 15.5z" />
    <glyph glyph-name="P" unicode="P" horiz-adv-x="603" 
d="M420 440q0 61 -34.5 111t-88.5 50q-17 0 -26 -9q-7 -7 -8 -36q0 -9 -0.5 -46t-1 -102t-0.5 -109q0 -53 0.5 -110t0.5 -61q0 -27 1.5 -39t7.5 -25.5t19 -20.5t36 -12q28 -6 28 -22q0 -6 -9.5 -10.5t-20.5 -4.5t-62 3t-75 3q-15 0 -56.5 -1.5t-56.5 -1.5q-42 0 -42 17
q0 11 26 19q34 8 46.5 22t15.5 50q6 72 6 144q0 262 -2 288q-2 28 -15 41t-51 18q-7 1 -13.5 5.5t-6.5 9.5q0 13 21 17q6 1 33 1q41 0 113 4.5t90 4.5q151 0 208 -58q58 -57 58 -135q0 -95 -63 -149q-20 -17 -58 -31t-65 -14q-35 0 -51 6q-23 11 -23 22q0 3 5 7t11 4h10
q32 0 62.5 41t30.5 109z" />
    <glyph glyph-name="Q" unicode="Q" horiz-adv-x="783" 
d="M393 645q142 0 244 -89.5t102 -233.5q0 -90 -28 -146t-82 -106q-38 -34 -108 -65q-10 -4 -2 -15q13 -17 55.5 -50t77.5 -54q100 -58 163 -58q23 0 63 7q15 2 15 -7q0 -16 -24 -34q-19 -13 -56.5 -22t-61.5 -9q-69 0 -124.5 18.5t-119.5 57.5q-16 9 -39 26t-56 42t-58 43
q-59 42 -88 53q-102 43 -161.5 120.5t-59.5 186.5q0 172 139 271q88 64 209 64zM374 607q-53 0 -97 -35q-79 -62 -79 -252q0 -54 21.5 -114t58.5 -105q29 -36 66.5 -58t68.5 -22q63 0 95 22q38 26 57 103.5t19 134.5q0 69 -22 145t-66 124q-23 25 -57.5 41t-64.5 16z" />
    <glyph glyph-name="R" unicode="R" horiz-adv-x="661" 
d="M558 473q0 -38 -15.5 -65t-48.5 -56q-4 -4 -44 -24q-6 -2 -1 -13q20 -41 69.5 -122.5t80.5 -118.5q30 -35 80 -45q7 -1 13 -6t6 -8q0 -11 -18 -16q-22 -9 -72 -9q-51 0 -87.5 12.5t-48.5 24t-24 28.5q-48 69 -119 195q-17 31 -27 38q-20 13 -37 13q-9 0 -11 -9
q-2 -15 -1 -91.5t3 -106.5q3 -34 12 -44.5t42 -19.5q25 -7 25 -20q0 -16 -34 -16q-16 0 -62 3t-66 3q-26 0 -64.5 -2t-39.5 -2q-34 0 -34 17q0 9 25 17q33 10 44 22.5t13 35.5q6 74 6 269q0 144 -4 188q-4 38 -58 50q-26 6 -26 19q0 5 10 10.5t20 5.5h82q16 0 83.5 2.5
t96.5 2.5q125 0 179 -45q22 -18 37 -51t15 -66zM417 457q0 66 -42 109q-32 33 -72 33q-22 0 -34 -7q-9 -6 -11 -21q-3 -29 -5 -115.5t1 -114.5q2 -10 12 -10q32 0 61.5 7t38.5 13q51 40 51 106z" />
    <glyph glyph-name="S" unicode="S" horiz-adv-x="510" 
d="M292 645q30 0 129 -16q2 -1 7 -9t6 -12q0 -6 5 -52.5t5 -47.5q0 -24 -9 -24q-8 0 -18 7t-13 17q-15 49 -41 71q-35 31 -84 31q-33 0 -64.5 -27t-31.5 -71q0 -38 29.5 -67.5t102.5 -73.5q51 -31 84 -60.5t46.5 -57t17 -45.5t3.5 -41q0 -41 -24 -82.5t-67 -66.5
q-58 -36 -142 -36q-80 0 -150 26q-5 2 -16 13t-12 15q-18 70 -18 113q0 5 6.5 13.5t10.5 8.5q13 0 41 -54q24 -47 61.5 -72.5t80.5 -25.5q32 0 64 24.5t32 65.5q0 33 -23 64t-83 72q-88 58 -125.5 105t-37.5 112q0 43 18.5 79t44.5 56q60 48 165 48z" />
    <glyph glyph-name="T" unicode="T" horiz-adv-x="683" 
d="M342 628q168 0 211 3q62 5 81 15q14 9 17 9q5 0 9.5 -8.5t1.5 -18.5q-18 -68 -20 -117q0 -9 -5.5 -19t-14.5 -10q-13 0 -19 31q-9 45 -22 58t-46 13q-74 0 -113 -5q-10 -1 -10 -12q0 -18 -1 -80t-1 -110q0 -199 6 -283q2 -23 17.5 -38t63.5 -25q9 -2 16 -9t7 -12
q0 -6 -9 -10t-18 -4q-3 0 -79 2t-86 2q-11 0 -66.5 -3t-63.5 -3q-32 0 -32 12q0 16 24 23q46 12 57.5 27.5t14.5 67.5q9 133 9 332q0 34 -0.5 73t-0.5 42q0 7 -4.5 10.5t-7.5 3.5q-24 4 -108 4q-5 0 -22 -8t-24 -15q-6 -6 -35 -53q-19 -30 -23 -30q-17 0 -17 23q0 7 9 58.5
t10 77.5q0 3 6 12.5t11 9.5q8 0 17 -16q6 -10 45 -14q57 -6 215 -6z" />
    <glyph glyph-name="U" unicode="U" horiz-adv-x="763" 
d="M31 617q0 6 9 11t22 5q22 0 64 -2.5t59 -2.5q20 0 67.5 2.5t56.5 2.5q29 0 29 -16q0 -14 -31 -21q-26 -5 -36 -17t-15 -42q-4 -33 -4 -266q0 -80 13.5 -115.5t43.5 -65.5q18 -18 55 -29t56 -11q140 0 169 127q17 75 17 288q0 53 -5 81q-6 37 -67 53q-29 9 -29 21
q0 13 29 13q10 0 44 -2.5t51 -2.5q21 0 51 2.5t43 2.5q25 0 25 -16q0 -5 -9 -10.5t-19 -7.5q-38 -8 -51 -27.5t-13 -66.5q0 -16 -8 -224q-4 -79 -22.5 -134t-44 -83t-64.5 -51q-55 -31 -133 -31q-125 0 -192 62q-44 41 -61.5 95t-17.5 167q0 186 -5 246q-4 36 -48 45
q-29 8 -29 20z" />
    <glyph glyph-name="V" unicode="V" horiz-adv-x="683" 
d="M-5 617q0 7 8.5 11.5t19.5 4.5q6 0 52 -2.5t74 -2.5q18 0 68 1.5t60 1.5q24 0 24 -13q0 -15 -25 -22q-29 -9 -34.5 -20.5t4.5 -37.5q11 -35 68 -174.5t70 -162.5q3 -5 9 1q7 11 63 143t72 177q5 15 6 25.5t1 17t-7.5 12.5t-10 7.5t-16 6.5t-17.5 7q-23 9 -23 18
q0 6 7.5 11t18.5 5q18 0 45 -2t43 -2q15 0 48 2t42 2q30 0 30 -15q0 -14 -27 -20q-34 -8 -53.5 -26t-39.5 -60q-2 -3 -20 -40.5t-37 -78.5t-45.5 -100.5t-47.5 -110.5q-29 -67 -66 -173q-3 -9 -12.5 -18.5t-16.5 -9.5q-9 0 -16.5 10t-8.5 17q-13 45 -52 148
q-15 41 -40.5 102t-61 143t-50.5 119q-17 38 -31.5 54t-47.5 25q-27 7 -27 19z" />
    <glyph glyph-name="W" unicode="W" horiz-adv-x="979" 
d="M-6 618q0 15 30 15q26 0 65.5 -2.5t63.5 -2.5q21 0 42.5 1t35 2t16.5 1q11 0 20 -5t9 -10q0 -13 -29 -24q-27 -10 -17 -35q9 -22 177 -386q4 -8 8 2q36 58 62 122q3 5 0 14q-34 83 -100 211q-12 25 -15.5 31t-12.5 19t-17.5 17.5t-21.5 8.5q-23 7 -23 21q0 15 33 15
q4 0 43 -2.5t59 -2.5q29 0 68.5 1.5t40.5 1.5q25 0 25 -16q0 -13 -26 -20q-28 -7 -15 -43q16 -43 49 -114q3 -6 8 2q28 51 44 87q9 19 11 31.5t-3 20t-9.5 10t-15.5 7.5q-24 10 -24 21q0 14 30 14q8 0 29 -1.5t40 -1.5q18 0 45 1.5t34 1.5q25 0 25 -13t-30 -22
q-23 -8 -32 -12t-24 -17.5t-29 -36.5q-28 -43 -72 -126q-3 -7 0 -15q91 -190 103 -212q3 -3 5.5 -1t3.5 5q84 178 148 344q12 36 4 51t-39 24q-28 8 -28 19q0 14 32 14q12 0 36 -2.5t34 -2.5q16 0 44 2t44 2q31 0 31 -12q0 -14 -31 -22q-27 -7 -40.5 -19.5t-34.5 -51.5
q-11 -20 -129 -279q-82 -184 -101 -234q-4 -12 -13.5 -19.5t-17.5 -7.5q-12 0 -20 19q-21 49 -66 141t-51 106q-3 6 -6 0q-57 -104 -122 -250q-4 -8 -16 -15.5t-20 -7.5q-1 1 -2.5 2t-2.5 1.5t-2 1.5t-2 2.5t-2.5 4.5l-3.5 7q-2 3 -9.5 24t-21.5 57t-33 76
q-138 311 -165 363q-21 41 -34 55.5t-42 22.5q-27 8 -27 21z" />
    <glyph glyph-name="X" unicode="X" horiz-adv-x="730" 
d="M38 617q0 6 8 11t22 5q8 0 72.5 -2.5t84.5 -2.5q21 0 47.5 1.5t41.5 1.5q31 0 31 -12q0 -15 -33 -28q-19 -6 -10 -27q24 -55 93 -160q4 -7 10 -1q22 26 60 78.5t55 80.5q6 10 -3.5 19t-30.5 14q-13 3 -19.5 10t-6.5 12q0 14 26 14q16 0 45 -1.5t43 -1.5q13 0 56 2.5
t55 2.5q26 0 26 -11q0 -6 -8.5 -13t-17.5 -9q-48 -12 -77.5 -27.5t-57.5 -46.5q-10 -12 -38 -44t-46.5 -55t-37.5 -50q-5 -9 -2 -16q6 -19 54.5 -97.5t85.5 -132.5q31 -44 60 -67.5t81 -35.5q9 -2 14.5 -6t7.5 -7.5t1 -5.5q0 -16 -36 -16q-7 0 -87 3.5t-103 3.5
q-16 0 -49 -3t-38 -3q-25 0 -25 14q0 13 24 21q17 6 27 11q2 2 3.5 7.5t0.5 8.5q-13 25 -60 105.5t-55 87.5q-6 6 -11 1q-49 -55 -93 -126q-25 -47 -21 -64.5t35 -27.5q26 -8 26 -19q0 -17 -26 -17q-13 0 -48.5 2t-53.5 2q-23 0 -56 -3t-42 -3q-36 0 -36 13q1 10 8.5 14.5
t26.5 8.5q62 15 113 72q67 76 146 181q4 5 1 14q-4 17 -54.5 100t-98.5 148q-19 25 -34.5 34.5t-45.5 15.5q-14 3 -22.5 9.5t-7.5 12.5z" />
    <glyph glyph-name="Y" unicode="Y" horiz-adv-x="650" 
d="M6 621q0 14 32 14q12 0 62.5 -3.5t75.5 -3.5q13 0 49 1t57 1q27 0 27 -12q0 -6 -7 -13t-17 -9q-46 -9 -26 -49q53 -97 107 -191q2 -2 7 -1t7 4q85 139 103 175q14 21 8.5 38t-40.5 25q-30 6 -30 24q0 10 22 10q13 0 35.5 -1.5t33.5 -1.5q13 0 64.5 3t58.5 3q24 0 24 -11
q0 -15 -29 -24q-17 -4 -29 -9.5t-26 -19t-18.5 -19t-23.5 -28.5q-58 -72 -133 -195q-9 -18 -9 -50q0 -134 7 -192q2 -16 5.5 -24.5t16.5 -16.5t38 -15q27 -7 27 -20q0 -15 -32 -15q-6 0 -57.5 2.5t-63.5 2.5q-31 0 -65 -2t-56.5 -3.5t-26.5 -1.5q-27 0 -27 13t30 22
q37 11 50.5 21.5t14.5 23.5q1 16 1 188q0 31 -9 54q-5 9 -116 194q-30 49 -50 67.5t-43 24.5q-29 7 -29 20z" />
    <glyph glyph-name="Z" unicode="Z" horiz-adv-x="637" 
d="M307 628q193 0 242 7q8 1 14.5 -1t6.5 -7q0 -14 -14 -33q-53 -73 -79 -114q-64 -99 -142 -235t-95 -176q-1 -4 1 -10.5t4 -7.5q29 -10 96 -13q33 -1 88 -1q40 0 80 30t72 84q18 30 26 30q13 0 13 -26q-1 -10 -16.5 -55t-34.5 -87q-8 -18 -57 -18q-84 0 -225.5 2t-151.5 2
q-26 0 -56 -1.5t-31 -1.5q-6 0 -12 3.5t-5 9.5q0 5 10 20.5t16 21.5q53 69 175 277.5t136 246.5q1 3 0 7t-3 4q-24 4 -134 4q-23 0 -57 -6q-32 -7 -56 -24.5t-46 -56.5q-14 -28 -25 -28q-8 0 -11.5 9.5t-0.5 19.5q3 14 23.5 66t27.5 81q2 9 4 10.5t8 1.5q10 0 15 -8
q8 -12 17.5 -16t31.5 -6q46 -5 145 -5z" />
    <glyph glyph-name="bracketleft" unicode="[" horiz-adv-x="337" 
d="M124 697q33 0 90 0.5t59 0.5q9 0 17.5 -6t8.5 -12t-6.5 -11t-15.5 -7q-47 -9 -87 -11q-5 0 -10.5 -7t-6.5 -16q-4 -73 -4 -314q0 -10 7 -379q0 -49 17 -50q13 -1 34.5 -3.5t37 -5t17.5 -2.5q5 0 15 -6.5t10 -11.5q0 -6 -11.5 -13t-20.5 -6q-1 0 -26 0.5t-41 0.5
q-17 0 -57.5 -0.5t-41.5 -0.5q-2 0 -5 2.5t-6 10.5t-3 19v574q0 69 -0.5 123.5t-0.5 81.5v28q0 12 8 18q3 3 22 3z" />
    <glyph glyph-name="backslash" unicode="\" horiz-adv-x="390" 
d="M364 -51q1 -3 -1 -8.5t-6 -7.5q-24 -12 -36 -12q-8 0 -18 26q-51 129 -143.5 370.5t-126.5 328.5q-4 9 10 15q22 11 35 11q6 0 17 -22q30 -78 124 -323.5t145 -377.5z" />
    <glyph glyph-name="bracketright" unicode="]" horiz-adv-x="337" 
d="M224 -162q-34 0 -91 -0.5t-59 -0.5q-9 0 -17 6t-8 11q0 6 10 12t19 8q48 9 83 11q11 0 13 24q4 72 4 312q0 10 -7 379q0 48 -17 49q-46 3 -89 11q-6 1 -15 7t-9 11q0 7 11 14t20 6q2 0 26.5 -0.5t41.5 -0.5q16 0 57 0.5t42 0.5q2 0 5 -3t5.5 -11t2.5 -19v-573v-124
t0.5 -82t0.5 -28q0 -10 -7 -17q-3 -3 -22 -3z" />
    <glyph glyph-name="asciicircum" unicode="^" horiz-adv-x="493" 
d="M247 618q13 0 33 -41l164 -310q6 -13 2 -19q-8 -7 -23 -13.5t-25 -8.5t-13 0l-138 275q-6 9 -11 -2l-132 -267q-5 -9 -25.5 0t-30.5 20q-5 5 2 19l159 304q7 14 19.5 28.5t18.5 14.5z" />
    <glyph glyph-name="underscore" unicode="_" horiz-adv-x="495" 
d="M0 -124h495v-49h-495v49z" />
    <glyph glyph-name="grave" unicode="`" horiz-adv-x="400" 
d="M174 657q15 0 28 -35q4 -10 11.5 -35t17.5 -60t15 -50q10 -37 -6 -37q-15 0 -26 16q-21 26 -55 79t-43 70q-10 19 -5 28q4 11 27 19q12 5 36 5z" />
    <glyph glyph-name="a" unicode="a" horiz-adv-x="429" 
d="M223 409q71 0 111 -58q23 -32 23 -88q0 -23 -2 -93t-2 -72q0 -15 10 -25t25 -10q4 0 33 11q4 1 6 -1q4 -5 4 -16q0 -18 -34.5 -44t-75.5 -26q-62 0 -80 47q-1 4 -5 5t-5 -1q-31 -23 -74 -40q-20 -9 -46 -9q-30 0 -55.5 31t-25.5 73q0 27 18 52q7 9 34 23q11 5 41 14
t64.5 18.5t39.5 11.5q5 1 9 6t4 8q1 8 2 36.5t0 37.5q-2 23 -17.5 43t-44.5 20q-18 0 -28 -5q-5 -3 -5 -49q0 -5 -3 -8q-4 -4 -49 -24t-50 -20t-9.5 5t-4.5 10q0 23 19.5 45.5t69.5 54.5q26 17 58.5 27t44.5 10zM196 53q20 0 31 9q4 3 7 16q4 36 4 95q0 10 -6 10
q-9 0 -35 -8.5t-35 -15.5q-8 -6 -11 -9t-5 -10.5t-2 -20.5q0 -30 17.5 -48t34.5 -18z" />
    <glyph glyph-name="b" unicode="b" horiz-adv-x="531" 
d="M499 206q0 -104 -98 -174q-30 -22 -73.5 -33t-78.5 -11q-62 0 -138 22q-5 2 -21 -5q-12 -5 -13 -5q-3 0 -8.5 4.5t-5.5 9.5q7 109 7 334q0 204 -3 228q-2 16 -19 29q-5 4 -11 8t-9.5 6.5t-6.5 4.5t-4 4t-1 3q0 6 6 12t12 8q93 23 122 37q27 13 36 13q2 0 6.5 -6t4.5 -11
q-9 -222 -9 -227v-71q0 -3 1 -4.5t3 -0.5q46 28 101 28q81 0 131 -44q69 -60 69 -159zM360 187q0 76 -40 125q-12 17 -37 30t-50 13q-14 0 -29 -5q-8 -5 -8 -10q-2 -18 -2 -54q0 -133 9 -182q8 -38 31 -59q20 -20 47 -20q18 0 42 28q37 46 37 134z" />
    <glyph glyph-name="c" unicode="c" horiz-adv-x="425" 
d="M279 403q25 0 56.5 -6.5t44.5 -15.5q18 -13 18 -39q0 -13 -17.5 -32t-24.5 -19q-17 0 -49 28q-1 1 -11.5 10t-13 11.5t-11.5 9t-14 8.5t-12.5 4.5t-14.5 2.5q-17 0 -34 -17t-27.5 -52.5t-10.5 -72.5q0 -72 36 -108q42 -48 100 -48q43 0 99 35q1 1 3.5 0t4.5 -4t2 -7
q0 -16 -17 -33q-28 -29 -70 -49t-88 -20q-55 0 -97.5 23.5t-64.5 56.5q-34 53 -34 116q0 108 101 174q26 18 69 31t77 13z" />
    <glyph glyph-name="d" unicode="d" horiz-adv-x="533" 
d="M276 406q33 0 50 -2q8 0 8 8q3 28 2 92.5t-4 88.5q-3 28 -39 42q-16 6 -16 11q0 4 7 11.5t11 8.5q104 15 137 29q14 6 23 6q4 0 7 -7t2 -15q-9 -90 -9 -372q0 -40 0.5 -79.5t1 -65.5t0.5 -31q1 -84 19 -84q3 0 22 1t26 1q6 0 6 -10q0 -4 -9.5 -15t-13.5 -12
q-109 -18 -114 -20q-32 -12 -47 -12q-4 0 -8.5 5t-4.5 9q0 3 1.5 16t1.5 21q0 3 -2 5t-3.5 3t-2.5 0q-24 -19 -58 -32.5t-62 -13.5q-66 0 -117 44q-59 51 -59 143q0 122 109 187q26 16 65.5 27.5t69.5 11.5zM241 368q-23 0 -50 -27q-35 -38 -35 -120q0 -67 38 -116.5
t92 -49.5q22 0 37 11q3 2 7.5 17t4.5 21q5 115 0 177q0 3 -5.5 18.5t-10.5 22.5q-37 46 -78 46z" />
    <glyph glyph-name="e" unicode="e" horiz-adv-x="425" 
d="M246 409q67 0 111 -44q40 -37 40 -90q0 -7 -7.5 -17t-15.5 -10h-213q-9 0 -13 -7q-3 -12 -3 -36q0 -15 7.5 -41.5t19.5 -41.5q38 -48 110 -48q62 0 90 35q10 12 13 12q2 0 5.5 -5t3.5 -10q0 -14 -7 -24q-60 -94 -168 -94q-86 0 -136.5 57.5t-50.5 144.5q0 63 34 117.5
t96 82.5q40 19 84 19zM242 380q-30 0 -56.5 -27.5t-33.5 -62.5q-1 -4 2 -7t6 -3h24h33h40q12 0 23.5 10.5t11.5 28.5q0 21 -16 41t-34 20z" />
    <glyph glyph-name="f" unicode="f" horiz-adv-x="309" 
d="M216 395h93q5 0 9.5 -16t4.5 -31q0 -3 -6 -7.5t-9 -4.5t-43.5 1t-46.5 1q-2 0 -5 -4.5t-3 -8.5q0 -190 5 -244q1 -17 4 -24.5t14.5 -15t35.5 -12.5q25 -6 25 -17q0 -6 -8.5 -11t-23.5 -5q-4 0 -32.5 2t-43.5 2q-42 0 -89 -2t-52 -2q-25 0 -25 16q0 3 6.5 8.5t14.5 7.5
q28 9 33.5 20t6.5 49q3 123 3 229q0 11 -8 11l-43 -2q-3 0 -6.5 5.5t-3.5 10.5q0 3 53 44q8 7 8 13q0 29 10 70.5t27 72.5q38 73 100 112q53 36 114 38q41 1 71 -18q9 -6 18.5 -20t9.5 -25q0 -18 -12.5 -36t-27.5 -23q-10 -4 -22 -4q-16 0 -32 19q-40 45 -60 52q-7 2 -13 2
q-17 0 -28 -14q-31 -37 -31 -232q0 -2 3.5 -4.5t4.5 -2.5z" />
    <glyph glyph-name="g" unicode="g" horiz-adv-x="474" 
d="M234 412q40 0 100 -17q26 -7 27 -7q59 0 111 -7q10 -2 10 -12t-9.5 -25.5t-13.5 -15.5q-43 0 -55 1q-2 0 -3.5 -1.5t-1.5 -3v-2.5q5 -25 5 -39q0 -79 -58 -124q-53 -39 -126 -39q-27 0 -43 3q-11 1 -14 -2q-13 -11 -13 -22t12.5 -22t23.5 -12q177 -8 189 -10
q30 -5 54 -24q43 -40 43 -93q0 -56 -33.5 -97.5t-73.5 -65.5q-73 -44 -157 -44q-72 0 -126 32q-56 37 -56 92q0 37 32 57q41 22 61 34q10 5 1 7q-21 5 -42 19q-40 27 -40 81q0 11 7 13q1 1 19.5 12.5t38 25t27.5 22.5q6 6 -1 10q-30 13 -57 46t-27 80q0 68 60 111
q51 39 129 39zM223 382q-20 0 -33 -19q-22 -31 -22 -83q0 -53 21 -91.5t51 -38.5q14 0 29 15q22 26 22 99q0 14 -6.5 42t-15.5 42q-22 34 -46 34zM257 -219q45 0 77 17q41 22 41 73q0 29 -18 46q-20 20 -58 25q-39 4 -106 4q-31 0 -44 -13q-23 -25 -23 -55q0 -42 34 -68
q37 -29 97 -29z" />
    <glyph glyph-name="h" unicode="h" horiz-adv-x="531" 
d="M317 409q73 0 109 -50q28 -38 28 -110q2 -148 4 -178q1 -18 10 -27.5t30 -14.5q25 -6 25 -19q0 -14 -30 -14q-14 0 -43.5 2t-39.5 2q-23 0 -53.5 -2t-48.5 -2q-27 0 -27 14q0 10 21 17q16 5 22 16t8 35q2 23 2 177q0 53 -29 74q-22 16 -51 16q-33 0 -46 -10
q-7 -5 -10 -26q-2 -39 -2.5 -123t0.5 -99q1 -26 7.5 -38.5t24.5 -16.5q25 -6 25 -18q0 -15 -32 -15q-2 0 -14 0.5t-33.5 0.5h-47.5q-30 0 -58 -1.5t-32 -1.5q-10 0 -18.5 4t-8.5 10q0 12 28 21q5 2 9 4t7.5 4.5t5.5 4.5t4 5.5t3 5.5t1.5 6t1 5t1 5t0.5 5q9 72 9 290
q0 191 -3 214q-1 5 -1.5 8.5t-3 7t-3.5 5t-5.5 5t-6.5 5t-8.5 6t-10.5 7.5q-10 5 -10 19q0 6 8 8q104 19 145 42q12 7 16 7q3 0 7.5 -5t4.5 -8q-5 -35 -8 -115.5t-3 -135.5v-71q0 -1 1 -2t2.5 -3t3.5 0q53 48 113 48z" />
    <glyph glyph-name="i" unicode="i" horiz-adv-x="281" 
d="M150 0q-18 0 -57 -2t-46 -2q-12 0 -20.5 4.5t-8.5 9.5q0 11 28 19t35 30q6 21 6 181q0 46 -2 58q-1 8 -31 36q-13 15 -13 19q0 14 30 19q19 4 47.5 12t53 16t29.5 9q3 1 6.5 -3.5t3.5 -7.5q-4 -59 -4 -239q0 -15 2 -85q1 -21 7.5 -29t26.5 -14q23 -8 23 -20
q0 -14 -31 -14q-2 0 -37 1.5t-48 1.5zM153 621q27 0 42.5 -22.5t15.5 -45.5q0 -26 -21.5 -46.5t-43.5 -20.5q-26 0 -44 18q-21 19 -21 49q0 29 18 47q21 21 54 21z" />
    <glyph glyph-name="j" unicode="j" horiz-adv-x="271" 
d="M27 354q0 7 17 11q88 22 130 46q11 6 19 6q3 0 7.5 -5t4.5 -9q0 -22 -1.5 -178t-2.5 -170q-3 -102 -40 -163q-38 -66 -85 -106q-22 -19 -49 -34.5t-34 -15.5q-15 0 -25 14q-7 7 3 13q46 29 62 48q46 56 46 239q0 180 -3 230q-1 10 -2.5 16.5t-10 16t-24.5 21.5
q-12 8 -12 20zM125 621q37 0 55.5 -24t18.5 -44q0 -33 -22.5 -50.5t-45.5 -17.5q-19 0 -41 20t-23 47q-2 32 25 55q14 14 33 14z" />
    <glyph glyph-name="k" unicode="k" horiz-adv-x="518" 
d="M305 395h40q33 0 87.5 5t62.5 5q10 0 10 -8t-8.5 -16t-13.5 -9q-46 -11 -71.5 -22t-56.5 -35q-42 -33 -50 -48q-3 -5 -1 -7q5 -12 63.5 -92.5t83.5 -105.5q29 -26 57 -34q25 -8 25 -16q0 -18 -34 -18q-6 0 -63 3t-87 2l-49 -1q-27 0 -27 14q0 9 22 16t13 21
q-20 30 -89 129q-12 18 -16 18q-1 0 -5 -9q-2 -7 -1.5 -57t2.5 -62t4 -18t9 -12.5t21 -9.5q21 -6 21 -15q0 -17 -29 -17q-13 0 -50.5 2t-49.5 2q-21 0 -57.5 -2t-37.5 -2q-31 0 -31 14q0 10 32 20q20 6 28 15t9 30q7 133 7 290q0 167 -6 225q-1 14 -30 29q-16 8 -16 24
q0 5 16 9q88 18 134 41q20 10 21 10q2 0 6.5 -5.5t3.5 -8.5q-9 -56 -9 -374q0 -81 3 -91q1 -5 8 -5q2 0 14 10q40 32 112 113q1 3 2.5 7t-5 8.5t-19.5 7.5q-26 6 -26 17q0 13 21 13z" />
    <glyph glyph-name="l" unicode="l" horiz-adv-x="273" 
d="M29 639q0 4 6 10t14 8t32.5 8t38.5 10t35 12t37 18q2 1 8 -3t6 -7q-8 -107 -8 -442q0 -127 5 -180q2 -20 9.5 -29.5t32.5 -17.5q20 -7 20 -18q0 -13 -27 -13q-13 0 -55.5 2.5t-50.5 2.5q-12 0 -49 -2t-47 -2q-30 0 -30 12t25 19q21 6 28.5 20t9.5 54q6 94 6 320
q0 131 -1 160q0 10 -5 16.5t-22 20.5q-18 15 -18 21z" />
    <glyph glyph-name="m" unicode="m" horiz-adv-x="794" 
d="M45 345q0 4 7 11t11 8q62 16 124 47q4 2 9 -1q7 -6 7 -15q0 -7 -1 -20t-1 -18q0 -2 3 -5t5 -1q74 58 135 58q43 0 71 -21q18 -13 32 -37q1 -1 4 -2t4 0q38 29 62 41q36 19 69 19q51 0 86 -35q36 -35 40 -104l6 -207q2 -27 32 -37q20 -6 20 -16q0 -14 -28 -14q-9 0 -39 2
t-46 2q-19 0 -48.5 -1.5t-39.5 -1.5q-25 0 -25 15q0 9 20 16q17 5 22 15t7 41q2 65 -1 177q0 29 -13 50q-20 32 -56 32q-32 0 -55 -18q-7 -6 -7 -31q0 -194 2 -216q2 -25 9 -34t33 -17q20 -5 20 -16q0 -5 -7.5 -9.5t-18.5 -4.5t-49 1.5t-49 1.5t-44 -1t-43 -1q-30 0 -30 16
q0 8 20 15q19 6 26.5 16.5t7.5 36.5l2 160q1 50 -12 70q-21 31 -59 31q-31 0 -52 -18q-9 -7 -9 -20v-232q0 -31 35 -42q22 -7 22 -18q0 -5 -8.5 -10t-18.5 -5q-1 0 -20 0.5t-44.5 1t-42.5 0.5q-18 0 -49 -2t-40 -2q-29 0 -29 14q0 10 26 17q25 6 31.5 17t9.5 46q7 91 7 190
q0 15 -6 21q-36 38 -36 44z" />
    <glyph glyph-name="n" unicode="n" horiz-adv-x="540" 
d="M47 347q0 5 6.5 13t12.5 10q62 20 87 31q8 3 17 7.5l14 7t7 2.5q3 0 8 -6.5t5 -9.5t-0.5 -19.5t-0.5 -21.5q0 -3 2 -4.5t3.5 -1t2.5 0.5q68 53 124 53q57 0 93 -41q36 -43 36 -120q0 -141 3 -183q3 -25 33 -33q27 -7 27 -19q0 -15 -29 -15q-12 0 -48 1t-51 1
q-14 0 -45.5 -1.5t-37.5 -1.5q-29 0 -29 15q0 10 24 17q17 6 22 16t7 35q3 50 3 188q0 34 -19 53q-21 21 -54 21q-29 0 -55 -14q-5 -3 -9 -21q-1 -16 0 -125.5t2 -120.5q1 -12 6.5 -17.5t27.5 -13.5q16 -7 16 -17q0 -15 -28 -15q-12 0 -43.5 1t-41.5 1q-21 0 -57 -1.5
t-41 -1.5q-28 0 -28 16q0 9 21 17q24 8 31 17.5t9 38.5q6 60 6 207q0 11 -32 42q-7 8 -7 12z" />
    <glyph glyph-name="o" unicode="o" horiz-adv-x="515" 
d="M267 409q81 0 148.5 -59t67.5 -152q0 -57 -28 -102t-63 -67q-60 -41 -144 -41q-34 0 -74 14.5t-67 37.5q-33 27 -54 69t-21 86q0 47 19.5 87.5t49.5 66.5q70 60 166 60zM248 374q-23 0 -41 -18q-38 -35 -38 -133q0 -61 12 -99q14 -49 41 -75t58 -26q20 0 36 22
q33 45 33 139t-36 149q-27 41 -65 41z" />
    <glyph glyph-name="p" unicode="p" horiz-adv-x="522" 
d="M326 406q30 0 61.5 -16t51.5 -39q50 -57 50 -132q0 -107 -86 -175q-65 -51 -152 -51q-27 0 -45 3q-3 1 -6 -4.5t-3 -9.5q-1 -17 0.5 -72t3.5 -68q2 -17 5 -25t13 -16.5t30 -14.5q27 -8 27 -22t-29 -14q-15 0 -68.5 2.5t-71.5 2.5q-10 0 -36 -1.5t-54 -1.5t-28 16
q0 13 28 20q32 7 41 21t11 55q4 144 4 211q0 206 -2 224q-1 13 -7 17q-38 33 -38 38q0 4 7.5 13t17.5 12q95 30 114 42q15 9 20 9q3 0 8 -5.5t5 -9.5q-3 -30 -3 -46q0 -2 2.5 -5t4.5 -2q21 13 57 30q34 14 67 14zM249 343q-23 0 -40 -9q-9 -6 -11 -23q-5 -42 -5 -178
q0 -26 9 -46q13 -26 35.5 -42t37.5 -16t28 9q57 39 57 153q0 69 -42 117q-14 16 -35.5 25.5t-33.5 9.5z" />
    <glyph glyph-name="q" unicode="q" horiz-adv-x="522" 
d="M274 409q48 0 86 -11q7 -2 15 -4.5t11.5 -3.5t6.5 -1q10 0 22 12q21 21 39 21q10 0 8 -15q-10 -78 -10 -368q0 -128 3 -193q1 -28 10.5 -39t41.5 -18q23 -6 23 -17q0 -17 -29 -17q-40 0 -94 -2.5t-92 -5t-39 -2.5q-20 0 -26.5 3t-6.5 11q0 11 23 18q28 8 43 20.5t17 20.5
t3 23q4 62 4 166q0 3 -2 6t-5 2q-21 -11 -52 -19t-48 -8q-87 0 -141 54q-24 23 -38.5 62.5t-14.5 78.5q0 119 100 185q23 17 65 29t77 12zM246 373q-18 0 -38 -17q-42 -33 -42 -140q0 -90 53 -147q30 -30 78 -30q11 0 25 8q11 5 11 33q0 155 -9 204q-7 37 -19 55
q-11 16 -29.5 25t-29.5 9z" />
    <glyph glyph-name="r" unicode="r" horiz-adv-x="368" 
d="M40 346q0 16 13 20q94 27 115 41q19 12 25 12q5 0 9.5 -4.5t4.5 -7.5q0 -10 -2 -29.5t-2 -27.5q0 -2 3.5 -4t5.5 0q22 25 51.5 44t51.5 19q30 0 45.5 -14.5t15.5 -30.5q0 -7 -6 -17q-10 -16 -29 -40.5t-24 -24.5q-15 0 -20 4q-8 9 -31 20.5t-36 11.5q-11 0 -16 -3
q-8 -5 -8 -19q0 -115 6 -205q3 -48 22 -53q4 -1 19.5 -6.5t21.5 -6.5q21 -6 21 -17q0 -13 -29 -13q-13 0 -66.5 2.5t-86.5 2.5q-7 0 -30 -1.5t-35 -1.5q-26 0 -26 15q0 8 24 17q25 9 30.5 23t6.5 61v152q0 35 -7 42q-37 37 -37 39z" />
    <glyph glyph-name="s" unicode="s" horiz-adv-x="359" 
d="M201 409q37 0 60 -7q22 -3 38 -11q9 -5 10 -18q4 -24 4 -67q0 -7 -5.5 -14.5t-11.5 -7.5q-9 0 -24 27q-36 65 -85 65q-16 0 -31 -13t-15 -33q0 -13 5.5 -24t21.5 -22t24.5 -16t32.5 -18q48 -25 72 -49t29.5 -41t5.5 -44q0 -62 -65 -102q-15 -11 -50.5 -18.5t-58.5 -7.5
q-75 0 -103 24q-5 5 -13 32t-8 52q0 8 2 14t4.5 8.5t4.5 2.5q12 0 25 -23q24 -40 52.5 -59t47.5 -19q21 0 40 13q19 14 19 40t-39 49l-72 43q-73 46 -73 117q0 31 17 59.5t49 45.5q42 22 90 22z" />
    <glyph glyph-name="t" unicode="t" horiz-adv-x="336" 
d="M202 395q10 0 33.5 0.5t44 1t21.5 0.5q16 0 17 -13l3 -41v-1q0 -12 -26 -12h-89q-10 0 -10 -7v-196q0 -32 14 -46q5 -5 19.5 -10.5t24.5 -5.5q19 0 41 14q11 7 18 7q8 0 8 -18q0 -14 -17 -31q-44 -49 -117 -49q-29 0 -55.5 11.5t-40.5 29.5q-20 26 -20 73q0 19 2 108.5
t2 106.5q0 7 -39 23q-11 4 -11 20q0 5 5 8q87 55 118 86q20 22 22 22q7 0 15 -7t8 -13v-52q0 -2 3 -5.5t6 -3.5z" />
    <glyph glyph-name="u" unicode="u" horiz-adv-x="520" 
d="M261 57q29 0 54 19q2 1 5 10t3 12v221q0 15 -18 24l-37 16q-14 4 -14 19q0 3 5 7t9 4q68 0 145 14q20 4 24 4q11 0 11 -16q-3 -62 -3 -317q0 -21 14 -20q4 0 20 3.5t23 3.5q2 0 12 -29q1 -2 -4 -7t-8 -5q-32 -2 -108 -22q-48 -14 -60 -14q-3 0 -7.5 4.5t-4.5 9.5
q0 6 2 40q0 2 -1.5 4.5t-3 3.5t-2.5 0q-39 -30 -64 -42q-36 -16 -63 -16q-72 0 -108 56q-11 16 -11 55q0 135 -3 214q-1 20 -8.5 28t-23.5 15q-19 8 -19 23q0 11 16 11q12 0 49.5 3t70.5 5.5t34 2.5q2 0 5 -6t3 -9v-273q0 -23 16 -37q21 -19 50 -19z" />
    <glyph glyph-name="v" unicode="v" horiz-adv-x="424" 
d="M-13 387q0 5 9 9t20 4q4 0 56 -2.5t58 -2.5q15 0 42 1.5t32 1.5q25 0 25 -13q0 -14 -25 -20q-17 -4 -20 -11.5t3 -23.5q39 -110 70 -166q4 -8 8 1q7 11 31.5 70.5t32.5 84.5q6 20 -1 30.5t-30 17.5q-21 7 -21 17q0 13 27 13q3 0 25 -1.5t31 -1.5q10 0 32.5 2t32.5 2
q25 0 25 -10q0 -14 -24 -22q-34 -11 -55 -51q-40 -79 -81 -178q-42 -104 -51 -129q-3 -10 -13 -18t-17 -8q-9 0 -16 18q-24 68 -40 106q-62 159 -97 217q-19 34 -43 42q-26 10 -26 21z" />
    <glyph glyph-name="w" unicode="w" horiz-adv-x="660" 
d="M120 395q14 0 36 1.5t31 1.5q25 0 25 -13q0 -10 -21 -17q-23 -7 -14 -31q38 -105 73 -184q1 -3 4 -3.5t4 1.5q26 50 48 104q3 7 3 16q-13 40 -26 64q-14 25 -35 33q-22 8 -22 21q0 10 26 10q6 0 37.5 -2t45.5 -2q8 0 44 2t49 2q23 0 23 -11q0 -12 -19 -18q-28 -9 -28 -21
q0 -9 7 -25q2 -4 33.5 -80t39.5 -91q2 -7 6 -1q5 12 19 48t24 59q23 63 23 78q0 21 -43 32q-24 6 -24 17q0 13 24 13q5 0 28.5 -2t38.5 -2q16 0 42.5 2.5t34.5 2.5q22 0 22 -10q0 -13 -31 -22q-28 -9 -48 -46q-22 -43 -98 -216q-7 -18 -16 -41.5t-15 -38t-8 -18.5
q-9 -22 -17 -22q-14 0 -30 21q-1 2 -6 14.5t-11.5 31t-10.5 28.5q-44 107 -56 134q-2 2 -7 0q-61 -119 -86 -180q-21 -52 -34 -52q-15 0 -20 15q-1 1 -5.5 15t-10.5 30t-10 24q-7 20 -49.5 121t-57.5 128q-1 2 -4.5 9.5t-4.5 9t-4.5 7t-5 7.5t-5 5.5t-7 5.5t-8 4t-10.5 4
q-23 8 -23 16q0 15 29 15q9 0 54 -2t57 -2z" />
    <glyph glyph-name="x" unicode="x" horiz-adv-x="438" 
d="M6 386q0 14 29 14q9 0 49.5 -2.5t69.5 -2.5q13 0 34 0.5t29 0.5q22 0 22 -13q0 -10 -17 -17t-17 -16q0 -7 16.5 -35.5t30.5 -46.5q1 -2 3.5 -2.5t3.5 1.5q40 53 47 65q16 24 -11 32q-30 9 -30 20q0 13 21 13q5 0 28 -1t34 -1q15 0 41.5 2.5t34.5 2.5q23 0 23 -12
q0 -9 -20 -17q-48 -11 -83 -51q-34 -37 -69 -79q-3 -3 -1 -6q4 -9 93 -155q26 -39 64 -49q27 -7 27 -18q0 -7 -8 -12t-18 -5l-59 2q-59 2 -74 2q-11 0 -34 -1.5t-35 -1.5q-8 0 -15 4.5t-7 9.5q0 13 23 19q16 4 18.5 9.5t-6.5 27.5q-11 19 -45 73q-3 5 -7 1q-54 -69 -54 -84
q0 -20 35 -32q14 -5 14 -15q0 -5 -7.5 -8.5t-15.5 -3.5q-12 0 -27 1t-22 1q-19 0 -46 -2t-41 -2q-31 0 -31 13q0 11 23 18q35 9 70 41q39 37 85 101q3 4 -1 12q-14 37 -77 134q-28 40 -60 50q-18 5 -24 9t-6 12z" />
    <glyph glyph-name="y" unicode="y" horiz-adv-x="432" 
d="M-17 387q0 3 7.5 7.5t16.5 4.5q21 0 58 -2t51 -2q18 0 49.5 1t36.5 1q25 0 25 -13q0 -11 -24 -19q-19 -6 -22 -14t4 -27q20 -67 72 -175q1 -4 5 -3.5t6 4.5q57 137 68 171q10 31 -38 46q-20 6 -20 16q0 14 24 14q11 0 32.5 -1t27.5 -1q7 0 33 2t41 2q20 0 20 -13
q0 -12 -25 -19q-28 -8 -52 -48q-8 -14 -32.5 -70.5t-52 -122.5t-31.5 -76q-18 -45 -59.5 -146t-49.5 -122q-7 -17 -26.5 -27t-32.5 -10q-27 0 -42 18t-15 40q0 16 12 34t34 18q2 0 23 -1t27 -1q12 0 20 17q3 6 42 106q2 9 -1 14l-18 43q-73 184 -127 295q-9 17 -16.5 24
t-25.5 13q-25 7 -25 22z" />
    <glyph glyph-name="z" unicode="z" horiz-adv-x="405" 
d="M211 395q52 0 140 4q9 0 17 -6q4 -3 1 -14q-1 -2 -8 -14.5t-17.5 -29.5t-20.5 -33q-12 -18 -36.5 -63t-55 -102.5t-45.5 -84.5q-6 -6 4 -9q16 -7 91 -7q16 0 25 13q34 34 55 63q16 22 24 22q7 0 9.5 -7.5t1.5 -13.5q-1 -13 -15.5 -52.5t-17.5 -52.5q-1 -4 -6 -9t-9 -5
q-1 0 -45 1.5t-95.5 3t-72.5 1.5q-19 0 -38.5 -1t-37 -2.5t-24.5 -1.5q-3 0 -7.5 4.5t-4.5 11.5t62 102q17 25 64 114.5t64 118.5q2 2 2 5.5t-3 4.5q-40 5 -96 5q-7 0 -26.5 -21t-36.5 -47q-13 -19 -20 -19q-6 0 -9.5 7t-2.5 15q1 3 2 9.5t2.5 13t3.5 13.5q9 30 9 69
q0 7 6 11q8 5 14 2q29 -19 56 -19h97z" />
    <glyph glyph-name="braceleft" unicode="{" horiz-adv-x="347" 
d="M39 296q50 10 74 36.5t24 56.5q0 19 -12 86t-12 76q0 69 59 120q58 41 123 41q20 0 20 -12q0 -10 -11 -15q-2 -1 -40 -16q-58 -23 -58 -108q0 -19 12.5 -74t12.5 -81q0 -38 -36 -69t-93 -51q-4 -2 -4 -4.5t4 -4.5q64 -23 97 -55.5t33 -82.5q0 -25 -23 -123q-7 -27 -7 -58
q0 -33 22.5 -60t66.5 -40q5 0 10.5 -2.5t5.5 -4.5q0 -10 -9.5 -17t-17.5 -7q-83 0 -126.5 42t-43.5 119q0 24 10.5 79.5t10.5 78.5q0 47 -16 70t-57 36q-14 5 -22 16.5t-8 18.5q0 4 7 7z" />
    <glyph glyph-name="bar" unicode="|" horiz-adv-x="277" 
d="M99 743h79v-991h-79v991z" />
    <glyph glyph-name="braceright" unicode="}" horiz-adv-x="347" 
d="M310 264q-48 -10 -72 -41.5t-24 -63.5q0 -30 10.5 -97t10.5 -75q0 -68 -60 -120q-57 -40 -123 -40q-19 0 -19 12q0 9 11 14q4 2 39 16q59 23 59 108q0 18 -11.5 73.5t-11.5 90.5q0 46 35 81t92 51q4 1 5 4t-4 5q-65 24 -95.5 53t-30.5 79q0 28 18 104q7 26 7 57
q0 35 -23 64.5t-67 42.5q-4 0 -9.5 4.5t-5.5 6.5q0 19 26 19q83 0 127 -42.5t44 -119.5q0 -25 -8 -74t-8 -62q0 -47 14.5 -71t53.5 -37q15 -5 23.5 -14.5t8.5 -16.5q0 -5 -12 -11z" />
    <glyph glyph-name="asciitilde" unicode="~" horiz-adv-x="624" 
d="M216 351q34 0 75.5 -29t76 -57.5t50.5 -28.5q21 0 40 21t47 84q4 8 11 8q13 0 30.5 -9t14.5 -19q-26 -74 -61.5 -114.5t-88.5 -40.5q-36 0 -75 29t-72.5 58t-56.5 29q-47 0 -85 -101q-5 -15 -13 -15q-5 0 -16.5 3.5t-21.5 10t-8 12.5q50 159 153 159z" />
    <glyph glyph-name="uni00A0" unicode="&#xa0;" horiz-adv-x="190" 
 />
    <glyph glyph-name="exclamdown" unicode="&#xa1;" horiz-adv-x="287" 
d="M129 -149q-39 0 -59.5 39t-17.5 72q5 42 56 273q8 34 29 34q3 0 7 -3t9 -11.5t7 -19.5q3 -17 17 -78.5t24 -110.5t12 -77q4 -55 -22.5 -86.5t-61.5 -31.5zM135 310q-32 0 -56 24t-24 56q0 33 24 58.5t57 25.5q34 0 56 -24.5t22 -58.5q0 -33 -23.5 -57t-55.5 -24z" />
    <glyph glyph-name="cent" unicode="&#xa2;" horiz-adv-x="502" 
d="M182 339q0 -50 22 -92.5t55 -59.5q2 -1 4 1t2 5l29 291q0 7 -5 7q-48 0 -77.5 -48t-29.5 -104zM61 293q0 120 109 191q41 28 121 42q8 2 8 7l7 66q0 7 5 7q7 0 18.5 -2.5t11.5 -5.5l-6 -64q0 -6 5 -7q58 -4 91 -28q15 -11 15 -28q0 -12 -13.5 -25.5t-27.5 -13.5
q-8 0 -15 4.5t-18 15t-20 16.5q-1 1 -7 5.5t-11 6.5q-4 1 -6 -5l-28 -297q1 -6 6 -7q15 -3 24 -3q25 0 54.5 12t43.5 23q2 2 6.5 1t4.5 -5q0 -18 -13 -35q-42 -50 -128 -63q-7 0 -7 -6l-7 -75q-1 -2 -12.5 -5t-15.5 -3q-9 0 -9 7l7 74q2 8 -5 9q-51 7 -92 30.5t-63 55.5
q-33 51 -33 105z" />
    <glyph glyph-name="sterling" unicode="&#xa3;" horiz-adv-x="502" 
d="M358 622q49 0 76.5 -20t29.5 -54q2 -21 -19 -42t-44 -21q-4 0 -9.5 3.5t-4.5 6.5v24q2 30 -8.5 52.5t-26.5 22.5q-33 0 -51.5 -63t-33.5 -193q0 -6 7 -6l106 6q9 0 9 -15q-1 -7 -4.5 -14t-6.5 -7l-111 -9q-7 -2 -11 -15q-23 -92 -83 -143q-3 -5 2 -7q39 2 98 -25
q12 -6 38 -20.5t45.5 -23t32.5 -8.5q42 0 44 41q0 35 -6 61q-1 3 2.5 6t7.5 3q19 0 32.5 -11.5t12.5 -38.5q-2 -43 -64.5 -97t-117.5 -54q-32 0 -55.5 14.5t-65.5 54.5q-34 32 -55 32q-9 0 -19 -10q-65 -69 -92 -69q-11 0 -18.5 8t-6.5 19q1 28 30.5 59.5t66.5 50.5
q13 6 16 13q15 26 23 146q0 7 -5 7l-56 -4q-2 0 -5 4.5t-2 8.5q0 6 3.5 13.5t5.5 8.5l57 6q7 0 7 9q11 89 36 149.5t79 101.5q16 13 48.5 26t65.5 13z" />
    <glyph glyph-name="currency" unicode="&#xa4;" horiz-adv-x="502" 
d="M480 471l-53 -61v-3.5v-5v-3.5q31 -50 31 -110q0 -58 -32 -105q-4 -5 -2 -7l56 -66q4 -4 1 -16t-14 -23q-7 -8 -16.5 -11t-14.5 1l-64 62q-3 3 -10 -1q-50 -32 -89 -32q-51 0 -93 27q-5 3 -12 -1l-57 -59q-10 -10 -32 11q-8 8 -11.5 17.5t-3 14.5t1.5 8l51 56q4 7 0 12
q-30 50 -30 111q0 54 30 103q1 1 1.5 5.5t-1.5 7.5l-54 66q-4 5 2.5 18.5t13.5 19.5q22 22 35 11l53 -58q8 -8 15 -3q42 26 91 26q51 0 96 -28q6 -3 10 1l52 59q14 11 37 -11q9 -8 12.5 -18.5t-0.5 -14.5zM273 413q-53 0 -88 -35.5t-35 -90.5t36.5 -90t86.5 -35
q49 0 86 35.5t37 89.5q0 51 -39 88.5t-84 37.5z" />
    <glyph glyph-name="yen" unicode="&#xa5;" horiz-adv-x="502" 
d="M-4 602q0 12 25 12q6 0 46 -2t54 -2q16 0 58.5 1t50.5 1q25 0 25 -13q0 -11 -27 -21q-14 -5 -17 -11t3 -21q3 -8 32.5 -68.5t46.5 -100.5q1 -2 4.5 -1.5t4.5 2.5q13 23 21.5 42t18 42t15.5 37q21 45 21 62q0 13 -31 21q-23 5 -23 18q0 12 27 12q10 0 32.5 -1t31.5 -1
q12 -1 33 1.5t31 2.5q26 0 26 -12t-23 -18q-28 -9 -42.5 -23t-35.5 -51q-29 -53 -83 -168q-3 -8 3 -8h91q6 0 6 -11q0 -24 -10 -24h-93q-6 0 -6 -5v-57q0 -8 7 -8h96q6 0 6 -12q0 -8 -3 -15.5t-7 -7.5h-94q-5 0 -5 -11v-17q0 -76 4.5 -98t21.5 -29q14 -6 30 -10
q20 -5 20 -16q0 -4 -8 -9.5t-17 -5.5q-10 0 -50 1t-61 1q-15 0 -55.5 -2t-54.5 -2q-29 0 -29 13q0 14 26 19q27 6 33.5 21t9.5 64q2 30 2 73q0 8 -7 8h-91q-5 0 -5 11q0 24 9 24h88q6 0 6 9v50q0 7 -2 9t-10 2h-86q-5 0 -5 12q0 23 9 23h80q3 0 5 5t1 7q-31 66 -102 189
q-13 23 -22.5 31t-30.5 14q-25 6 -25 22z" />
    <glyph glyph-name="brokenbar" unicode="&#xa6;" horiz-adv-x="277" 
d="M99 -173v346h79v-346h-79zM99 668h79v-346h-79v346z" />
    <glyph glyph-name="section" unicode="&#xa7;" horiz-adv-x="478" 
d="M301 628q27 0 50 -16q13 -9 13 -24q0 -10 -10.5 -26.5t-17.5 -21.5q-3 -3 -14.5 -4t-17.5 2q-5 2 -22 12.5t-30.5 16.5t-23.5 6q-19 0 -29 -14t-10 -27q0 -14 10 -32.5t33 -42t33 -33.5t35 -33q61 -56 94 -108.5t33 -116.5q0 -65 -25 -126.5t-55 -94.5q-40 -43 -67 -63
t-72 -37q-25 -9 -54 -9q-25 0 -41 8.5t-20.5 17t-4.5 15.5q0 8 16.5 26.5t36.5 30.5q3 2 12 0.5t13 -5.5q12 -9 37 -18t38 -9q15 0 27 10t12 30t-32 57.5t-73 72.5q-69 61 -105 126q-22 41 -22 108q0 80 71 175q7 30 19.5 50.5t38.5 45.5q54 52 124 51zM371 80
q0 49 -35 104.5t-83 101.5l-13 13q-83 83 -105 119q-4 7 -7 14q-3 5 -5 0h-1v-1q-13 -35 -13 -63q0 -42 30 -89.5t75 -89.5q115 -105 137 -178q0 -6 3 -2q1 1 2 3q15 27 15 68z" />
    <glyph glyph-name="dieresis" unicode="&#xa8;" horiz-adv-x="400" 
d="M106 608q24 0 39.5 -21t15.5 -43q0 -26 -20.5 -43.5t-42.5 -17.5t-39.5 16t-17.5 46q0 24 18.5 43.5t46.5 19.5zM304 608q25 0 40.5 -21t15.5 -43q0 -26 -21 -43.5t-43 -17.5t-39.5 16t-17.5 46q0 24 18.5 43.5t46.5 19.5z" />
    <glyph glyph-name="copyright" unicode="&#xa9;" horiz-adv-x="711" 
d="M356 634q132 0 223 -93t91 -225q0 -128 -90.5 -223.5t-223.5 -95.5q-139 0 -227 93.5t-88 225.5q0 131 92.5 224.5t222.5 93.5zM356 603q-117 0 -197 -83t-80 -203q0 -116 82.5 -202.5t194.5 -86.5q115 0 195.5 86t80.5 203q0 120 -80 203t-196 83zM380 499q35 0 65 -7
q29 -7 48 -10q9 -9 10 -24q1 -14 1 -46q0 -9 -4 -16t-7 -7q-9 0 -16 20q-12 28 -38.5 46t-53.5 18q-48 0 -76.5 -43.5t-28.5 -95.5q0 -78 37.5 -119t73.5 -41q59 0 91 60q16 26 26 26q3 0 5.5 -6t1.5 -10q-3 -36 -20 -67q-8 -15 -24 -20q-33 -14 -94 -14q-48 0 -90.5 17
t-66.5 44q-44 50 -44 119q0 43 18.5 77t41.5 52q56 47 144 47z" />
    <glyph glyph-name="ordfeminine" unicode="&#xaa;" horiz-adv-x="304" 
d="M161 535q40 0 64 -25.5t24 -67.5q0 -46 -3 -90q-1 -14 7.5 -20.5t15.5 -6.5q17 0 25 5q5 1 5 -14q0 -6 -5 -16q-28 -35 -70 -35q-40 0 -56 30q-4 6 -8 3q-44 -33 -73 -33q-24 0 -43 19.5t-19 47.5q0 36 45 54l89 31q5 2 7 9v25q0 21 -12 34t-30 13q-8 0 -18 -5
q-3 -2 -4.5 -7.5t-1.5 -16.5t-1 -16q0 -1 -1.5 -1.5t-3.5 -2t-4 -2.5q-2 0 -23.5 -8.5t-26.5 -10.5q-4 -1 -9.5 2.5t-5.5 8.5q0 11 16.5 31.5t39.5 35.5q46 29 80 29zM109 346q0 -12 9 -21t20 -9q8 0 19 6q6 3 6 10q1 6 1 53q0 7 -7 4q-48 -15 -48 -43z" />
    <glyph glyph-name="guillemotleft" unicode="&#xab;" horiz-adv-x="684" 
d="M100 176q-8 4 -9 13t3 11q134 75 224 151q27 23 40 23q4 0 6.5 -3t2 -9.5t-5.5 -14.5q-7 -12 -20.5 -27.5t-32 -33t-32 -30.5t-33 -31t-23.5 -22q-8 -9 -2 -15q103 -99 140 -152q6 -8 6.5 -19t-9.5 -13q-14 0 -25 10q-86 79 -230 162zM326 176q-8 5 -9 13.5t3 10.5
q139 80 224 151q27 23 41 23q4 0 6.5 -3t1.5 -9.5t-6 -14.5q-29 -44 -143 -147q-6 -6 -1 -12q111 -104 142 -153q5 -7 4 -18.5t-7 -12.5q-12 0 -24 10q-84 75 -232 162z" />
    <glyph glyph-name="logicalnot" unicode="&#xac;" horiz-adv-x="624" 
d="M75 349h460q5 0 8.5 -7t3.5 -14l-1 -280q0 -5 -20 -9.5t-35 -4.5q-3 0 -7.5 3.5t-4.5 7.5l-3 214q0 26 -16 26h-379q-14 0 -17.5 2.5t-3.5 12.5q0 13 5 31t10 18z" />
    <glyph glyph-name="uni00AD" unicode="&#xad;" horiz-adv-x="320" 
d="M63 236q17 4 106.5 13.5t99.5 9.5q4 0 8.5 -3.5t4.5 -7.5q1 -21 -6.5 -45.5t-17.5 -25.5q-195 -15 -201 -16t-11 5t-5 11q0 17 6.5 37t15.5 22z" />
    <glyph glyph-name="registered" unicode="&#xae;" horiz-adv-x="246" 
d="M99 502v53q0 15 -11 19q-6 2 -7 4.5t1 3.5t5 2q33 3 51 3q21 0 33.5 -8.5t12.5 -22.5q0 -6 -2.5 -10t-5.5 -6t-6.5 -4.5t-4.5 -2.5q-2 -2 -1 -4q22 -38 33 -46q7 -3 7 -6q0 -6 -15 -6q-18 0 -29 16q-8 12 -18 30q-1 4 -9 4q-7 0 -7 -4v-11q0 -12 2 -14.5t14 -7.5
q3 -1 4.5 -3.5t0 -4.5t-4.5 -2q-4 0 -14 0.5t-14 0.5t-12.5 -0.5t-14.5 -0.5q-4 0 -5 3.5t3 5.5q14 6 14 19zM126 570v-31q0 -5 9 -5q19 0 19 19q0 22 -18 22q-10 0 -10 -5zM136 644q49 0 82 -33.5t33 -82.5q0 -44 -32 -81t-85 -37q-49 0 -81.5 34t-32.5 84q0 47 33.5 81.5
t82.5 34.5zM136 625q-40 1 -66.5 -27t-26.5 -70q0 -41 26.5 -68.5t66.5 -27.5t66 27.5t26 68.5t-27.5 69t-64.5 28z" />
    <glyph glyph-name="macron" unicode="&#xaf;" horiz-adv-x="400" 
d="M93 571l223 3q6 0 6 -35q0 -10 -3.5 -20t-7.5 -15.5t-6 -5.5l-218 -1q-2 0 -5 6t-3 12q0 11 3.5 25t6.5 22.5t4 8.5z" />
    <glyph glyph-name="degree" unicode="&#xb0;" horiz-adv-x="300" 
d="M153 636q48 0 82.5 -34t34.5 -87q0 -52 -36 -86.5t-85 -34.5t-84.5 33t-35.5 88q0 53 37.5 87t86.5 34zM147 595q-28 0 -47 -24t-19 -56q0 -36 21.5 -58t53.5 -22q26 0 44 22t18 58q0 34 -19.5 57t-51.5 23z" />
    <glyph glyph-name="plusminus" unicode="&#xb1;" horiz-adv-x="624" 
d="M278 545q0 5 20.5 10t33.5 5q10 0 12.5 -3t2.5 -17v-183q0 -12 8 -12h193q9 0 12 -2.5t3 -9.5q0 -18 -4.5 -34.5t-9.5 -16.5l-192 -1q-10 0 -10 -13l-2 -185q0 -11 -18.5 -16t-35.5 -5q-12 0 -12 15l-1 187q0 6 -3.5 11.5t-5.5 5.5l-198 1q-11 0 -11 15q0 12 5 30t10 18
h196q7 0 7 10v190zM548 13q9 0 12 -2.5t3 -9.5q0 -18 -4.5 -34.5t-9.5 -16.5h-468q-14 0 -17.5 2.5t-3.5 12.5q0 12 5 30t10 18h473z" />
    <glyph glyph-name="twosuperior" unicode="&#xb2;" horiz-adv-x="317" 
d="M153 762q48 0 78 -27t30 -75q0 -33 -51 -87q-19 -20 -48.5 -44t-32.5 -27q-3 -4 -1 -6t4 -2h109q13 0 35 30q10 12 14 12q7 0 10.5 -9.5t0.5 -16.5q-20 -41 -30 -89q-2 -6 -10 -6q-1 0 -34.5 0.5t-72.5 1t-51 0.5h-57q-3 0 -10.5 7t-7.5 10q0 8 8 14q55 49 93 93
q34 41 34 88q0 28 -14.5 45t-38.5 17q-34 0 -58 -23q-9 -11 -19 -11q-9 0 -9 16q0 11 13 25q48 64 116 64z" />
    <glyph glyph-name="threesuperior" unicode="&#xb3;" horiz-adv-x="317" 
d="M157 762q43 0 69 -22t26 -49q0 -7 -2 -13l-3.5 -10.5t-7 -10l-8 -8t-10 -8t-10 -6.5t-12 -6.5t-10.5 -6.5q-2 -1 -1.5 -3t2.5 -3q90 -12 90 -77q0 -75 -108 -120q-42 -18 -82 -18q-22 0 -41 12t-19 26q0 29 28 40q7 3 14 -4q45 -36 72 -36q18 0 29.5 17.5t11.5 44.5
q0 30 -15.5 49.5t-44.5 19.5q-5 0 -32 -6q-11 -2 -11 5q0 9 3 15q6 10 25 19q30 13 42 24.5t12 32.5q0 19 -13 32.5t-31 13.5q-28 0 -52 -26q-13 -14 -18 -9q-3 2 -6 9t-2 9q13 26 44.5 49.5t70.5 23.5z" />
    <glyph glyph-name="acute" unicode="&#xb4;" horiz-adv-x="400" 
d="M242 641q2 4 12 10t19 6q16 0 34.5 -5t18.5 -16q0 -15 -8 -28q-14 -25 -54 -79t-56 -70q-15 -15 -30 -15q-16 0 -5 33q8 26 33 84.5t36 79.5z" />
    <glyph glyph-name="mu" unicode="&#xb5;" horiz-adv-x="501" 
d="M109 415q17 0 40 -7t35 -16q10 -7 10 -38q0 -23 -31 -119q-5 -16 -17 -51t-13 -40q-5 -18 0 -32q3 -7 14 -14t19 -7q31 0 71.5 42.5t60.5 91.5q6 16 8 33q3 34 5 62t3 41.5t2 19.5q6 34 19 34q26 0 53 -10t36 -19q13 -13 9 -50q-5 -36 -30 -96.5t-45 -91.5q-4 -6 -2 -19
q2 -35 58 -35q33 0 76 28q5 9 13 -4l4 -10q1 -4 -3.5 -29.5t-9.5 -34.5q-36 -65 -85 -65q-37 0 -54.5 26t-24.5 83q0 3 -4.5 3.5t-6.5 -2.5q-40 -59 -66.5 -82t-56.5 -23q-44 0 -80 66q-6 12 -9 -11l-1 -14q-4 -85 4 -118q5 -21 25.5 -44t37.5 -36t19 -13q3 -4 1 -15.5
t-4 -14.5q-4 -8 -16 -21t-23 -19q-17 -12 -39 -12q-21 0 -40 32q-4 6 -6 15.5t-2.5 25t-1 27t0 34.5t0.5 36q0 14 2.5 97t2.5 95v50v240q2 19 15 25q11 6 27 6z" />
    <glyph glyph-name="paragraph" unicode="&#xb6;" horiz-adv-x="560" 
d="M476 616h38q7 0 12.5 -9.5t5.5 -14.5q0 -6 -4 -11.5t-8 -5.5q-2 0 -49 0.5t-57 0.5q-5 0 -9 -12.5t-4 -27.5v-563q0 -235 -150 -235q-41 0 -72 25.5t-31 71.5q0 45 24.5 66.5t58.5 21.5q20 0 35.5 -15t15.5 -32q0 -21 -13.5 -38.5t-21.5 -17.5q-14 0 -24 6q-8 7 -14 7
q-11 0 -11 -14q0 -23 20 -36t42 -13q48 0 73 46t26 122q1 137 -5 170q-2 11 -10 11q-131 0 -215 62.5t-84 184.5q0 97 71 170q30 30 77 48.5t84 22.5q131 9 199 9z" />
    <glyph glyph-name="periodcentered" unicode="&#xb7;" horiz-adv-x="257" 
d="M133 270q36 0 56 -29t19 -54q-1 -37 -25 -57t-53 -20t-52.5 20.5t-23.5 60.5q0 39 26.5 59t52.5 20z" />
    <glyph glyph-name="cedilla" unicode="&#xb8;" horiz-adv-x="400" 
d="M285 -141q0 -24 -21 -49t-44 -40q-45 -29 -68 -29q-13 0 -21 12q-11 18 6 36q8 10 18 8q32 -4 33 -4q16 0 25 11t9 26q0 20 -18 31.5t-42 11.5q-9 0 -15 -1q-4 0 -12 9t-8 13q0 5 8 13q26 25 85 98h36q-25 -32 -35 -47q-4 -6 -3 -8t8 -6q59 -30 59 -85z" />
    <glyph glyph-name="onesuperior" unicode="&#xb9;" horiz-adv-x="317" 
d="M216 754q0 -28 -2 -78v-178q0 -26 7 -34.5t33 -16.5q20 -6 20 -18q0 -14 -24 -14q-2 0 -38 1t-49 1q-23 0 -51 -1l-29 -1q-33 0 -33 15q0 14 29 19q21 4 27.5 12.5t8.5 25.5q3 21 3 120q0 44 -2 74q0 14 -9 17q-6 2 -14.5 4t-10.5 2q-23 6 -23 16q0 11 22 14q77 5 126 28
q3 1 6 -2t3 -6z" />
    <glyph glyph-name="ordmasculine" unicode="&#xba;" horiz-adv-x="342" 
d="M168 535q71 0 111 -39.5t40 -94.5t-40 -95.5t-108 -40.5q-65 0 -106 39t-41 96q0 59 43.5 97t100.5 38zM166 507q-23 0 -34 -30.5t-11 -68.5q0 -47 16.5 -80.5t40.5 -33.5q43 0 43 103q0 43 -16.5 76.5t-38.5 33.5z" />
    <glyph glyph-name="guillemotright" unicode="&#xbb;" horiz-adv-x="684" 
d="M584 202q8 -4 9 -13t-3 -11q-134 -75 -224 -151q-27 -23 -40 -23q-4 0 -6.5 3t-2 9.5t5.5 14.5q7 12 20.5 27.5t32 33t32 30.5t33 31t23.5 22q8 9 2 15q-103 99 -140 152q-6 8 -6.5 19t9.5 13q14 0 25 -10q86 -79 230 -162zM358 202q8 -5 9 -13.5t-3 -10.5
q-139 -80 -224 -151q-27 -23 -41 -23q-4 0 -6.5 3t-1.5 9.5t6 14.5q29 44 143 147q6 6 1 12q-111 104 -142 153q-5 7 -4 18.5t7 12.5q12 0 24 -10q84 -75 232 -162z" />
    <glyph glyph-name="onequarter" unicode="&#xbc;" horiz-adv-x="682" 
d="M216 610q0 -28 -2 -78v-178q0 -26 7 -34.5t33 -16.5q20 -6 20 -18q0 -14 -24 -14q-2 0 -38 1t-49 1q-23 0 -51 -1l-29 -1q-33 0 -33 15q0 14 29 19q21 4 27.5 12.5t8.5 25.5q3 21 3 120q0 44 -2 74q0 14 -9 17q-6 2 -14.5 4t-10.5 2q-23 6 -23 16q0 11 22 14q77 5 126 28
q3 1 6 -2t3 -6zM585 636q8 0 15.5 -9t4.5 -12q-104 -159 -425 -645q-4 -9 -15 -3q-8 5 -12.5 13.5t-0.5 14.5q64 95 133.5 200.5t154 235.5t125.5 192q9 13 20 13zM604 345q2 0 5.5 -4.5t3.5 -9.5q0 -1 0.5 -39.5t1 -84t0.5 -62.5q0 -7 7 -7h50q5 0 5 -9q0 -32 -10 -34h-47
q-4 0 -4 -7l1 -35q1 -35 0 -49q0 -13 -8 -16q-13 -5 -82 -5q-8 0 -8 16q0 35 3 89q0 7 -5 7q-3 0 -67 -0.5t-67 -0.5t-7.5 5t-4.5 10q0 3 19 27q12 18 139 167q9 11 35 26.5t40 15.5zM522 142q0 8 2 47t2 64q0 5 -5 0q-5 -7 -39 -48.5t-48 -60.5q-1 -2 1 -4t5 -2l75 -1
q7 2 7 5z" />
    <glyph glyph-name="onehalf" unicode="&#xbd;" horiz-adv-x="713" 
d="M216 610q0 -28 -2 -78v-178q0 -26 7 -34.5t33 -16.5q20 -6 20 -18q0 -14 -24 -14q-2 0 -38 1t-49 1q-23 0 -51 -1l-29 -1q-33 0 -33 15q0 14 29 19q21 4 27.5 12.5t8.5 25.5q3 21 3 120q0 44 -2 74q0 14 -9 17q-6 2 -14.5 4t-10.5 2q-23 6 -23 16q0 11 22 14q77 5 126 28
q3 1 6 -2t3 -6zM571 636q8 0 15.5 -9t4.5 -12q-104 -159 -425 -645q-4 -9 -15 -3q-8 5 -12.5 13.5t-0.5 14.5q64 95 133.5 200.5t154 235.5t125.5 192q9 13 20 13zM549 345q48 0 78 -27t30 -75q0 -33 -51 -87q-19 -20 -48.5 -44t-32.5 -27q-3 -4 -1 -6t4 -2h109q13 0 35 30
q10 12 14 12q7 0 10.5 -9.5t0.5 -16.5q-20 -41 -30 -89q-2 -6 -10 -6q-1 0 -34.5 0.5t-72.5 1t-51 0.5h-57q-3 0 -10.5 7t-7.5 10q0 8 8 14q55 49 93 93q34 41 34 88q0 28 -14.5 45t-38.5 17q-34 0 -58 -23q-9 -11 -19 -11q-9 0 -9 16q0 11 13 25q48 64 116 64z" />
    <glyph glyph-name="threequarters" unicode="&#xbe;" horiz-adv-x="642" 
d="M157 618q43 0 69 -22t26 -49q0 -7 -2 -13l-3.5 -10.5t-7 -10l-8 -8t-10 -8t-10 -6.5t-12 -6.5t-10.5 -6.5q-2 -1 -1.5 -3t2.5 -3q90 -12 90 -77q0 -75 -108 -120q-42 -18 -82 -18q-22 0 -41 12t-19 26q0 29 28 40q7 3 14 -4q45 -36 72 -36q18 0 29.5 17.5t11.5 44.5
q0 30 -15.5 49.5t-44.5 19.5q-5 0 -32 -6q-11 -2 -11 5q0 9 3 15q6 10 25 19q30 13 42 24.5t12 32.5q0 19 -13 32.5t-31 13.5q-28 0 -52 -26q-13 -14 -18 -9q-3 2 -6 9t-2 9q13 26 44.5 49.5t70.5 23.5zM551 636q8 0 15.5 -9t4.5 -12q-104 -159 -425 -645q-4 -9 -15 -3
q-8 5 -12.5 13.5t-0.5 14.5q64 95 133.5 200.5t154 235.5t125.5 192q9 13 20 13zM564 345q2 0 5.5 -4.5t3.5 -9.5q0 -1 0.5 -39.5t1 -84t0.5 -62.5q0 -7 7 -7h50q5 0 5 -9q0 -32 -10 -34h-47q-4 0 -4 -7l1 -35q1 -35 0 -49q0 -13 -8 -16q-13 -5 -82 -5q-8 0 -8 16q0 35 3 89
q0 7 -5 7q-3 0 -67 -0.5t-67 -0.5t-7.5 5t-4.5 10q0 3 19 27q12 17 139 167q9 11 35 26.5t40 15.5zM482 142q0 8 2 47t2 64q0 5 -5 0q-5 -7 -39 -48.5t-48 -60.5q-1 -2 1 -4t5 -2l75 -1q7 2 7 5z" />
    <glyph glyph-name="questiondown" unicode="&#xbf;" horiz-adv-x="365" 
d="M248 -149q-57 0 -122 47q-21 15 -52.5 58t-31.5 90q0 76 43 112q14 11 52 31t41 22q25 14 28 44q1 11 11.5 16.5t18.5 5.5q5 0 18 -49q14 -59 14 -71q0 -33 -30 -59.5t-96 -55.5q-23 -10 -31.5 -18.5t-8.5 -22.5q1 -23 14 -31t43 -8q4 0 41 7.5t48 7.5q14 0 31.5 -27
t17.5 -50q0 -18 -16 -33.5t-33 -15.5zM199 310q-35 0 -56.5 23t-21.5 56q0 36 23.5 60.5t57.5 24.5t56 -24.5t22 -58.5q0 -33 -24 -57t-57 -24z" />
    <glyph glyph-name="Agrave" unicode="&#xc0;" horiz-adv-x="678" 
d="M357 645q10 0 18 -20q6 -13 38 -106q94 -266 143 -387q12 -29 22.5 -48t22 -29.5t20 -15t21.5 -8.5q27 -8 27 -19q0 -6 -9 -11t-24 -5q-11 0 -66 2t-68 2q-17 0 -58 -1t-53 -1q-32 0 -32 16q0 11 26 18q18 5 27.5 11.5t11.5 12t2 14.5q0 17 -42 134q-1 3 -8.5 10t-9.5 7
q-58 0 -97.5 -0.5t-56 -1.5t-17.5 -1q-5 0 -11 -11q-38 -96 -38 -130q0 -18 10.5 -28t35.5 -17q29 -7 29 -21q0 -13 -31 -13q-7 0 -33 1t-47 1q-23 0 -57.5 -2t-38.5 -2q-32 0 -32 13t26 20q35 9 50.5 26t39.5 65q11 20 44.5 102.5t72.5 181.5t54 134q5 13 6 17q2 5 8 13
q3 4 17 19t24.5 27.5t13.5 17.5q9 13 19 13zM358 270q1 0 2 1t2 3t0 5q-23 74 -70 193q-2 10 -9 1q-2 -2 -3 -5q-64 -161 -69 -187q-1 -5 2 -8.5t6 -3.5q94 2 139 1zM237 844q16 0 47 -30q46 -44 111 -112q5 -5 10.5 -16.5t1.5 -15.5q-12 -16 -48 2q-77 37 -153 88
q-27 18 -27 30q0 11 28 37q17 17 30 17z" />
    <glyph glyph-name="Aacute" unicode="&#xc1;" horiz-adv-x="678" 
d="M357 645q10 0 18 -20q6 -13 38 -106q94 -266 143 -387q12 -29 22.5 -48t22 -29.5t20 -15t21.5 -8.5q27 -8 27 -19q0 -6 -9 -11t-24 -5q-11 0 -66 2t-68 2q-17 0 -58 -1t-53 -1q-32 0 -32 16q0 11 26 18q18 5 27.5 11.5t11.5 12t2 14.5q0 17 -42 134q-1 3 -8.5 10t-9.5 7
q-58 0 -97.5 -0.5t-56 -1.5t-17.5 -1q-5 0 -11 -11q-38 -96 -38 -130q0 -18 10.5 -28t35.5 -17q29 -7 29 -21q0 -13 -31 -13q-7 0 -33 1t-47 1q-23 0 -57.5 -2t-38.5 -2q-32 0 -32 13t26 20q35 9 50.5 26t39.5 65q11 20 44.5 102.5t72.5 181.5t54 134q5 13 6 17q2 5 8 13
q3 4 17 19t24.5 27.5t13.5 17.5q9 13 19 13zM358 270q1 0 2 1t2 3t0 5q-23 74 -70 193q-2 10 -9 1q-2 -2 -3 -5q-64 -161 -69 -187q-1 -5 2 -8.5t6 -3.5q94 2 139 1zM416 822q7 5 20 7.5t19 0.5q53 -26 53 -46q0 -6 -9 -15.5t-19 -15.5q-16 -8 -45.5 -23.5t-45 -23.5
t-37 -17.5t-39.5 -15.5q-30 -9 -40 1q-9 7 14 33q99 93 129 115z" />
    <glyph glyph-name="Acircumflex" unicode="&#xc2;" horiz-adv-x="678" 
d="M357 645q10 0 18 -20q6 -13 38 -106q94 -266 143 -387q12 -29 22.5 -48t22 -29.5t20 -15t21.5 -8.5q27 -8 27 -19q0 -6 -9 -11t-24 -5q-11 0 -66 2t-68 2q-17 0 -58 -1t-53 -1q-32 0 -32 16q0 11 26 18q18 5 27.5 11.5t11.5 12t2 14.5q0 17 -42 134q-1 3 -8.5 10t-9.5 7
q-58 0 -97.5 -0.5t-56 -1.5t-17.5 -1q-5 0 -11 -11q-38 -96 -38 -130q0 -18 10.5 -28t35.5 -17q29 -7 29 -21q0 -13 -31 -13q-7 0 -33 1t-47 1q-23 0 -57.5 -2t-38.5 -2q-32 0 -32 13t26 20q35 9 50.5 26t39.5 65q11 20 44.5 102.5t72.5 181.5t54 134q5 13 6 17q2 5 8 13
q3 4 17 19t24.5 27.5t13.5 17.5q9 13 19 13zM342 814q14 0 47 -30q22 -22 97 -92q2 -1 5.5 -6t6 -11.5t-0.5 -11t-12 -4.5q-19 0 -37 9q-54 27 -100 54q-11 5 -21 0q-12 -8 -50 -25.5t-52 -25.5q-22 -11 -34 -11q-11 0 -6 15q3 11 17 25l96 84q30 30 44 30zM358 270q1 0 2 1
t2 3t0 5q-23 74 -70 193q-2 10 -9 1q-2 -2 -3 -5q-64 -161 -69 -187q-1 -5 2 -8.5t6 -3.5q94 2 139 1z" />
    <glyph glyph-name="Atilde" unicode="&#xc3;" horiz-adv-x="678" 
d="M357 645q10 0 18 -20q6 -13 38 -106q94 -266 143 -387q12 -29 22.5 -48t22 -29.5t20 -15t21.5 -8.5q27 -8 27 -19q0 -6 -9 -11t-24 -5q-11 0 -66 2t-68 2q-17 0 -58 -1t-53 -1q-32 0 -32 16q0 11 26 18q18 5 27.5 11.5t11.5 12t2 14.5q0 17 -42 134q-1 3 -8.5 10t-9.5 7
q-58 0 -97.5 -0.5t-56 -1.5t-17.5 -1q-5 0 -11 -11q-38 -96 -38 -130q0 -18 10.5 -28t35.5 -17q29 -7 29 -21q0 -13 -31 -13q-7 0 -33 1t-47 1q-23 0 -57.5 -2t-38.5 -2q-32 0 -32 13t26 20q35 9 50.5 26t39.5 65q11 20 44.5 102.5t72.5 181.5t54 134q5 13 6 17q2 5 8 13
q3 4 17 19t24.5 27.5t13.5 17.5q9 13 19 13zM358 270q1 0 2 1t2 3t0 5q-23 74 -70 193q-2 10 -9 1q-2 -2 -3 -5q-64 -161 -69 -187q-1 -5 2 -8.5t6 -3.5q94 2 139 1zM192 702q9 16 26.5 36.5t28.5 28.5q14 12 28 12q24 0 89.5 -4.5t76.5 -4.5q14 0 23.5 6.5t25.5 29.5
q5 8 11 8q7 0 17 -16q4 -8 -7 -21q-6 -6 -32.5 -37t-35.5 -38q-15 -11 -24 -11q-13 0 -54 4.5t-75.5 7.5t-42.5 0q-17 -3 -40 -36q-6 -10 -11 -10q-7 0 -13.5 5t-6.5 8q0 4 16 32z" />
    <glyph glyph-name="Adieresis" unicode="&#xc4;" horiz-adv-x="678" 
d="M357 645q10 0 18 -20q6 -13 38 -106q94 -266 143 -387q12 -29 22.5 -48t22 -29.5t20 -15t21.5 -8.5q27 -8 27 -19q0 -6 -9 -11t-24 -5q-11 0 -66 2t-68 2q-17 0 -58 -1t-53 -1q-32 0 -32 16q0 11 26 18q18 5 27.5 11.5t11.5 12t2 14.5q0 17 -42 134q-1 3 -8.5 10t-9.5 7
q-58 0 -97.5 -0.5t-56 -1.5t-17.5 -1q-5 0 -11 -11q-38 -96 -38 -130q0 -18 10.5 -28t35.5 -17q29 -7 29 -21q0 -13 -31 -13q-7 0 -33 1t-47 1q-23 0 -57.5 -2t-38.5 -2q-32 0 -32 13t26 20q35 9 50.5 26t39.5 65q11 20 44.5 102.5t72.5 181.5t54 134q5 13 6 17q2 5 8 13
q3 4 17 19t24.5 27.5t13.5 17.5q9 13 19 13zM358 270q1 0 2 1t2 3t0 5q-23 74 -70 193q-2 10 -9 1q-2 -2 -3 -5q-64 -161 -69 -187q-1 -5 2 -8.5t6 -3.5q94 2 139 1zM246 801q24 0 38 -20.5t14 -43.5q0 -24 -19.5 -41t-40.5 -17q-20 0 -37 15.5t-17 45.5q0 22 19 41.5
t43 19.5zM455 801q24 0 38 -20.5t14 -43.5q0 -24 -19.5 -41t-40.5 -17t-37.5 15.5t-16.5 45.5q0 23 18.5 42t43.5 19z" />
    <glyph glyph-name="Aring" unicode="&#xc5;" horiz-adv-x="678" 
d="M357 645q10 0 18 -20q6 -13 38 -106q94 -266 143 -387q12 -29 22.5 -48t22 -29.5t20 -15t21.5 -8.5q27 -8 27 -19q0 -6 -9 -11t-24 -5q-11 0 -66 2t-68 2q-17 0 -58 -1t-53 -1q-32 0 -32 16q0 11 26 18q18 5 27.5 11.5t11.5 12t2 14.5q0 17 -42 134q-1 3 -8.5 10t-9.5 7
q-58 0 -97.5 -0.5t-56 -1.5t-17.5 -1q-5 0 -11 -11q-38 -96 -38 -130q0 -18 10.5 -28t35.5 -17q29 -7 29 -21q0 -13 -31 -13q-7 0 -33 1t-47 1q-23 0 -57.5 -2t-38.5 -2q-32 0 -32 13t26 20q35 9 50.5 26t39.5 65q11 20 44.5 102.5t72.5 181.5t54 134q5 13 6 17q2 5 8 13
q3 4 17 19t24.5 27.5t13.5 17.5q9 13 19 13zM358 270q1 0 2 1t2 3t0 5q-23 74 -70 193q-2 10 -9 1q-2 -2 -3 -5q-64 -161 -69 -187q-1 -5 2 -8.5t6 -3.5q94 2 139 1zM338 844q39 0 65 -27t26 -63t-26 -63t-65 -27t-64.5 27t-25.5 63t25.5 63t64.5 27zM338 806q-19 0 -32 -15
t-13 -37q0 -24 13 -38t32 -14q20 0 32.5 14t12.5 40q0 21 -13 35.5t-32 14.5z" />
    <glyph glyph-name="AE" unicode="&#xc6;" horiz-adv-x="920" 
d="M484 628h241q21 0 42.5 2t34.5 4l12 2q3 0 9 -6.5t6 -12.5q0 -2 6.5 -53t6.5 -61q0 -8 -5 -16.5t-11 -8.5q-11 0 -22 27q-31 74 -60 78q-42 7 -128 7q-19 0 -19 -17q0 -2 -0.5 -42t-1.5 -96.5t-1 -99.5q0 -17 7 -17q74 0 112 8q21 5 34 49q10 29 24 29q6 0 9.5 -8
t2.5 -19q-9 -67 -3 -166q1 -8 -4 -16t-10 -8q-13 0 -22 23l-5 15t-5 14t-5 10.5t-7 10t-8.5 5.5t-12.5 5t-17 1q-7 0 -30 0.5t-49 0.5q-8 0 -11 -9v-161q0 -38 12 -50t37 -12q72 0 114 1q36 1 59 26t43 67q13 27 28 27q14 0 11 -38q-2 -21 -13.5 -62t-15.5 -48
q-9 -16 -31 -16q-11 0 -133 1.5t-136 1.5q-12 0 -93 -1.5t-95 -1.5q-29 0 -29 15q0 12 36 20q38 8 50 21t16 43q4 35 4 168q0 2 -3.5 5t-5.5 3l-169 -3q-2 0 -9 -5t-10 -10q-16 -24 -55 -99t-39 -88q0 -22 47 -35q11 -3 18 -9.5t7 -10.5q0 -15 -26 -15q-10 0 -45.5 1.5
t-57.5 1.5q-16 0 -54.5 -2t-44.5 -2t-13.5 5.5t-7.5 10.5q0 6 9 12t24 9q36 7 59 26t50 63q41 66 270 448q6 12 -6 16q-6 2 -32 6.5t-35 7.5q-18 4 -18 15q0 6 8 11t23 5q17 0 69 -1.5t73 -1.5zM449 317q9 0 9 15q0 2 1 112.5t1 123.5q0 5 -5 5q-8 0 -17 -15
q-135 -228 -136 -230q-3 -5 1.5 -8.5t9.5 -3.5q7 0 67.5 0.5t68.5 0.5z" />
    <glyph glyph-name="Ccedilla" unicode="&#xc7;" horiz-adv-x="706" 
d="M423 645q76 0 137 -17q29 -8 70 -12q5 -1 9.5 -9t4.5 -16l5 -95q1 -16 -4 -28.5t-14 -12.5q-11 0 -21 28q-19 50 -42 69q-65 60 -143 60q-112 0 -165.5 -75.5t-53.5 -198.5q0 -99 35 -169q73 -146 209 -146q12 0 42 7t51 19q53 31 81 83q19 34 31 34q7 0 8.5 -15.5
t-1.5 -23.5q-3 -15 -12.5 -43t-11.5 -34q-7 -25 -39 -38q-59 -25 -143 -29q-17 -22 -19 -27q-7 -9 5 -15q62 -32 62 -89q0 -25 -22 -51t-46 -43q-47 -30 -72 -30q-16 0 -22 13q-9 16 6 37q9 10 20 8q32 -4 34 -4q16 0 26 11.5t10 27.5q0 21 -18.5 33t-44.5 12q-10 0 -17 -1
q-4 0 -12 9.5t-8 13.5q0 7 8 14q17 16 71 80q-100 2 -176 36t-112 76q-84 97 -84 222q0 83 34 144.5t75 95.5q108 89 269 89z" />
    <glyph glyph-name="Egrave" unicode="&#xc8;" horiz-adv-x="599" 
d="M264 628h150q50 0 87 8q3 1 7.5 -4t5.5 -10q1 -4 1 -113q0 -11 -5 -20t-12 -9q-6 0 -12 8.5t-8 17.5q-16 68 -63 78q-35 7 -138 7q-11 0 -12 -29q-4 -96 -4 -213q0 -3 3.5 -7t8.5 -4h86q31 0 43.5 4.5t16 9.5t15.5 33q13 28 24 28q13 0 11 -31q-4 -54 -4 -67q0 -35 4 -71
q1 -13 -3 -22t-11 -9q-6 0 -12 7t-8 16q-9 30 -22 41.5t-36 13.5q-32 3 -101 3q-3 0 -9 -6t-6 -8q-4 -43 -1 -130v-40t2 -41q1 -7 8 -15.5t15 -10.5q25 -5 76 -5q66 0 90 10q45 19 77 74q23 38 35 38q9 0 9 -30q0 -6 -16 -55.5t-23 -64.5q-3 -6 -13 -10t-15 -4
q-3 0 -160.5 2t-176.5 2q-41 0 -71.5 -2.5t-42.5 -2.5q-36 0 -36 13q0 15 31 22q38 9 50 23.5t15 54.5q8 109 8 221q0 189 -1 204q-2 28 -12 43t-40 20q-33 6 -33 20q0 6 10.5 10.5t21.5 4.5q24 0 98.5 -1.5t97.5 -1.5zM208 850q16 0 47 -30q46 -44 111 -112
q5 -5 10.5 -16.5t1.5 -15.5q-12 -16 -48 2q-77 37 -153 88q-27 18 -27 30q0 11 28 37q17 17 30 17z" />
    <glyph glyph-name="Eacute" unicode="&#xc9;" horiz-adv-x="599" 
d="M264 628h150q50 0 87 8q3 1 7.5 -4t5.5 -10q1 -4 1 -113q0 -11 -5 -20t-12 -9q-6 0 -12 8.5t-8 17.5q-16 68 -63 78q-35 7 -138 7q-11 0 -12 -29q-4 -96 -4 -213q0 -3 3.5 -7t8.5 -4h86q31 0 43.5 4.5t16 9.5t15.5 33q13 28 24 28q13 0 11 -31q-4 -54 -4 -67q0 -35 4 -71
q1 -13 -3 -22t-11 -9q-6 0 -12 7t-8 16q-9 30 -22 41.5t-36 13.5q-32 3 -101 3q-3 0 -9 -6t-6 -8q-4 -43 -1 -130v-40t2 -41q1 -7 8 -15.5t15 -10.5q25 -5 76 -5q66 0 90 10q45 19 77 74q23 38 35 38q9 0 9 -30q0 -6 -16 -55.5t-23 -64.5q-3 -6 -13 -10t-15 -4
q-3 0 -160.5 2t-176.5 2q-41 0 -71.5 -2.5t-42.5 -2.5q-36 0 -36 13q0 15 31 22q38 9 50 23.5t15 54.5q8 109 8 221q0 189 -1 204q-2 28 -12 43t-40 20q-33 6 -33 20q0 6 10.5 10.5t21.5 4.5q24 0 98.5 -1.5t97.5 -1.5zM368 826q7 5 20 7.5t19 0.5q53 -26 53 -46
q0 -6 -9 -15.5t-19 -15.5q-16 -8 -45.5 -23.5t-45 -23.5t-37 -17.5t-39.5 -15.5q-30 -9 -40 1q-9 7 14 33q99 93 129 115z" />
    <glyph glyph-name="Ecircumflex" unicode="&#xca;" horiz-adv-x="599" 
d="M264 628h150q50 0 87 8q3 1 7.5 -4t5.5 -10q1 -4 1 -113q0 -11 -5 -20t-12 -9q-6 0 -12 8.5t-8 17.5q-16 68 -63 78q-35 7 -138 7q-11 0 -12 -29q-4 -96 -4 -213q0 -3 3.5 -7t8.5 -4h86q31 0 43.5 4.5t16 9.5t15.5 33q13 28 24 28q13 0 11 -31q-4 -54 -4 -67q0 -35 4 -71
q1 -13 -3 -22t-11 -9q-6 0 -12 7t-8 16q-9 30 -22 41.5t-36 13.5q-32 3 -101 3q-3 0 -9 -6t-6 -8q-4 -43 -1 -130v-40t2 -41q1 -7 8 -15.5t15 -10.5q25 -5 76 -5q66 0 90 10q45 19 77 74q23 38 35 38q9 0 9 -30q0 -6 -16 -55.5t-23 -64.5q-3 -6 -13 -10t-15 -4
q-3 0 -160.5 2t-176.5 2q-41 0 -71.5 -2.5t-42.5 -2.5q-36 0 -36 13q0 15 31 22q38 9 50 23.5t15 54.5q8 109 8 221q0 189 -1 204q-2 28 -12 43t-40 20q-33 6 -33 20q0 6 10.5 10.5t21.5 4.5q24 0 98.5 -1.5t97.5 -1.5zM303 841q14 0 47 -30q22 -22 97 -92q2 -1 5.5 -6
t6 -11.5t-0.5 -11t-12 -4.5q-19 0 -37 9q-54 27 -100 54q-11 5 -21 0q-12 -8 -50 -25.5t-52 -25.5q-22 -11 -34 -11q-11 0 -6 15q3 11 17 25l96 84q30 30 44 30z" />
    <glyph glyph-name="Edieresis" unicode="&#xcb;" horiz-adv-x="599" 
d="M264 628h150q50 0 87 8q3 1 7.5 -4t5.5 -10q1 -4 1 -113q0 -11 -5 -20t-12 -9q-6 0 -12 8.5t-8 17.5q-16 68 -63 78q-35 7 -138 7q-11 0 -12 -29q-4 -96 -4 -213q0 -3 3.5 -7t8.5 -4h86q31 0 43.5 4.5t16 9.5t15.5 33q13 28 24 28q13 0 11 -31q-4 -54 -4 -67q0 -35 4 -71
q1 -13 -3 -22t-11 -9q-6 0 -12 7t-8 16q-9 30 -22 41.5t-36 13.5q-32 3 -101 3q-3 0 -9 -6t-6 -8q-4 -43 -1 -130v-40t2 -41q1 -7 8 -15.5t15 -10.5q25 -5 76 -5q66 0 90 10q45 19 77 74q23 38 35 38q9 0 9 -30q0 -6 -16 -55.5t-23 -64.5q-3 -6 -13 -10t-15 -4
q-3 0 -160.5 2t-176.5 2q-41 0 -71.5 -2.5t-42.5 -2.5q-36 0 -36 13q0 15 31 22q38 9 50 23.5t15 54.5q8 109 8 221q0 189 -1 204q-2 28 -12 43t-40 20q-33 6 -33 20q0 6 10.5 10.5t21.5 4.5q24 0 98.5 -1.5t97.5 -1.5zM202 814q24 0 38 -20.5t14 -43.5q0 -24 -19.5 -41
t-40.5 -17q-20 0 -37 15.5t-17 45.5q0 22 19 41.5t43 19.5zM411 814q24 0 38 -20.5t14 -43.5q0 -24 -19.5 -41t-40.5 -17t-37.5 15.5t-16.5 45.5q0 23 18.5 42t43.5 19z" />
    <glyph glyph-name="Igrave" unicode="&#xcc;" horiz-adv-x="383" 
d="M122 338q0 154 -2 181q-2 29 -4 39.5t-12 20.5t-33 16q-32 9 -32 22q0 6 10.5 10.5t25.5 4.5t57.5 -2t59.5 -2q26 0 67 2t57 2q34 0 34 -15q0 -16 -33 -22q-31 -5 -41 -20t-12 -40q-3 -60 -3 -201q0 -174 3 -217q4 -46 14 -60t50 -25q28 -8 28 -23q0 -14 -33 -14
q-11 0 -41 1.5t-58.5 2.5t-50.5 1q-13 0 -50 -1.5t-56 -1.5q-34 0 -34 18q0 12 31 20t41.5 25t12.5 51q4 80 4 227zM97 850q16 0 47 -30q46 -44 111 -112q5 -5 10.5 -16.5t1.5 -15.5q-12 -16 -48 2q-77 37 -153 88q-27 18 -27 30q0 11 28 37q17 17 30 17z" />
    <glyph glyph-name="Iacute" unicode="&#xcd;" horiz-adv-x="383" 
d="M122 338q0 154 -2 181q-2 29 -4 39.5t-12 20.5t-33 16q-32 9 -32 22q0 6 10.5 10.5t25.5 4.5t57.5 -2t59.5 -2q26 0 67 2t57 2q34 0 34 -15q0 -16 -33 -22q-31 -5 -41 -20t-12 -40q-3 -60 -3 -201q0 -174 3 -217q4 -46 14 -60t50 -25q28 -8 28 -23q0 -14 -33 -14
q-11 0 -41 1.5t-58.5 2.5t-50.5 1q-13 0 -50 -1.5t-56 -1.5q-34 0 -34 18q0 12 31 20t41.5 25t12.5 51q4 80 4 227zM276 833q7 5 20 7.5t19 0.5q53 -27 53 -46q0 -6 -9 -15.5t-19 -15.5q-16 -8 -45.5 -23.5t-45 -23.5t-37 -17.5t-39.5 -15.5q-30 -9 -40 1q-9 7 14 33
q99 93 129 115z" />
    <glyph glyph-name="Icircumflex" unicode="&#xce;" horiz-adv-x="383" 
d="M122 338q0 154 -2 181q-2 29 -4 39.5t-12 20.5t-33 16q-32 9 -32 22q0 6 10.5 10.5t25.5 4.5t57.5 -2t59.5 -2q26 0 67 2t57 2q34 0 34 -15q0 -16 -33 -22q-31 -5 -41 -20t-12 -40q-3 -60 -3 -201q0 -174 3 -217q4 -46 14 -60t50 -25q28 -8 28 -23q0 -14 -33 -14
q-11 0 -41 1.5t-58.5 2.5t-50.5 1q-13 0 -50 -1.5t-56 -1.5q-34 0 -34 18q0 12 31 20t41.5 25t12.5 51q4 80 4 227zM190 834q14 0 47 -30q22 -22 97 -92q2 -1 5.5 -6t6 -11.5t-0.5 -11t-12 -4.5q-19 0 -37 9q-54 27 -100 54q-11 5 -21 0q-12 -8 -50 -25.5t-52 -25.5
q-22 -11 -34 -11q-11 0 -6 15q3 11 17 25l96 84q30 30 44 30z" />
    <glyph glyph-name="Idieresis" unicode="&#xcf;" horiz-adv-x="383" 
d="M122 338q0 154 -2 181q-2 29 -4 39.5t-12 20.5t-33 16q-32 9 -32 22q0 6 10.5 10.5t25.5 4.5t57.5 -2t59.5 -2q26 0 67 2t57 2q34 0 34 -15q0 -16 -33 -22q-31 -5 -41 -20t-12 -40q-3 -60 -3 -201q0 -174 3 -217q4 -46 14 -60t50 -25q28 -8 28 -23q0 -14 -33 -14
q-11 0 -41 1.5t-58.5 2.5t-50.5 1q-13 0 -50 -1.5t-56 -1.5q-34 0 -34 18q0 12 31 20t41.5 25t12.5 51q4 80 4 227zM95 811q24 0 38 -20.5t14 -43.5q0 -24 -19.5 -41t-40.5 -17q-20 0 -37 15.5t-17 45.5q0 22 19 41.5t43 19.5zM304 811q24 0 38 -20.5t14 -43.5
q0 -24 -19.5 -41t-40.5 -17t-37.5 15.5t-16.5 45.5q0 23 18.5 42t43.5 19z" />
    <glyph glyph-name="Eth" unicode="&#xd0;" horiz-adv-x="763" 
d="M48 349l65 -1q9 0 9 10q0 88 -2 150q-2 48 -11.5 62.5t-48.5 24.5q-23 7 -23 17q0 6 8.5 11t18.5 5h67q21 0 108 4t123 4q160 0 265 -97q41 -39 66.5 -99.5t25.5 -117.5q0 -96 -48 -168.5t-109 -106.5q-94 -54 -221 -54q-65 0 -205 5q-36 1 -77 1q-31 0 -31 17
q0 15 22 18q45 6 57.5 25.5t14.5 90.5q2 106 2 149q0 8 -5 8h-73q-8 0 -8 26q0 3 3 9.5t7 6.5zM399 308l-130 -1q-8 0 -8 -8q0 -142 4 -193q3 -32 18 -50q23 -26 67 -26q35 0 59.5 10t63.5 43q91 76 91 240q0 119 -68 201q-30 35 -78.5 55t-100.5 20q-26 0 -39 -8
q-6 -4 -12 -23q-5 -15 -5 -207q0 -12 9 -12h131q4 0 8 -4t4 -9q0 -8 -4.5 -18t-9.5 -10z" />
    <glyph glyph-name="Ntilde" unicode="&#xd1;" horiz-adv-x="772" 
d="M26 617q0 6 8.5 11t19.5 5q7 0 72 -2.5t94 -2.5q10 0 23 -13q7 -8 18.5 -21t31.5 -35t36 -40q39 -45 282 -294q3 -3 5.5 0t2.5 5q2 11 2 199q0 62 -6 110q-6 39 -61 53q-36 9 -36 23t30 14q13 0 33.5 -0.5t26.5 -0.5q30 0 72.5 3t52.5 3q24 0 24 -15q0 -11 -25 -20
q-25 -8 -38 -20t-16 -21t-6 -28q0 -2 -0.5 -3.5t-0.5 -3.5q-3 -23 -6.5 -170t-3.5 -189q0 -22 3 -87t3 -79q0 -6 -7.5 -12t-10.5 -6q-30 0 -58 41q-12 16 -35.5 43.5t-31.5 37.5q-53 65 -179.5 203t-160.5 178q-3 4 -7 0.5t-4 -6.5q-4 -55 -5 -127q-3 -206 4 -259
q3 -21 16 -35t47 -24q29 -9 29 -19q0 -16 -33 -16q-14 0 -37 1.5t-41 1.5q-12 0 -57 -2t-53 -2q-10 0 -18 4.5t-8 9.5q0 12 24 19q39 11 55.5 28.5t18.5 69.5q2 51 9.5 188.5t7.5 174.5q0 54 -5 60l-9 12q-8 11 -12.5 14.5t-18.5 10.5t-33 11q-9 2 -18.5 7.5t-9.5 11.5z
M254 716q9 16 26.5 36.5t28.5 28.5q14 12 28 12q24 0 89.5 -4.5t76.5 -4.5q14 0 23.5 6.5t25.5 29.5q5 8 11 8q7 0 17 -16q4 -8 -7 -21q-6 -6 -32.5 -37t-35.5 -38q-15 -11 -24 -11q-13 0 -54 4.5t-75.5 7.5t-42.5 0q-17 -3 -40 -36q-6 -10 -11 -10q-7 0 -13.5 5t-6.5 8
q0 4 16 32z" />
    <glyph glyph-name="Ograve" unicode="&#xd2;" horiz-adv-x="784" 
d="M389 645q84 0 153 -29.5t111 -76.5t64.5 -103t22.5 -112q0 -161 -119 -263q-43 -35 -104 -57t-125 -22q-159 0 -260 104q-87 90 -87 230q0 155 127 255q38 30 96.5 52t120.5 22zM364 608q-53 0 -100 -47q-27 -26 -46.5 -81.5t-19.5 -137.5q0 -80 26.5 -152.5t79 -120.5
t119.5 -48q51 0 88 37q33 35 53 98t20 137q0 61 -23.5 137.5t-72.5 123.5q-24 23 -58.5 38.5t-65.5 15.5zM286 864q16 0 47 -30q46 -44 111 -112q5 -5 10.5 -16.5t1.5 -15.5q-12 -16 -48 2q-77 37 -153 88q-27 18 -27 30q0 11 28 37q17 17 30 17z" />
    <glyph glyph-name="Oacute" unicode="&#xd3;" horiz-adv-x="784" 
d="M389 645q84 0 153 -29.5t111 -76.5t64.5 -103t22.5 -112q0 -161 -119 -263q-43 -35 -104 -57t-125 -22q-159 0 -260 104q-87 90 -87 230q0 155 127 255q38 30 96.5 52t120.5 22zM364 608q-53 0 -100 -47q-27 -26 -46.5 -81.5t-19.5 -137.5q0 -80 26.5 -152.5t79 -120.5
t119.5 -48q51 0 88 37q33 35 53 98t20 137q0 61 -23.5 137.5t-72.5 123.5q-24 23 -58.5 38.5t-65.5 15.5zM441 850q7 5 20 7.5t19 0.5q53 -26 53 -46q0 -6 -9 -15.5t-19 -15.5q-16 -8 -45.5 -23.5t-45 -23.5t-37 -17.5t-39.5 -15.5q-30 -9 -40 1q-9 7 14 33q99 93 129 115z
" />
    <glyph glyph-name="Ocircumflex" unicode="&#xd4;" horiz-adv-x="784" 
d="M389 645q84 0 153 -29.5t111 -76.5t64.5 -103t22.5 -112q0 -161 -119 -263q-43 -35 -104 -57t-125 -22q-159 0 -260 104q-87 90 -87 230q0 155 127 255q38 30 96.5 52t120.5 22zM364 608q-53 0 -100 -47q-27 -26 -46.5 -81.5t-19.5 -137.5q0 -80 26.5 -152.5t79 -120.5
t119.5 -48q51 0 88 37q33 35 53 98t20 137q0 61 -23.5 137.5t-72.5 123.5q-24 23 -58.5 38.5t-65.5 15.5zM383 847q14 0 47 -30q22 -22 97 -92q2 -1 5.5 -6t6 -11.5t-0.5 -11t-12 -4.5q-19 0 -37 9q-54 27 -100 54q-11 5 -21 0q-12 -8 -50 -25.5t-52 -25.5q-22 -11 -34 -11
q-11 0 -6 15q3 11 17 25l96 84q30 30 44 30z" />
    <glyph glyph-name="Otilde" unicode="&#xd5;" horiz-adv-x="784" 
d="M389 645q84 0 153 -29.5t111 -76.5t64.5 -103t22.5 -112q0 -161 -119 -263q-43 -35 -104 -57t-125 -22q-159 0 -260 104q-87 90 -87 230q0 155 127 255q38 30 96.5 52t120.5 22zM364 608q-53 0 -100 -47q-27 -26 -46.5 -81.5t-19.5 -137.5q0 -80 26.5 -152.5t79 -120.5
t119.5 -48q51 0 88 37q33 35 53 98t20 137q0 61 -23.5 137.5t-72.5 123.5q-24 23 -58.5 38.5t-65.5 15.5zM236 726q9 16 26.5 36.5t28.5 28.5q14 12 28 12q24 0 89.5 -4.5t76.5 -4.5q14 0 23.5 6.5t25.5 29.5q5 8 11 8q7 0 17 -16q4 -8 -7 -21q-6 -6 -32.5 -37t-35.5 -38
q-15 -11 -24 -11q-13 0 -54 4.5t-75.5 7.5t-42.5 0q-17 -3 -40 -36q-6 -10 -11 -10q-7 0 -13.5 5t-6.5 8q0 4 16 32z" />
    <glyph glyph-name="Odieresis" unicode="&#xd6;" horiz-adv-x="784" 
d="M389 645q84 0 153 -29.5t111 -76.5t64.5 -103t22.5 -112q0 -161 -119 -263q-43 -35 -104 -57t-125 -22q-159 0 -260 104q-87 90 -87 230q0 155 127 255q38 30 96.5 52t120.5 22zM364 608q-53 0 -100 -47q-27 -26 -46.5 -81.5t-19.5 -137.5q0 -80 26.5 -152.5t79 -120.5
t119.5 -48q51 0 88 37q33 35 53 98t20 137q0 61 -23.5 137.5t-72.5 123.5q-24 23 -58.5 38.5t-65.5 15.5zM283 821q24 0 38 -20.5t14 -43.5q0 -24 -19.5 -41t-40.5 -17q-20 0 -37 15.5t-17 45.5q0 22 19 41.5t43 19.5zM492 821q24 0 38 -20.5t14 -43.5q0 -24 -19.5 -41
t-40.5 -17t-37.5 15.5t-16.5 45.5q0 23 18.5 42t43.5 19z" />
    <glyph glyph-name="multiply" unicode="&#xd7;" horiz-adv-x="624" 
d="M86 431q-4 3 5.5 19.5t19.5 26.5q2 2 9 4t8 1l182 -181q1 -2 5.5 -1.5t7.5 3.5l171 176q2 2 8 2t8 -2q31 -31 23 -39l-178 -183q-5 -5 3 -10l177 -177q14 -16 -20 -50q-9 -9 -20 2l-182 182q-3 3 -7 3.5t-5 -1.5l-169 -170q-3 -3 -11.5 -5.5t-10.5 -0.5q-9 8 -17.5 22.5
t-5.5 18.5l172 174q6 6 0 10z" />
    <glyph glyph-name="Oslash" unicode="&#xd8;" horiz-adv-x="784" 
d="M392 645q98 0 173 -40q8 -3 12 3l34 42q13 17 19 17q11 0 18 -14q4 -5 -2 -14l-37 -51q-4 -5 0 -9q63 -47 97 -115t34 -142q0 -160 -121 -263q-96 -78 -226 -78q-103 0 -190 50q-6 4 -11 -3q-39 -51 -56 -68q-1 -2 -11 -1.5t-13 3.5q-14 12 -6 20l54 69q4 6 -3 10
q-113 97 -113 254q0 151 128 256q37 30 96 52t124 22zM429 19q42 0 79 35q33 33 56 99t23 140q0 97 -45 191q-5 8 -8 4q-46 -61 -136.5 -185.5t-130.5 -176.5q-7 -8 -2 -14q71 -93 164 -93zM369 608q-28 0 -57 -14t-45 -30q-28 -27 -49.5 -87t-21.5 -151q0 -86 39 -166
q1 -3 4 -3.5t4 1.5q44 57 136.5 184.5t132.5 179.5q1 2 1 6.5t-2 6.5q-27 32 -65 52.5t-77 20.5z" />
    <glyph glyph-name="Ugrave" unicode="&#xd9;" horiz-adv-x="763" 
d="M31 617q0 6 9 11t22 5q22 0 64 -2.5t59 -2.5q20 0 67.5 2.5t56.5 2.5q29 0 29 -16q0 -14 -31 -21q-26 -5 -36 -17t-15 -42q-4 -33 -4 -266q0 -80 13.5 -115.5t43.5 -65.5q18 -18 55 -29t56 -11q140 0 169 127q17 75 17 288q0 53 -5 81q-6 37 -67 53q-29 9 -29 21
q0 13 29 13q10 0 44 -2.5t51 -2.5q21 0 51 2.5t43 2.5q25 0 25 -16q0 -5 -9 -10.5t-19 -7.5q-38 -8 -51 -27.5t-13 -66.5q0 -16 -8 -224q-4 -79 -22.5 -134t-44 -83t-64.5 -51q-55 -31 -133 -31q-125 0 -192 62q-44 41 -61.5 95t-17.5 167q0 186 -5 246q-4 36 -48 45
q-29 8 -29 20zM306 851q16 0 47 -30q46 -44 111 -112q5 -5 10.5 -16.5t1.5 -15.5q-12 -16 -48 2q-77 37 -153 88q-27 18 -27 30q0 11 28 37q17 17 30 17z" />
    <glyph glyph-name="Uacute" unicode="&#xda;" horiz-adv-x="763" 
d="M31 617q0 6 9 11t22 5q22 0 64 -2.5t59 -2.5q20 0 67.5 2.5t56.5 2.5q29 0 29 -16q0 -14 -31 -21q-26 -5 -36 -17t-15 -42q-4 -33 -4 -266q0 -80 13.5 -115.5t43.5 -65.5q18 -18 55 -29t56 -11q140 0 169 127q17 75 17 288q0 53 -5 81q-6 37 -67 53q-29 9 -29 21
q0 13 29 13q10 0 44 -2.5t51 -2.5q21 0 51 2.5t43 2.5q25 0 25 -16q0 -5 -9 -10.5t-19 -7.5q-38 -8 -51 -27.5t-13 -66.5q0 -16 -8 -224q-4 -79 -22.5 -134t-44 -83t-64.5 -51q-55 -31 -133 -31q-125 0 -192 62q-44 41 -61.5 95t-17.5 167q0 186 -5 246q-4 36 -48 45
q-29 8 -29 20zM477 826q7 5 20 7.5t19 0.5q53 -26 53 -46q0 -6 -9 -15.5t-19 -15.5q-16 -8 -45.5 -23.5t-45 -23.5t-37 -17.5t-39.5 -15.5q-30 -9 -40 1q-9 7 14 33q99 93 129 115z" />
    <glyph glyph-name="Ucircumflex" unicode="&#xdb;" horiz-adv-x="763" 
d="M31 617q0 6 9 11t22 5q22 0 64 -2.5t59 -2.5q20 0 67.5 2.5t56.5 2.5q29 0 29 -16q0 -14 -31 -21q-26 -5 -36 -17t-15 -42q-4 -33 -4 -266q0 -80 13.5 -115.5t43.5 -65.5q18 -18 55 -29t56 -11q140 0 169 127q17 75 17 288q0 53 -5 81q-6 37 -67 53q-29 9 -29 21
q0 13 29 13q10 0 44 -2.5t51 -2.5q21 0 51 2.5t43 2.5q25 0 25 -16q0 -5 -9 -10.5t-19 -7.5q-38 -8 -51 -27.5t-13 -66.5q0 -16 -8 -224q-4 -79 -22.5 -134t-44 -83t-64.5 -51q-55 -31 -133 -31q-125 0 -192 62q-44 41 -61.5 95t-17.5 167q0 186 -5 246q-4 36 -48 45
q-29 8 -29 20zM410 840q14 0 47 -30q22 -22 97 -92q2 -1 5.5 -6t6 -11.5t-0.5 -11t-12 -4.5q-19 0 -37 9q-54 27 -100 54q-11 5 -21 0q-12 -8 -50 -25.5t-52 -25.5q-22 -11 -34 -11q-11 0 -6 15q3 11 17 25l96 84q30 30 44 30z" />
    <glyph glyph-name="Udieresis" unicode="&#xdc;" horiz-adv-x="763" 
d="M31 617q0 6 9 11t22 5q22 0 64 -2.5t59 -2.5q20 0 67.5 2.5t56.5 2.5q29 0 29 -16q0 -14 -31 -21q-26 -5 -36 -17t-15 -42q-4 -33 -4 -266q0 -80 13.5 -115.5t43.5 -65.5q18 -18 55 -29t56 -11q140 0 169 127q17 75 17 288q0 53 -5 81q-6 37 -67 53q-29 9 -29 21
q0 13 29 13q10 0 44 -2.5t51 -2.5q21 0 51 2.5t43 2.5q25 0 25 -16q0 -5 -9 -10.5t-19 -7.5q-38 -8 -51 -27.5t-13 -66.5q0 -16 -8 -224q-4 -79 -22.5 -134t-44 -83t-64.5 -51q-55 -31 -133 -31q-125 0 -192 62q-44 41 -61.5 95t-17.5 167q0 186 -5 246q-4 36 -48 45
q-29 8 -29 20zM317 815q24 0 38 -20.5t14 -43.5q0 -24 -19.5 -41t-40.5 -17q-20 0 -37 15.5t-17 45.5q0 22 19 41.5t43 19.5zM526 815q24 0 38 -20.5t14 -43.5q0 -24 -19.5 -41t-40.5 -17t-37.5 15.5t-16.5 45.5q0 23 18.5 42t43.5 19z" />
    <glyph glyph-name="Yacute" unicode="&#xdd;" horiz-adv-x="650" 
d="M6 621q0 14 32 14q12 0 62.5 -3.5t75.5 -3.5q13 0 49 1t57 1q27 0 27 -12q0 -6 -7 -13t-17 -9q-46 -9 -26 -49q53 -97 107 -191q2 -2 7 -1t7 4q85 139 103 175q14 21 8.5 38t-40.5 25q-30 6 -30 24q0 10 22 10q13 0 35.5 -1.5t33.5 -1.5q13 0 64.5 3t58.5 3q24 0 24 -11
q0 -15 -29 -24q-17 -4 -29 -9.5t-26 -19t-18.5 -19t-23.5 -28.5q-58 -72 -133 -195q-9 -18 -9 -50q0 -134 7 -192q2 -16 5.5 -24.5t16.5 -16.5t38 -15q27 -7 27 -20q0 -15 -32 -15q-6 0 -57.5 2.5t-63.5 2.5q-31 0 -65 -2t-56.5 -3.5t-26.5 -1.5q-27 0 -27 13t30 22
q37 11 50.5 21.5t14.5 23.5q1 16 1 188q0 31 -9 54q-5 9 -116 194q-30 49 -50 67.5t-43 24.5q-29 7 -29 20zM441 826q7 5 20 7.5t19 0.5q53 -26 53 -46q0 -6 -9 -15.5t-19 -15.5q-16 -8 -45.5 -23.5t-45 -23.5t-37 -17.5t-39.5 -15.5q-30 -9 -40 1q-9 7 14 33q99 93 129 115
z" />
    <glyph glyph-name="Thorn" unicode="&#xde;" horiz-adv-x="590" 
d="M111 127q2 50 2 393q0 39 -9 52t-43 23q-28 9 -28 20q0 6 9.5 11t18.5 5q11 0 50 -1.5t67 -1.5q23 0 63.5 1.5t55.5 1.5q29 0 29 -16q0 -15 -27 -19q-36 -7 -43.5 -20t-7.5 -74q0 -3 2.5 -6t4.5 -3t32.5 2t51.5 2q85 0 146.5 -47t61.5 -132t-56.5 -138t-153.5 -53
q-42 0 -82 14q-2 1 -4.5 -1t-2.5 -4q0 -76 25 -88q1 0 44 -17q24 -10 24 -17q0 -19 -33 -19q-8 0 -72 2.5t-89 2.5q-18 0 -49.5 -1.5t-45.5 -1.5q-10 0 -19 5.5t-9 13.5q0 12 28 20q34 9 45.5 30t13.5 61zM408 312q0 74 -37 109.5t-94 35.5q-19 0 -24 -11q-5 -15 -5 -39
v-212q0 -3 4.5 -10.5t8.5 -8.5q20 -6 36 -6q47 0 79 41t32 101z" />
    <glyph glyph-name="germandbls" unicode="&#xdf;" horiz-adv-x="528" 
d="M333 701q41 0 71.5 -15t46 -38.5t23 -46t7.5 -42.5q0 -17 -1.5 -29.5t-6.5 -22t-8 -13.5t-12 -13t-12 -13q-8 -10 -25.5 -27.5l-21.5 -21.5q-26 -27 -26 -47q0 -29 18 -45l59 -56q57 -53 57 -119q0 -42 -33 -83t-77 -63q-34 -17 -61 -17q-60 0 -60 37q0 17 20 37
q12 10 22 3q47 -27 65 -27q37 0 37 38q0 32 -80 101q-69 60 -69 130q0 16 9.5 32.5t18.5 22.5q8 8 27 26.5t30 30.5q51 52 51 128q0 41 -24 81t-74 40q-57 0 -82 -105q-14 -60 -14 -310q0 -163 3 -193q1 -8 5 -14t8.5 -8.5t13.5 -6.5q19 -9 19 -18q0 -16 -24 -16
q-5 0 -35 1.5t-46 1.5q-11 0 -55.5 -3t-51.5 -3q-24 0 -24 15q0 12 27 19q25 8 31 31q2 10 2 155q0 102 -1 108q-2 17 -9 17q-1 0 -12.5 2.5t-17.5 2.5q-9 1 -13 9t0 11q21 16 40 29q14 10 14 22q0 55 21.5 114t59.5 100q71 71 170 71z" />
    <glyph glyph-name="agrave" unicode="&#xe0;" horiz-adv-x="429" 
d="M223 409q71 0 111 -58q23 -32 23 -88q0 -23 -2 -93t-2 -72q0 -15 10 -25t25 -10q4 0 33 11q4 1 6 -1q4 -5 4 -16q0 -18 -34.5 -44t-75.5 -26q-62 0 -80 47q-1 4 -5 5t-5 -1q-31 -23 -74 -40q-20 -9 -46 -9q-30 0 -55.5 31t-25.5 73q0 27 18 52q7 9 34 23q11 5 41 14
t64.5 18.5t39.5 11.5q5 1 9 6t4 8q1 8 2 36.5t0 37.5q-2 23 -17.5 43t-44.5 20q-18 0 -28 -5q-5 -3 -5 -49q0 -5 -3 -8q-4 -4 -49 -24t-50 -20t-9.5 5t-4.5 10q0 23 19.5 45.5t69.5 54.5q26 17 58.5 27t44.5 10zM196 53q20 0 31 9q4 3 7 16q4 36 4 95q0 10 -6 10
q-9 0 -35 -8.5t-35 -15.5q-8 -6 -11 -9t-5 -10.5t-2 -20.5q0 -30 17.5 -48t34.5 -18zM172 657q15 0 28 -35q4 -10 11.5 -35t17.5 -60t15 -50q10 -37 -6 -37q-15 0 -26 16q-21 26 -55 79t-43 70q-10 19 -5 28q4 11 27 19q12 5 36 5z" />
    <glyph glyph-name="aacute" unicode="&#xe1;" horiz-adv-x="429" 
d="M223 409q71 0 111 -58q23 -32 23 -88q0 -23 -2 -93t-2 -72q0 -15 10 -25t25 -10q4 0 33 11q4 1 6 -1q4 -5 4 -16q0 -18 -34.5 -44t-75.5 -26q-62 0 -80 47q-1 4 -5 5t-5 -1q-31 -23 -74 -40q-20 -9 -46 -9q-30 0 -55.5 31t-25.5 73q0 27 18 52q7 9 34 23q11 5 41 14
t64.5 18.5t39.5 11.5q5 1 9 6t4 8q1 8 2 36.5t0 37.5q-2 23 -17.5 43t-44.5 20q-18 0 -28 -5q-5 -3 -5 -49q0 -5 -3 -8q-4 -4 -49 -24t-50 -20t-9.5 5t-4.5 10q0 23 19.5 45.5t69.5 54.5q26 17 58.5 27t44.5 10zM196 53q20 0 31 9q4 3 7 16q4 36 4 95q0 10 -6 10
q-9 0 -35 -8.5t-35 -15.5q-8 -6 -11 -9t-5 -10.5t-2 -20.5q0 -30 17.5 -48t34.5 -18zM247 641q2 4 12 10t19 6q16 0 34.5 -5t18.5 -16q0 -15 -8 -28q-14 -25 -54 -79t-56 -70q-15 -15 -30 -15t-5 33q8 26 33 84.5t36 79.5z" />
    <glyph glyph-name="acircumflex" unicode="&#xe2;" horiz-adv-x="429" 
d="M223 409q71 0 111 -58q23 -32 23 -88q0 -23 -2 -93t-2 -72q0 -15 10 -25t25 -10q4 0 33 11q4 1 6 -1q4 -5 4 -16q0 -18 -34.5 -44t-75.5 -26q-62 0 -80 47q-1 4 -5 5t-5 -1q-31 -23 -74 -40q-20 -9 -46 -9q-30 0 -55.5 31t-25.5 73q0 27 18 52q7 9 34 23q11 5 41 14
t64.5 18.5t39.5 11.5q5 1 9 6t4 8q1 8 2 36.5t0 37.5q-2 23 -17.5 43t-44.5 20q-18 0 -28 -5q-5 -3 -5 -49q0 -5 -3 -8q-4 -4 -49 -24t-50 -20t-9.5 5t-4.5 10q0 23 19.5 45.5t69.5 54.5q26 17 58.5 27t44.5 10zM196 53q20 0 31 9q4 3 7 16q4 36 4 95q0 10 -6 10
q-9 0 -35 -8.5t-35 -15.5q-8 -6 -11 -9t-5 -10.5t-2 -20.5q0 -30 17.5 -48t34.5 -18zM204 656q11 0 33 -40q3 -5 15.5 -28t26.5 -50t27 -53q3 -6 5.5 -14t1 -16t-9.5 -8q-6 0 -17.5 8t-15.5 14q-11 14 -31.5 42t-29.5 40q-3 3 -7.5 3t-6.5 -3q-3 -4 -25.5 -34.5t-36.5 -48.5
q-16 -19 -30 -19q-6 0 -8.5 9.5t1.5 19.5q8 19 20 42t30.5 55.5t25.5 45.5q19 35 32 35z" />
    <glyph glyph-name="atilde" unicode="&#xe3;" horiz-adv-x="429" 
d="M223 409q71 0 111 -58q23 -32 23 -88q0 -23 -2 -93t-2 -72q0 -15 10 -25t25 -10q4 0 33 11q4 1 6 -1q4 -5 4 -16q0 -18 -34.5 -44t-75.5 -26q-62 0 -80 47q-1 4 -5 5t-5 -1q-31 -23 -74 -40q-20 -9 -46 -9q-30 0 -55.5 31t-25.5 73q0 27 18 52q7 9 34 23q11 5 41 14
t64.5 18.5t39.5 11.5q5 1 9 6t4 8q1 8 2 36.5t0 37.5q-2 23 -17.5 43t-44.5 20q-18 0 -28 -5q-5 -3 -5 -49q0 -5 -3 -8q-4 -4 -49 -24t-50 -20t-9.5 5t-4.5 10q0 23 19.5 45.5t69.5 54.5q26 17 58.5 27t44.5 10zM196 53q20 0 31 9q4 3 7 16q4 36 4 95q0 10 -6 10
q-9 0 -35 -8.5t-35 -15.5q-8 -6 -11 -9t-5 -10.5t-2 -20.5q0 -30 17.5 -48t34.5 -18zM123 508q-4 0 -9.5 -5.5t-12.5 -15.5t-10 -13t-9 -3q-3 0 -12 9t-9 11t11 18.5t30.5 39t36.5 34.5q4 3 10 4.5t8 0.5q48 -11 107 -11q26 0 37 7q7 5 18.5 18.5t12.5 14.5q1 2 7 -2
t11.5 -10t5.5 -9q0 -5 -4 -9q-11 -11 -42.5 -46t-32.5 -36q-8 -8 -14 -8q-5 0 -59 5.5t-81 5.5z" />
    <glyph glyph-name="adieresis" unicode="&#xe4;" horiz-adv-x="429" 
d="M223 409q71 0 111 -58q23 -32 23 -88q0 -23 -2 -93t-2 -72q0 -15 10 -25t25 -10q4 0 33 11q4 1 6 -1q4 -5 4 -16q0 -18 -34.5 -44t-75.5 -26q-62 0 -80 47q-1 4 -5 5t-5 -1q-31 -23 -74 -40q-20 -9 -46 -9q-30 0 -55.5 31t-25.5 73q0 27 18 52q7 9 34 23q11 5 41 14
t64.5 18.5t39.5 11.5q5 1 9 6t4 8q1 8 2 36.5t0 37.5q-2 23 -17.5 43t-44.5 20q-18 0 -28 -5q-5 -3 -5 -49q0 -5 -3 -8q-4 -4 -49 -24t-50 -20t-9.5 5t-4.5 10q0 23 19.5 45.5t69.5 54.5q26 17 58.5 27t44.5 10zM196 53q20 0 31 9q4 3 7 16q4 36 4 95q0 10 -6 10
q-9 0 -35 -8.5t-35 -15.5q-8 -6 -11 -9t-5 -10.5t-2 -20.5q0 -30 17.5 -48t34.5 -18zM110 608q24 0 39.5 -21t15.5 -43q0 -26 -20.5 -43.5t-42.5 -17.5t-39.5 16t-17.5 46q0 24 18.5 43.5t46.5 19.5zM308 608q25 0 40.5 -21t15.5 -43q0 -26 -21 -43.5t-43 -17.5t-39.5 16
t-17.5 46q0 24 18.5 43.5t46.5 19.5z" />
    <glyph glyph-name="aring" unicode="&#xe5;" horiz-adv-x="429" 
d="M223 409q71 0 111 -58q23 -32 23 -88q0 -23 -2 -93t-2 -72q0 -15 10 -25t25 -10q4 0 33 11q4 1 6 -1q4 -5 4 -16q0 -18 -34.5 -44t-75.5 -26q-62 0 -80 47q-1 4 -5 5t-5 -1q-31 -23 -74 -40q-20 -9 -46 -9q-30 0 -55.5 31t-25.5 73q0 27 18 52q7 9 34 23q11 5 41 14
t64.5 18.5t39.5 11.5q5 1 9 6t4 8q1 8 2 36.5t0 37.5q-2 23 -17.5 43t-44.5 20q-18 0 -28 -5q-5 -3 -5 -49q0 -5 -3 -8q-4 -4 -49 -24t-50 -20t-9.5 5t-4.5 10q0 23 19.5 45.5t69.5 54.5q26 17 58.5 27t44.5 10zM196 53q20 0 31 9q4 3 7 16q4 36 4 95q0 10 -6 10
q-9 0 -35 -8.5t-35 -15.5q-8 -6 -11 -9t-5 -10.5t-2 -20.5q0 -30 17.5 -48t34.5 -18zM211 633q39 0 64.5 -26.5t25.5 -62.5q0 -37 -25.5 -64t-64.5 -27t-64.5 27t-25.5 64q0 36 25.5 62.5t64.5 26.5zM211 595q-19 0 -32 -15t-13 -36q0 -25 13 -39t32 -14q45 0 45 54
q0 21 -12.5 35.5t-32.5 14.5z" />
    <glyph glyph-name="ae" unicode="&#xe6;" horiz-adv-x="603" 
d="M28 271q0 23 39 60q31 27 105 63q31 15 47 15q67 0 110 -52q5 -5 11 0q29 20 44 29t35 16t42 7q61 0 90 -39.5t29 -82.5q0 -5 -6.5 -13.5t-11.5 -9.5q-9 -2 -84 -21.5t-103 -28.5q-21 -7 -21 -16q0 -52 3.5 -67.5t17.5 -32.5q9 -11 34 -20.5t41 -9.5q38 0 71.5 15.5
t46.5 29.5q6 7 10 -6q2 -5 2 -10q0 -9 -13 -29q-22 -33 -62.5 -56.5t-86.5 -23.5q-108 0 -161 57q-9 9 -15 5q-9 -5 -28.5 -19t-31.5 -22t-31 -15t-36 -7q-30 0 -59 27t-29 69q0 57 59 78q8 4 69 26.5t70 25.5q11 4 13 11q9 86 -13 116q-17 23 -44 23q-11 0 -31 -13
q-7 -4 -4 -36q1 -12 -4 -17q-2 -2 -49.5 -21.5t-50.5 -19.5q-2 0 -8 6.5t-6 8.5zM414 360q-20 0 -37 -12.5t-23 -26.5q-5 -10 -3 -18q3 -27 3 -57q0 -2 3 -4t5 -1q59 14 93 30q23 11 23 33q0 17 -16 36.5t-48 19.5zM184 53q22 0 44 17q3 3 8 22v85q0 9 -9 5q-86 -33 -86 -79
q0 -24 12.5 -37t30.5 -13z" />
    <glyph glyph-name="ccedilla" unicode="&#xe7;" horiz-adv-x="425" 
d="M282 409q69 0 105 -26q16 -12 16 -33q0 -13 -16.5 -31t-26.5 -18q-21 0 -53 28q-2 2 -7.5 6.5t-8 6.5l-7.5 6t-7.5 5.5t-7 4.5t-7.5 4.5t-7 3t-8 2t-8 0.5q-26 0 -46 -23q-35 -43 -35 -120q0 -72 39.5 -116.5t100.5 -44.5q49 0 88 28q4 3 8.5 2t4.5 -6q0 -24 -13 -37
q-40 -42 -91 -56q-27 -34 -28 -37q-4 -6 -3 -8t8 -6q60 -30 60 -85q0 -24 -21 -49t-45 -40q-44 -29 -67 -29q-14 0 -22 12q-11 18 6 36q8 10 19 8q32 -4 33 -4q16 0 24.5 11t8.5 26q0 20 -17.5 31.5t-41.5 11.5q-9 0 -16 -1q-4 0 -12 9t-8 13q0 5 8 13q27 26 72 82
q-5 -1 -16 -1q-57 0 -102 22.5t-71 60.5q-32 50 -32 114q0 112 106 181q26 18 68 30.5t76 12.5z" />
    <glyph glyph-name="egrave" unicode="&#xe8;" horiz-adv-x="425" 
d="M246 409q67 0 111 -44q40 -37 40 -90q0 -7 -7.5 -17t-15.5 -10h-213q-9 0 -13 -7q-3 -12 -3 -36q0 -15 7.5 -41.5t19.5 -41.5q38 -48 110 -48q62 0 90 35q10 12 13 12q2 0 5.5 -5t3.5 -10q0 -14 -7 -24q-60 -94 -168 -94q-86 0 -136.5 57.5t-50.5 144.5q0 63 34 117.5
t96 82.5q40 19 84 19zM242 380q-30 0 -56.5 -27.5t-33.5 -62.5q-1 -4 2 -7t6 -3h24h33h40q12 0 23.5 10.5t11.5 28.5q0 21 -16 41t-34 20zM196 657q15 0 28 -35q4 -10 11.5 -35t17.5 -60t15 -50q10 -37 -6 -37q-15 0 -26 16q-21 26 -55 79t-43 70q-10 19 -5 28q4 11 27 19
q12 5 36 5z" />
    <glyph glyph-name="eacute" unicode="&#xe9;" horiz-adv-x="425" 
d="M246 409q67 0 111 -44q40 -37 40 -90q0 -7 -7.5 -17t-15.5 -10h-213q-9 0 -13 -7q-3 -12 -3 -36q0 -15 7.5 -41.5t19.5 -41.5q38 -48 110 -48q62 0 90 35q10 12 13 12q2 0 5.5 -5t3.5 -10q0 -14 -7 -24q-60 -94 -168 -94q-86 0 -136.5 57.5t-50.5 144.5q0 63 34 117.5
t96 82.5q40 19 84 19zM242 380q-30 0 -56.5 -27.5t-33.5 -62.5q-1 -4 2 -7t6 -3h24h33h40q12 0 23.5 10.5t11.5 28.5q0 21 -16 41t-34 20zM270 641q2 4 12 10t19 6q16 0 34.5 -5t18.5 -16q0 -15 -8 -28q-14 -25 -54 -79t-56 -70q-15 -15 -30 -15q-16 0 -5 33q8 26 33 84.5
t36 79.5z" />
    <glyph glyph-name="ecircumflex" unicode="&#xea;" horiz-adv-x="425" 
d="M246 409q67 0 111 -44q40 -37 40 -90q0 -7 -7.5 -17t-15.5 -10h-213q-9 0 -13 -7q-3 -12 -3 -36q0 -15 7.5 -41.5t19.5 -41.5q38 -48 110 -48q62 0 90 35q10 12 13 12q2 0 5.5 -5t3.5 -10q0 -14 -7 -24q-60 -94 -168 -94q-86 0 -136.5 57.5t-50.5 144.5q0 63 34 117.5
t96 82.5q40 19 84 19zM242 380q-30 0 -56.5 -27.5t-33.5 -62.5q-1 -4 2 -7t6 -3h24h33h40q12 0 23.5 10.5t11.5 28.5q0 21 -16 41t-34 20zM227 656q11 0 33 -40q3 -5 15.5 -28t26.5 -50t27 -53q3 -6 5.5 -14t1 -16t-9.5 -8q-6 0 -17.5 8t-15.5 14q-11 14 -31.5 42t-29.5 40
q-3 3 -7.5 3t-6.5 -3q-3 -4 -25.5 -34.5t-36.5 -48.5q-16 -19 -30 -19q-6 0 -8.5 9.5t1.5 19.5q8 19 20 42t30.5 55.5t25.5 45.5q19 35 32 35z" />
    <glyph glyph-name="edieresis" unicode="&#xeb;" horiz-adv-x="425" 
d="M246 409q67 0 111 -44q40 -37 40 -90q0 -7 -7.5 -17t-15.5 -10h-213q-9 0 -13 -7q-3 -12 -3 -36q0 -15 7.5 -41.5t19.5 -41.5q38 -48 110 -48q62 0 90 35q10 12 13 12q2 0 5.5 -5t3.5 -10q0 -14 -7 -24q-60 -94 -168 -94q-86 0 -136.5 57.5t-50.5 144.5q0 63 34 117.5
t96 82.5q40 19 84 19zM242 380q-30 0 -56.5 -27.5t-33.5 -62.5q-1 -4 2 -7t6 -3h24h33h40q12 0 23.5 10.5t11.5 28.5q0 21 -16 41t-34 20zM130 608q24 0 39.5 -21t15.5 -43q0 -26 -20.5 -43.5t-42.5 -17.5t-39.5 16t-17.5 46q0 24 18.5 43.5t46.5 19.5zM328 608
q25 0 40.5 -21t15.5 -43q0 -26 -21 -43.5t-43 -17.5t-39.5 16t-17.5 46q0 24 18.5 43.5t46.5 19.5z" />
    <glyph glyph-name="igrave" unicode="&#xec;" horiz-adv-x="281" 
d="M41 353q0 14 30 19q19 4 47.5 12t53 16t29.5 9q3 1 6.5 -3.5t3.5 -7.5q-4 -59 -4 -239q0 -15 2 -85q1 -21 7.5 -29t26.5 -14q23 -8 23 -20q0 -14 -31 -14q-2 0 -37 1.5t-48 1.5q-18 0 -57 -2t-46 -2q-12 0 -20.5 4.5t-8.5 9.5q0 11 28 19t35 30q6 21 6 181q0 46 -2 58
q-1 8 -31 36q-13 15 -13 19zM102 657q15 0 28 -35q4 -10 11.5 -35t17.5 -60t15 -50q10 -37 -6 -37q-15 0 -26 16q-21 26 -55 79t-43 70q-10 19 -5 28q4 11 27 19q12 5 36 5z" />
    <glyph glyph-name="iacute" unicode="&#xed;" horiz-adv-x="281" 
d="M41 353q0 14 30 19q19 4 47.5 12t53 16t29.5 9q3 1 6.5 -3.5t3.5 -7.5q-4 -59 -4 -239q0 -15 2 -85q1 -21 7.5 -29t26.5 -14q23 -8 23 -20q0 -14 -31 -14q-2 0 -37 1.5t-48 1.5q-18 0 -57 -2t-46 -2q-12 0 -20.5 4.5t-8.5 9.5q0 11 28 19t35 30q6 21 6 181q0 46 -2 58
q-1 8 -31 36q-13 15 -13 19zM178 641q2 4 12 10t19 6q16 0 34.5 -5t18.5 -16q0 -15 -8 -28q-14 -25 -54 -79t-56 -70q-15 -15 -30 -15q-16 0 -5 33q8 26 33 84.5t36 79.5z" />
    <glyph glyph-name="icircumflex" unicode="&#xee;" horiz-adv-x="281" 
d="M41 353q0 14 30 19q19 4 47.5 12t53 16t29.5 9q3 1 6.5 -3.5t3.5 -7.5q-4 -59 -4 -239q0 -15 2 -85q1 -21 7.5 -29t26.5 -14q23 -8 23 -20q0 -14 -31 -14q-2 0 -37 1.5t-48 1.5q-18 0 -57 -2t-46 -2q-12 0 -20.5 4.5t-8.5 9.5q0 11 28 19t35 30q6 21 6 181q0 46 -2 58
q-1 8 -31 36q-13 15 -13 19zM143 656q11 0 33 -40q3 -5 15.5 -28t26.5 -50t27 -53q3 -6 5.5 -14t1 -16t-9.5 -8q-6 0 -17.5 8t-15.5 14q-11 14 -31.5 42t-29.5 40q-3 3 -7.5 3t-6.5 -3q-3 -4 -25.5 -34.5t-36.5 -48.5q-16 -19 -30 -19q-6 0 -8.5 9.5t1.5 19.5q8 19 20 42
t30.5 55.5t25.5 45.5q19 35 32 35z" />
    <glyph glyph-name="idieresis" unicode="&#xef;" horiz-adv-x="281" 
d="M41 353q0 14 30 19q19 4 47.5 12t53 16t29.5 9q3 1 6.5 -3.5t3.5 -7.5q-4 -59 -4 -239q0 -15 2 -85q1 -21 7.5 -29t26.5 -14q23 -8 23 -20q0 -14 -31 -14q-2 0 -37 1.5t-48 1.5q-18 0 -57 -2t-46 -2q-12 0 -20.5 4.5t-8.5 9.5q0 11 28 19t35 30q6 21 6 181q0 46 -2 58
q-1 8 -31 36q-13 15 -13 19zM53 608q24 0 39.5 -21t15.5 -43q0 -26 -20.5 -43.5t-42.5 -17.5t-39.5 16t-17.5 46q0 24 18.5 43.5t46.5 19.5zM251 608q25 0 40.5 -21t15.5 -43q0 -26 -21 -43.5t-43 -17.5t-39.5 16t-17.5 46q0 24 18.5 43.5t46.5 19.5z" />
    <glyph glyph-name="eth" unicode="&#xf0;" horiz-adv-x="508" 
d="M62 684q0 8 9.5 13.5t17.5 5.5q83 -1 211 -82q2 -1 9 -1t8 1l100 51q8 2 10 -2q8 -12 8 -19q0 -12 -18 -21l-68 -35q-2 -1 -2.5 -5.5t0.5 -5.5q60 -64 95.5 -151t35.5 -167q0 -91 -30 -152.5t-72 -86.5q-62 -39 -122 -39q-105 0 -164 59.5t-59 145.5q0 69 37 125
q68 94 200 94q10 0 25 -1.5t18 -1.5q2 0 4.5 3t1.5 5q-14 71 -56 126q-3 3 -9 2l-98 -48q-14 -7 -20 -3q-13 9 -13 18q0 6 6 10l98 50q7 4 1 10q-87 77 -145 89q-19 4 -19 13zM259 375q-29 0 -55 -36q-32 -53 -32 -143q0 -67 28.5 -120t65.5 -53q6 0 10.5 0.5t9 3t7.5 3.5
t6.5 5t5 6t5 7.5t4.5 7.5t5 9t5 9q7 15 14 56.5t7 74.5q0 103 -21 134q-27 36 -65 36z" />
    <glyph glyph-name="ntilde" unicode="&#xf1;" horiz-adv-x="540" 
d="M47 347q0 5 6.5 13t12.5 10q62 20 87 31q8 3 17 7.5l14 7t7 2.5q3 0 8 -6.5t5 -9.5t-0.5 -19.5t-0.5 -21.5q0 -3 2 -4.5t3.5 -1t2.5 0.5q68 53 124 53q57 0 93 -41q36 -43 36 -120q0 -141 3 -183q3 -25 33 -33q27 -7 27 -19q0 -15 -29 -15q-12 0 -48 1t-51 1
q-14 0 -45.5 -1.5t-37.5 -1.5q-29 0 -29 15q0 10 24 17q17 6 22 16t7 35q3 50 3 188q0 34 -19 53q-21 21 -54 21q-29 0 -55 -14q-5 -3 -9 -21q-1 -16 0 -125.5t2 -120.5q1 -12 6.5 -17.5t27.5 -13.5q16 -7 16 -17q0 -15 -28 -15q-12 0 -43.5 1t-41.5 1q-21 0 -57 -1.5
t-41 -1.5q-28 0 -28 16q0 9 21 17q24 8 31 17.5t9 38.5q6 60 6 207q0 11 -32 42q-7 8 -7 12zM195 509q-4 0 -9.5 -5.5t-12.5 -15.5t-10 -13t-9 -3q-3 0 -12 9t-9 11t11 18.5t30.5 39t36.5 34.5q4 3 10 4.5t8 0.5q48 -11 107 -11q26 0 37 7q7 5 18.5 18.5t12.5 14.5q1 2 7 -2
t11.5 -10t5.5 -9q0 -5 -4 -9q-11 -11 -42.5 -46t-32.5 -36q-8 -8 -14 -8q-5 0 -59 5.5t-81 5.5z" />
    <glyph glyph-name="ograve" unicode="&#xf2;" horiz-adv-x="515" 
d="M267 409q81 0 148.5 -59t67.5 -152q0 -57 -28 -102t-63 -67q-60 -41 -144 -41q-34 0 -74 14.5t-67 37.5q-33 27 -54 69t-21 86q0 47 19.5 87.5t49.5 66.5q70 60 166 60zM248 374q-23 0 -41 -18q-38 -35 -38 -133q0 -61 12 -99q14 -49 41 -75t58 -26q20 0 36 22
q33 45 33 139t-36 149q-27 41 -65 41zM216 657q15 0 28 -35q4 -10 11.5 -35t17.5 -60t15 -50q10 -37 -6 -37q-15 0 -26 16q-21 26 -55 79t-43 70q-10 19 -5 28q4 11 27 19q12 5 36 5z" />
    <glyph glyph-name="oacute" unicode="&#xf3;" horiz-adv-x="515" 
d="M267 409q81 0 148.5 -59t67.5 -152q0 -57 -28 -102t-63 -67q-60 -41 -144 -41q-34 0 -74 14.5t-67 37.5q-33 27 -54 69t-21 86q0 47 19.5 87.5t49.5 66.5q70 60 166 60zM248 374q-23 0 -41 -18q-38 -35 -38 -133q0 -61 12 -99q14 -49 41 -75t58 -26q20 0 36 22
q33 45 33 139t-36 149q-27 41 -65 41zM296 641q2 4 12 10t19 6q16 0 34.5 -5t18.5 -16q0 -15 -8 -28q-14 -25 -54 -79t-56 -70q-15 -15 -30 -15q-16 0 -5 33q8 26 33 84.5t36 79.5z" />
    <glyph glyph-name="ocircumflex" unicode="&#xf4;" horiz-adv-x="515" 
d="M267 409q81 0 148.5 -59t67.5 -152q0 -57 -28 -102t-63 -67q-60 -41 -144 -41q-34 0 -74 14.5t-67 37.5q-33 27 -54 69t-21 86q0 47 19.5 87.5t49.5 66.5q70 60 166 60zM248 374q-23 0 -41 -18q-38 -35 -38 -133q0 -61 12 -99q14 -49 41 -75t58 -26q20 0 36 22
q33 45 33 139t-36 149q-27 41 -65 41zM257 656q11 0 33 -40q3 -5 15.5 -28t26.5 -50t27 -53q3 -6 5.5 -14t1 -16t-9.5 -8q-6 0 -17.5 8t-15.5 14q-11 14 -31.5 42t-29.5 40q-3 3 -7.5 3t-6.5 -3q-3 -4 -25.5 -34.5t-36.5 -48.5q-16 -19 -30 -19q-6 0 -8.5 9.5t1.5 19.5
q8 19 20 42t30.5 55.5t25.5 45.5q19 35 32 35z" />
    <glyph glyph-name="otilde" unicode="&#xf5;" horiz-adv-x="515" 
d="M267 409q81 0 148.5 -59t67.5 -152q0 -57 -28 -102t-63 -67q-60 -41 -144 -41q-34 0 -74 14.5t-67 37.5q-33 27 -54 69t-21 86q0 47 19.5 87.5t49.5 66.5q70 60 166 60zM248 374q-23 0 -41 -18q-38 -35 -38 -133q0 -61 12 -99q14 -49 41 -75t58 -26q20 0 36 22
q33 45 33 139t-36 149q-27 41 -65 41zM176 509q-4 0 -9.5 -5.5t-12.5 -15.5t-10 -13t-9 -3q-3 0 -12 9t-9 11t11 18.5t30.5 39t36.5 34.5q4 3 10 4.5t8 0.5q48 -11 107 -11q27 0 37 7q7 5 18.5 18.5t12.5 14.5q1 2 7 -2t11.5 -10t5.5 -9q0 -5 -4 -9q-11 -11 -42.5 -46
t-32.5 -36q-8 -8 -14 -8t-60 5.5t-80 5.5z" />
    <glyph glyph-name="odieresis" unicode="&#xf6;" horiz-adv-x="515" 
d="M267 409q81 0 148.5 -59t67.5 -152q0 -57 -28 -102t-63 -67q-60 -41 -144 -41q-34 0 -74 14.5t-67 37.5q-33 27 -54 69t-21 86q0 47 19.5 87.5t49.5 66.5q70 60 166 60zM248 374q-23 0 -41 -18q-38 -35 -38 -133q0 -61 12 -99q14 -49 41 -75t58 -26q20 0 36 22
q33 45 33 139t-36 149q-27 41 -65 41zM154 608q24 0 39.5 -21t15.5 -43q0 -26 -20.5 -43.5t-42.5 -17.5t-39.5 16t-17.5 46q0 24 18.5 43.5t46.5 19.5zM352 608q25 0 40.5 -21t15.5 -43q0 -26 -21 -43.5t-43 -17.5t-39.5 16t-17.5 46q0 24 18.5 43.5t46.5 19.5z" />
    <glyph glyph-name="divide" unicode="&#xf7;" horiz-adv-x="624" 
d="M311 150q25 0 41.5 -17t16.5 -40q0 -27 -16.5 -45t-41.5 -18q-26 0 -43 18t-17 45q0 23 17.5 40t42.5 17zM311 356q-23 0 -40.5 17.5t-17.5 41.5t17.5 42.5t40.5 18.5q26 0 43 -18t17 -43t-16.5 -42t-43.5 -17zM554 286q9 0 9 -12q0 -18 -4.5 -35t-9.5 -17h-471
q-8 0 -13 5.5t-5 9.5q0 13 3.5 31t8.5 18h482z" />
    <glyph glyph-name="oslash" unicode="&#xf8;" horiz-adv-x="521" 
d="M269 409q56 0 106 -25q5 0 6 1l18 21q10 14 19 14q7 0 12.5 -5t7 -10t-0.5 -7l-25 -33q-1 -1 -0.5 -3.5t2.5 -3.5q75 -66 75 -159q0 -58 -27.5 -101t-62.5 -66q-62 -44 -147 -44q-42 0 -103 25q-8 3 -11 -3l-32 -37q-3 -3 -12 1q-17 14 -9 22l26 34q2 4 -1 7
q-33 27 -55.5 68.5t-22.5 87.5q0 98 69 156q70 60 168 60zM248 375q-23 0 -45 -22q-13 -13 -24.5 -50t-11.5 -86q0 -42 10 -88q0 -2 3 -3t4 0q134 172 144 186q3 6 0 11q-36 52 -80 52zM197 76q31 -53 75 -53q30 0 55 31q29 41 29 131q0 43 -9 86q0 2 -2 3t-3 0l-144 -185
q-2 -2 -2.5 -6.5t1.5 -6.5z" />
    <glyph glyph-name="ugrave" unicode="&#xf9;" horiz-adv-x="520" 
d="M261 57q29 0 54 19q2 1 5 10t3 12v221q0 15 -18 24l-37 16q-14 4 -14 19q0 3 5 7t9 4q68 0 145 14q20 4 24 4q11 0 11 -16q-3 -62 -3 -317q0 -21 14 -20q4 0 20 3.5t23 3.5q2 0 12 -29q1 -2 -4 -7t-8 -5q-32 -2 -108 -22q-48 -14 -60 -14q-3 0 -7.5 4.5t-4.5 9.5
q0 6 2 40q0 2 -1.5 4.5t-3 3.5t-2.5 0q-39 -30 -64 -42q-36 -16 -63 -16q-72 0 -108 56q-11 16 -11 55q0 135 -3 214q-1 20 -8.5 28t-23.5 15q-19 8 -19 23q0 11 16 11q12 0 49.5 3t70.5 5.5t34 2.5q2 0 5 -6t3 -9v-273q0 -23 16 -37q21 -19 50 -19zM202 657q15 0 28 -35
q4 -10 11.5 -35t17.5 -60t15 -50q10 -37 -6 -37q-15 0 -26 16q-21 26 -55 79t-43 70q-10 19 -5 28q4 11 27 19q12 5 36 5z" />
    <glyph glyph-name="uacute" unicode="&#xfa;" horiz-adv-x="520" 
d="M261 57q29 0 54 19q2 1 5 10t3 12v221q0 15 -18 24l-37 16q-14 4 -14 19q0 3 5 7t9 4q68 0 145 14q20 4 24 4q11 0 11 -16q-3 -62 -3 -317q0 -21 14 -20q4 0 20 3.5t23 3.5q2 0 12 -29q1 -2 -4 -7t-8 -5q-32 -2 -108 -22q-48 -14 -60 -14q-3 0 -7.5 4.5t-4.5 9.5
q0 6 2 40q0 2 -1.5 4.5t-3 3.5t-2.5 0q-39 -30 -64 -42q-36 -16 -63 -16q-72 0 -108 56q-11 16 -11 55q0 135 -3 214q-1 20 -8.5 28t-23.5 15q-19 8 -19 23q0 11 16 11q12 0 49.5 3t70.5 5.5t34 2.5q2 0 5 -6t3 -9v-273q0 -23 16 -37q21 -19 50 -19zM300 631q2 4 12 10t19 6
q16 0 34.5 -5t18.5 -16q0 -15 -8 -28q-14 -25 -54 -79t-56 -70q-15 -15 -30 -15q-16 0 -5 33q8 26 33 84.5t36 79.5z" />
    <glyph glyph-name="ucircumflex" unicode="&#xfb;" horiz-adv-x="520" 
d="M261 57q29 0 54 19q2 1 5 10t3 12v221q0 15 -18 24l-37 16q-14 4 -14 19q0 3 5 7t9 4q68 0 145 14q20 4 24 4q11 0 11 -16q-3 -62 -3 -317q0 -21 14 -20q4 0 20 3.5t23 3.5q2 0 12 -29q1 -2 -4 -7t-8 -5q-32 -2 -108 -22q-48 -14 -60 -14q-3 0 -7.5 4.5t-4.5 9.5
q0 6 2 40q0 2 -1.5 4.5t-3 3.5t-2.5 0q-39 -30 -64 -42q-36 -16 -63 -16q-72 0 -108 56q-11 16 -11 55q0 135 -3 214q-1 20 -8.5 28t-23.5 15q-19 8 -19 23q0 11 16 11q12 0 49.5 3t70.5 5.5t34 2.5q2 0 5 -6t3 -9v-273q0 -23 16 -37q21 -19 50 -19zM257 656q11 0 33 -40
q3 -5 15.5 -28t26.5 -50t27 -53q3 -6 5.5 -14t1 -16t-9.5 -8q-6 0 -17.5 8t-15.5 14q-11 14 -31.5 42t-29.5 40q-3 3 -7.5 3t-6.5 -3q-3 -4 -25.5 -34.5t-36.5 -48.5q-16 -19 -30 -19q-6 0 -8.5 9.5t1.5 19.5q8 19 20 42t30.5 55.5t25.5 45.5q19 35 32 35z" />
    <glyph glyph-name="udieresis" unicode="&#xfc;" horiz-adv-x="520" 
d="M261 57q29 0 54 19q2 1 5 10t3 12v221q0 15 -18 24l-37 16q-14 4 -14 19q0 3 5 7t9 4q68 0 145 14q20 4 24 4q11 0 11 -16q-3 -62 -3 -317q0 -21 14 -20q4 0 20 3.5t23 3.5q2 0 12 -29q1 -2 -4 -7t-8 -5q-32 -2 -108 -22q-48 -14 -60 -14q-3 0 -7.5 4.5t-4.5 9.5
q0 6 2 40q0 2 -1.5 4.5t-3 3.5t-2.5 0q-39 -30 -64 -42q-36 -16 -63 -16q-72 0 -108 56q-11 16 -11 55q0 135 -3 214q-1 20 -8.5 28t-23.5 15q-19 8 -19 23q0 11 16 11q12 0 49.5 3t70.5 5.5t34 2.5q2 0 5 -6t3 -9v-273q0 -23 16 -37q21 -19 50 -19zM154 608q24 0 39.5 -21
t15.5 -43q0 -26 -20.5 -43.5t-42.5 -17.5t-39.5 16t-17.5 46q0 24 18.5 43.5t46.5 19.5zM352 608q25 0 40.5 -21t15.5 -43q0 -26 -21 -43.5t-43 -17.5t-39.5 16t-17.5 46q0 24 18.5 43.5t46.5 19.5z" />
    <glyph glyph-name="yacute" unicode="&#xfd;" horiz-adv-x="432" 
d="M-17 387q0 3 7.5 7.5t16.5 4.5q21 0 58 -2t51 -2q18 0 49.5 1t36.5 1q25 0 25 -13q0 -11 -24 -19q-19 -6 -22 -14t4 -27q20 -67 72 -175q1 -4 5 -3.5t6 4.5q57 137 68 171q10 31 -38 46q-20 6 -20 16q0 14 24 14q11 0 32.5 -1t27.5 -1q7 0 33 2t41 2q20 0 20 -13
q0 -12 -25 -19q-28 -8 -52 -48q-8 -14 -32.5 -70.5t-52 -122.5t-31.5 -76q-18 -45 -59.5 -146t-49.5 -122q-7 -17 -26.5 -27t-32.5 -10q-27 0 -42 18t-15 40q0 16 12 34t34 18q2 0 23 -1t27 -1q12 0 20 17q3 6 42 106q2 9 -1 14l-18 43q-73 184 -127 295q-9 17 -16.5 24
t-25.5 13q-25 7 -25 22zM280 641q2 4 12 10t19 6q16 0 34.5 -5t18.5 -16q0 -15 -8 -28q-14 -25 -54 -79t-56 -70q-15 -15 -30 -15q-16 0 -5 33q8 26 33 84.5t36 79.5z" />
    <glyph glyph-name="thorn" unicode="&#xfe;" horiz-adv-x="519" 
d="M75 75q0 38 -0.5 125t-0.5 96q0 232 -6 280q-2 16 -19 29q-5 4 -11 8t-9.5 6.5t-6.5 4.5t-4 4t-1 3q0 6 6 12t12 8q93 23 122 37q27 13 33 13q2 0 6.5 -6t4.5 -11q-5 -128 -5 -309q0 -2 3 -5t5 -2q11 7 52 26q29 12 71 12q30 0 62 -16t52 -39q50 -57 50 -132
q0 -107 -86 -175q-64 -51 -152 -51q-27 0 -45 3q-3 1 -6 -4.5t-3 -9.5q-1 -17 0.5 -73.5t3.5 -69.5q2 -17 5 -25t13.5 -16.5t30.5 -14.5q26 -8 26 -19q0 -14 -29 -14q-15 0 -68.5 2.5t-71.5 2.5q-10 0 -36 -1.5t-54 -1.5t-28 16q0 10 28 17q32 7 41 21t11 55q4 144 4 214z
M252 347q-28 0 -41 -7q-9 -6 -11 -23q-5 -42 -5 -184q0 -26 9 -46q13 -26 35.5 -42t37.5 -16t28 9q24 16 38 54.5t16.5 61.5t2.5 37q0 23 -10 57t-32 60q-14 16 -35.5 27.5t-32.5 11.5z" />
    <glyph glyph-name="ydieresis" unicode="&#xff;" horiz-adv-x="432" 
d="M-17 387q0 3 7.5 7.5t16.5 4.5q21 0 58 -2t51 -2q18 0 49.5 1t36.5 1q25 0 25 -13q0 -11 -24 -19q-19 -6 -22 -14t4 -27q20 -67 72 -175q1 -4 5 -3.5t6 4.5q57 137 68 171q10 31 -38 46q-20 6 -20 16q0 14 24 14q11 0 32.5 -1t27.5 -1q7 0 33 2t41 2q20 0 20 -13
q0 -12 -25 -19q-28 -8 -52 -48q-8 -14 -32.5 -70.5t-52 -122.5t-31.5 -76q-18 -45 -59.5 -146t-49.5 -122q-7 -17 -26.5 -27t-32.5 -10q-27 0 -42 18t-15 40q0 16 12 34t34 18q2 0 23 -1t27 -1q12 0 20 17q3 6 42 106q2 9 -1 14l-18 43q-73 184 -127 295q-9 17 -16.5 24
t-25.5 13q-25 7 -25 22zM138 608q24 0 39.5 -21t15.5 -43q0 -26 -20.5 -43.5t-42.5 -17.5t-39.5 16t-17.5 46q0 24 18.5 43.5t46.5 19.5zM336 608q25 0 40.5 -21t15.5 -43q0 -26 -21 -43.5t-43 -17.5t-39.5 16t-17.5 46q0 24 18.5 43.5t46.5 19.5z" />
    <glyph glyph-name="Amacron" unicode="&#x100;" horiz-adv-x="678" 
d="M357 645q10 0 18 -20q6 -13 38 -106q94 -266 143 -387q12 -29 22.5 -48t22 -29.5t20 -15t21.5 -8.5q27 -8 27 -19q0 -6 -9 -11t-24 -5q-11 0 -66 2t-68 2q-17 0 -58 -1t-53 -1q-32 0 -32 16q0 11 26 18q18 5 27.5 11.5t11.5 12t2 14.5q0 17 -42 134q-1 3 -8.5 10t-9.5 7
q-58 0 -97.5 -0.5t-56 -1.5t-17.5 -1q-5 0 -11 -11q-38 -96 -38 -130q0 -18 10.5 -28t35.5 -17q29 -7 29 -21q0 -13 -31 -13q-7 0 -33 1t-47 1q-23 0 -57.5 -2t-38.5 -2q-32 0 -32 13t26 20q35 9 50.5 26t39.5 65q11 20 44.5 102.5t72.5 181.5t54 134q5 13 6 17q2 5 8 13
q3 4 17 19t24.5 27.5t13.5 17.5q9 13 19 13zM358 270q1 0 2 1t2 3t0 5q-23 74 -70 193q-2 10 -9 1q-2 -2 -3 -5q-64 -161 -69 -187q-1 -5 2 -8.5t6 -3.5q94 2 139 1zM217 767l254 2q7 0 7 -30q0 -16 -7.5 -30.5t-13.5 -14.5l-249 1q-2 0 -5.5 6t-3.5 10q0 18 6 37t12 19z
" />
    <glyph glyph-name="amacron" unicode="&#x101;" horiz-adv-x="429" 
d="M223 409q71 0 111 -58q23 -32 23 -88q0 -23 -2 -93t-2 -72q0 -15 10 -25t25 -10q4 0 33 11q4 1 6 -1q4 -5 4 -16q0 -18 -34.5 -44t-75.5 -26q-62 0 -80 47q-1 4 -5 5t-5 -1q-31 -23 -74 -40q-20 -9 -46 -9q-30 0 -55.5 31t-25.5 73q0 27 18 52q7 9 34 23q11 5 41 14
t64.5 18.5t39.5 11.5q5 1 9 6t4 8q1 8 2 36.5t0 37.5q-2 23 -17.5 43t-44.5 20q-18 0 -28 -5q-5 -3 -5 -49q0 -5 -3 -8q-4 -4 -49 -24t-50 -20t-9.5 5t-4.5 10q0 23 19.5 45.5t69.5 54.5q26 17 58.5 27t44.5 10zM196 53q20 0 31 9q4 3 7 16q4 36 4 95q0 10 -6 10
q-9 0 -35 -8.5t-35 -15.5q-8 -6 -11 -9t-5 -10.5t-2 -20.5q0 -30 17.5 -48t34.5 -18zM101 571l223 3q6 0 6 -35q0 -10 -3.5 -20t-7.5 -15.5t-6 -5.5l-218 -1q-2 0 -5 6t-3 12q0 11 3.5 25t6.5 22.5t4 8.5z" />
    <glyph glyph-name="Abreve" unicode="&#x102;" horiz-adv-x="678" 
d="M357 645q10 0 18 -20q6 -13 38 -106q94 -266 143 -387q12 -29 22.5 -48t22 -29.5t20 -15t21.5 -8.5q27 -8 27 -19q0 -6 -9 -11t-24 -5q-11 0 -66 2t-68 2q-17 0 -58 -1t-53 -1q-32 0 -32 16q0 11 26 18q18 5 27.5 11.5t11.5 12t2 14.5q0 17 -42 134q-1 3 -8.5 10t-9.5 7
q-58 0 -97.5 -0.5t-56 -1.5t-17.5 -1q-5 0 -11 -11q-38 -96 -38 -130q0 -18 10.5 -28t35.5 -17q29 -7 29 -21q0 -13 -31 -13q-7 0 -33 1t-47 1q-23 0 -57.5 -2t-38.5 -2q-32 0 -32 13t26 20q35 9 50.5 26t39.5 65q11 20 44.5 102.5t72.5 181.5t54 134q5 13 6 17q2 5 8 13
q3 4 17 19t24.5 27.5t13.5 17.5q9 13 19 13zM358 270q1 0 2 1t2 3t0 5q-23 74 -70 193q-2 10 -9 1q-2 -2 -3 -5q-64 -161 -69 -187q-1 -5 2 -8.5t6 -3.5q94 2 139 1zM337 666q-59 0 -100.5 34.5t-45.5 97.5q-2 9 2 16t11 7q5 0 14 -6t13 -13q33 -59 108 -59q80 0 116 56
q11 18 25 18q4 0 7 -6.5t3 -10.5q-1 -17 -9.5 -37.5t-24.5 -43.5t-47.5 -38t-71.5 -15z" />
    <glyph glyph-name="abreve" unicode="&#x103;" horiz-adv-x="429" 
d="M223 409q71 0 111 -58q23 -32 23 -88q0 -23 -2 -93t-2 -72q0 -15 10 -25t25 -10q4 0 33 11q4 1 6 -1q4 -5 4 -16q0 -18 -34.5 -44t-75.5 -26q-62 0 -80 47q-1 4 -5 5t-5 -1q-31 -23 -74 -40q-20 -9 -46 -9q-30 0 -55.5 31t-25.5 73q0 27 18 52q7 9 34 23q11 5 41 14
t64.5 18.5t39.5 11.5q5 1 9 6t4 8q1 8 2 36.5t0 37.5q-2 23 -17.5 43t-44.5 20q-18 0 -28 -5q-5 -3 -5 -49q0 -5 -3 -8q-4 -4 -49 -24t-50 -20t-9.5 5t-4.5 10q0 23 19.5 45.5t69.5 54.5q26 17 58.5 27t44.5 10zM196 53q20 0 31 9q4 3 7 16q4 36 4 95q0 10 -6 10
q-9 0 -35 -8.5t-35 -15.5q-8 -6 -11 -9t-5 -10.5t-2 -20.5q0 -30 17.5 -48t34.5 -18zM202 469q-45 0 -76.5 30.5t-34.5 91.5q-1 15 6 23.5t15 8.5q9 0 14 -18q18 -65 81 -65q57 0 83 62q9 22 25 22q10 0 10 -18q0 -25 -10.5 -54.5t-40 -56t-72.5 -26.5z" />
    <glyph glyph-name="Aogonek" unicode="&#x104;" horiz-adv-x="678" 
d="M357 645q10 0 18 -20q6 -13 38 -106q94 -266 143 -387q12 -29 22.5 -48t22 -29.5t20 -15t21.5 -8.5q27 -8 27 -19q0 -6 -9 -11t-24 -5q-28 0 -49 1q-79 -79 -79 -142q0 -20 12.5 -34.5t35.5 -14.5q34 0 57 18q12 4 12 -10q0 -19 -9 -28q-45 -59 -111 -59
q-47 0 -69.5 28.5t-22.5 60.5q0 88 135 183q-20 1 -46 1q-17 0 -58 -1t-53 -1q-32 0 -32 16q0 11 26 18q18 5 27.5 11.5t11.5 12t2 14.5q0 17 -42 134q-1 3 -8.5 10t-9.5 7q-35 0 -75.5 -1t-67.5 -2t-30 -1q-4 0 -9 -10q-38 -96 -38 -130q0 -18 10.5 -28t35.5 -17
q29 -7 29 -21q0 -13 -31 -13q-7 0 -33 1t-47 1q-23 0 -57.5 -2t-38.5 -2q-32 0 -32 13t26 20q35 9 50.5 26t39.5 65q11 20 44.5 102.5t72.5 181.5t54 134q5 14 5 17q0 7 2 8q12 12 34.5 36.5t27.5 32.5q9 13 19 13zM358 270q1 0 2 1t2 3t0 5q-23 74 -70 193q-2 10 -9 1
q-2 -2 -3 -5q-63 -160 -69 -188q-1 -5 2 -8.5t6 -3.5q111 3 139 2z" />
    <glyph glyph-name="aogonek" unicode="&#x105;" horiz-adv-x="429" 
d="M224 409q72 0 107 -52q27 -41 27 -81q0 -23 -2 -95t-2 -74q0 -44 34 -44q18 0 31 10q5 3 8 0q4 -5 4 -16q0 -17 -39 -44q-98 -84 -98 -147q0 -16 13 -31t32 -15q32 0 52 10q11 4 11 -9q0 -18 -9 -27q-41 -54 -105 -54q-44 0 -67 28.5t-23 58.5q0 68 125 160
q-33 2 -52.5 11.5t-28.5 37.5q-3 8 -7 5q-42 -25 -64 -35q-36 -15 -57 -15q-29 0 -56 28.5t-27 71.5q0 33 16 53q13 16 38 25q9 3 63 19t65 20q28 10 28 19q1 7 1.5 37t-0.5 40q-1 21 -18.5 40.5t-44.5 19.5q-18 0 -28 -6q-3 -2 -3 -42q0 -13 -4 -17t-47 -22.5t-48 -18.5
t-12 7t-7 12q0 21 31 50t72 52q51 30 91 30zM201 55q9 0 25 13q10 8 11 21t1 89q0 6 -3 6h-3q-31 -7 -59 -21q-27 -13 -27 -48q0 -29 17.5 -44.5t37.5 -15.5z" />
    <glyph glyph-name="Cacute" unicode="&#x106;" horiz-adv-x="706" 
d="M423 645q76 0 137 -17q29 -8 70 -12q5 -1 9.5 -9t4.5 -16l5 -95q1 -16 -4 -28.5t-14 -12.5q-11 0 -21 28q-19 50 -42 69q-65 60 -143 60q-112 0 -165.5 -75.5t-53.5 -198.5q0 -103 34 -171q72 -144 210 -144q55 0 91 21q52 31 83 88q19 34 31 34q7 0 8.5 -15.5
t-1.5 -23.5q-9 -37 -25 -81q-2 -7 -14 -18t-24 -16q-78 -30 -172 -30q-103 0 -182 34.5t-116 77.5q-84 97 -84 222q0 83 34 144.5t75 95.5q108 89 269 89zM466 842q7 5 20 7.5t19 0.5q53 -26 53 -46q0 -6 -9 -15.5t-19 -15.5q-16 -8 -45.5 -23.5t-45 -23.5t-37 -17.5
t-39.5 -15.5q-30 -9 -40 1q-9 7 14 33q99 93 129 115z" />
    <glyph glyph-name="cacute" unicode="&#x107;" horiz-adv-x="425" 
d="M279 403q25 0 56.5 -6.5t44.5 -15.5q18 -13 18 -39q0 -13 -17.5 -32t-24.5 -19q-17 0 -49 28q-1 1 -11.5 10t-13 11.5t-11.5 9t-14 8.5t-12.5 4.5t-14.5 2.5q-17 0 -34 -17t-27.5 -52.5t-10.5 -72.5q0 -72 36 -108q42 -48 100 -48q43 0 99 35q1 1 3.5 0t4.5 -4t2 -7
q0 -16 -17 -33q-28 -29 -70 -49t-88 -20q-55 0 -97.5 23.5t-64.5 56.5q-34 53 -34 116q0 108 101 174q26 18 69 31t77 13zM270 641q2 4 12 10t19 6q16 0 34.5 -5t18.5 -16q0 -15 -8 -28q-14 -25 -54 -79t-56 -70q-15 -15 -30 -15q-16 0 -5 33q8 26 33 84.5t36 79.5z" />
    <glyph glyph-name="Ccircumflex" unicode="&#x108;" horiz-adv-x="706" 
d="M423 645q76 0 137 -17q29 -8 70 -12q5 -1 9.5 -9t4.5 -16l5 -95q1 -16 -4 -28.5t-14 -12.5q-11 0 -21 28q-19 50 -42 69q-65 60 -143 60q-112 0 -165.5 -75.5t-53.5 -198.5q0 -103 34 -171q72 -144 210 -144q55 0 91 21q52 31 83 88q19 34 31 34q7 0 8.5 -15.5
t-1.5 -23.5q-9 -37 -25 -81q-2 -7 -14 -18t-24 -16q-78 -30 -172 -30q-103 0 -182 34.5t-116 77.5q-84 97 -84 222q0 83 34 144.5t75 95.5q108 89 269 89zM403 844q14 0 47 -30q22 -22 97 -92q2 -1 5.5 -6t6 -11.5t-0.5 -11t-12 -4.5q-19 0 -37 9q-54 27 -100 54
q-11 5 -21 0q-12 -8 -50 -25.5t-52 -25.5q-22 -11 -34 -11q-11 0 -6 15q3 11 17 25l96 84q30 30 44 30z" />
    <glyph glyph-name="ccircumflex" unicode="&#x109;" horiz-adv-x="425" 
d="M279 403q25 0 56.5 -6.5t44.5 -15.5q18 -13 18 -39q0 -13 -17.5 -32t-24.5 -19q-17 0 -49 28q-1 1 -11.5 10t-13 11.5t-11.5 9t-14 8.5t-12.5 4.5t-14.5 2.5q-17 0 -34 -17t-27.5 -52.5t-10.5 -72.5q0 -72 36 -108q42 -48 100 -48q43 0 99 35q1 1 3.5 0t4.5 -4t2 -7
q0 -16 -17 -33q-28 -29 -70 -49t-88 -20q-55 0 -97.5 23.5t-64.5 56.5q-34 53 -34 116q0 108 101 174q26 18 69 31t77 13zM235 656q11 0 33 -40q3 -5 15.5 -28t26.5 -50t27 -53q3 -6 5.5 -14t1 -16t-9.5 -8q-6 0 -17.5 8t-15.5 14q-11 14 -31.5 42t-29.5 40q-3 3 -7.5 3
t-6.5 -3q-3 -4 -25.5 -34.5t-36.5 -48.5q-16 -19 -30 -19q-6 0 -8.5 9.5t1.5 19.5q8 19 20 42t30.5 55.5t25.5 45.5q19 35 32 35z" />
    <glyph glyph-name="Cdotaccent" unicode="&#x10a;" horiz-adv-x="706" 
d="M423 645q76 0 137 -17q29 -8 70 -12q5 -1 9.5 -9t4.5 -16l5 -95q1 -16 -4 -28.5t-14 -12.5q-11 0 -21 28q-19 50 -42 69q-65 60 -143 60q-112 0 -165.5 -75.5t-53.5 -198.5q0 -103 34 -171q72 -144 210 -144q55 0 91 21q52 31 83 88q19 34 31 34q7 0 8.5 -15.5
t-1.5 -23.5q-9 -37 -25 -81q-2 -7 -14 -18t-24 -16q-78 -30 -172 -30q-103 0 -182 34.5t-116 77.5q-84 97 -84 222q0 83 34 144.5t75 95.5q108 89 269 89zM424 826q27 0 42.5 -22.5t15.5 -47.5q0 -27 -22 -45.5t-45 -18.5t-41.5 17.5t-18.5 49.5q0 25 20 46t49 21z" />
    <glyph glyph-name="cdotaccent" unicode="&#x10b;" horiz-adv-x="425" 
d="M279 403q25 0 56.5 -6.5t44.5 -15.5q18 -13 18 -39q0 -13 -17.5 -32t-24.5 -19q-17 0 -49 28q-1 1 -11.5 10t-13 11.5t-11.5 9t-14 8.5t-12.5 4.5t-14.5 2.5q-17 0 -34 -17t-27.5 -52.5t-10.5 -72.5q0 -72 36 -108q42 -48 100 -48q43 0 99 35q1 1 3.5 0t4.5 -4t2 -7
q0 -16 -17 -33q-28 -29 -70 -49t-88 -20q-55 0 -97.5 23.5t-64.5 56.5q-34 53 -34 116q0 108 101 174q26 18 69 31t77 13zM252 621q27 0 43.5 -22.5t16.5 -47.5q0 -27 -22 -46t-45 -19t-42.5 17.5t-19.5 49.5q0 25 20 46.5t49 21.5z" />
    <glyph glyph-name="Ccaron" unicode="&#x10c;" horiz-adv-x="706" 
d="M423 645q76 0 137 -17q29 -8 70 -12q5 -1 9.5 -9t4.5 -16l5 -95q1 -16 -4 -28.5t-14 -12.5q-11 0 -21 28q-19 50 -42 69q-65 60 -143 60q-112 0 -165.5 -75.5t-53.5 -198.5q0 -103 34 -171q72 -144 210 -144q55 0 91 21q52 31 83 88q19 34 31 34q7 0 8.5 -15.5
t-1.5 -23.5q-9 -37 -25 -81q-2 -7 -14 -18t-24 -16q-78 -30 -172 -30q-103 0 -182 34.5t-116 77.5q-84 97 -84 222q0 83 34 144.5t75 95.5q108 89 269 89zM409 687q-14 0 -46 30q-70 66 -97 92q-2 1 -5.5 6t-6 11.5t0 11t12.5 4.5q18 0 36 -9q54 -27 100 -54q10 -6 21 0
q12 8 50 25.5t52 25.5q22 11 35 11q11 0 6 -15q-4 -11 -18 -25l-96 -84q-30 -30 -44 -30z" />
    <glyph glyph-name="ccaron" unicode="&#x10d;" horiz-adv-x="425" 
d="M279 403q25 0 56.5 -6.5t44.5 -15.5q18 -13 18 -39q0 -13 -17.5 -32t-24.5 -19q-17 0 -49 28q-1 1 -11.5 10t-13 11.5t-11.5 9t-14 8.5t-12.5 4.5t-14.5 2.5q-17 0 -34 -17t-27.5 -52.5t-10.5 -72.5q0 -72 36 -108q42 -48 100 -48q43 0 99 35q1 1 3.5 0t4.5 -4t2 -7
q0 -16 -17 -33q-28 -29 -70 -49t-88 -20q-55 0 -97.5 23.5t-64.5 56.5q-34 53 -34 116q0 108 101 174q26 18 69 31t77 13zM235 447q-11 0 -33 41q-4 9 -28.5 54t-40.5 77q-3 6 -5.5 14t-1 15.5t9.5 7.5q6 0 17.5 -7.5t15.5 -13.5l61 -83q3 -3 7.5 -3t6.5 3q7 9 27.5 36.5
t34.5 47.5q15 18 30 18q6 0 8.5 -9t-1.5 -19q-8 -19 -20 -42t-30.5 -55.5t-25.5 -45.5q-20 -36 -32 -36z" />
    <glyph glyph-name="Dcaron" unicode="&#x10e;" horiz-adv-x="763" 
d="M362 636q159 0 262 -95q42 -41 68.5 -99t26.5 -118q0 -97 -48 -170.5t-109 -107.5q-94 -54 -224 -54q-62 0 -202 5q-36 1 -75 1q-16 0 -25 5t-9 12q0 13 28 18q43 6 54 24.5t13 91.5q3 96 2 139q-1 30 -0.5 65.5t0 81t-2.5 71.5q-4 51 -13.5 67t-46.5 22q-8 2 -16 7.5
t-8 10.5q0 6 8.5 10.5t19.5 4.5h64q22 0 109.5 4t123.5 4zM316 599q-20 0 -44 -13q-7 -4 -7 -14q-4 -60 -4 -170v-144q0 -101 4 -160q2 -25 20 -43q10 -9 30.5 -18t28.5 -9q65 0 132 56q43 36 65.5 102.5t22.5 136.5q0 51 -17 106t-49 93q-30 35 -80 56t-102 21zM346 675
q-14 0 -46 30q-70 66 -97 92q-2 1 -5.5 6t-6 11.5t0 11t12.5 4.5q18 0 36 -9q54 -27 100 -54q10 -6 21 0q12 8 50 25.5t52 25.5q22 11 35 11q11 0 6 -15q-4 -11 -18 -25l-96 -84q-30 -30 -44 -30z" />
    <glyph glyph-name="dcaron" unicode="&#x10f;" horiz-adv-x="533" 
d="M276 406q33 0 50 -2q8 0 8 8q3 28 2 92.5t-4 88.5q-3 28 -39 42q-16 6 -16 11q0 4 7 11.5t11 8.5q104 15 137 29q14 6 23 6q4 0 7 -7t2 -15q-9 -90 -9 -372q0 -40 0.5 -79.5t1 -65.5t0.5 -31q1 -84 19 -84q3 0 22 1t26 1q6 0 6 -10q0 -4 -9.5 -15t-13.5 -12
q-109 -18 -114 -20q-32 -12 -47 -12q-4 0 -8.5 5t-4.5 9q0 3 1.5 16t1.5 21q0 3 -2 5t-3.5 3t-2.5 0q-24 -19 -58 -32.5t-62 -13.5q-66 0 -117 44q-59 51 -59 143q0 122 109 187q26 16 65.5 27.5t69.5 11.5zM241 368q-23 0 -50 -27q-35 -38 -35 -120q0 -67 38 -116.5
t92 -49.5q22 0 37 11q3 2 7.5 17t4.5 21q5 115 0 177q0 3 -5.5 18.5t-10.5 22.5q-37 46 -78 46zM573 695q5 0 10.5 -7.5t5.5 -20.5q0 -38 -9.5 -101t-22.5 -95q-12 -33 -29 -33q-12 0 -14 24q-2 21 -5.5 62.5t-6 71.5t-5.5 41q0 13 6 18q13 13 34 26.5t36 13.5z" />
    <glyph glyph-name="Dcroat" unicode="&#x110;" horiz-adv-x="763" 
d="M48 349l65 -1q9 0 9 10q0 88 -2 150q-2 48 -11.5 62.5t-48.5 24.5q-23 7 -23 17q0 6 8.5 11t18.5 5h67q21 0 108 4t123 4q160 0 265 -97q41 -39 66.5 -99.5t25.5 -117.5q0 -96 -48 -168.5t-109 -106.5q-94 -54 -221 -54q-65 0 -205 5q-36 1 -77 1q-31 0 -31 17
q0 15 22 18q45 6 57.5 25.5t14.5 90.5q2 106 2 149q0 8 -5 8h-73q-8 0 -8 26q0 3 3 9.5t7 6.5zM399 308l-130 -1q-8 0 -8 -8q0 -142 4 -193q3 -32 18 -50q23 -26 67 -26q35 0 59.5 10t63.5 43q91 76 91 240q0 119 -68 201q-30 35 -78.5 55t-100.5 20q-26 0 -39 -8
q-6 -4 -12 -23q-5 -15 -5 -207q0 -12 9 -12h131q4 0 8 -4t4 -9q0 -8 -4.5 -18t-9.5 -10z" />
    <glyph glyph-name="dcroat" unicode="&#x111;" horiz-adv-x="533" 
d="M455 307q0 -80 3 -176q1 -36 3 -54.5t5.5 -24t9.5 -5.5q3 0 22 1t26 1q6 0 6 -10q0 -4 -9.5 -15t-13.5 -12q-109 -18 -114 -20q-32 -12 -47 -12q-4 0 -8.5 5t-4.5 9q0 3 1.5 16t1.5 21q0 3 -2 5t-3.5 3t-2.5 0q-24 -19 -58 -32.5t-62 -13.5q-66 0 -117 44q-59 51 -59 143
q0 122 109 187q26 16 65.5 27.5t69.5 11.5q33 0 50 -2q5 0 8 8q2 10 2 96q0 7 -6 7q-14 0 -44 1t-44 1t-14 9q0 30 15 30h85q1 0 4 2t3 5q0 6 -1 18.5t-1 13.5q-3 25 -40 40q-16 6 -16 11q0 4 7 11.5t11 8.5q104 15 137 29q14 6 23 6q10 0 8 -22q0 -2 -1 -16.5t-2.5 -40.5
t-1.5 -55q0 -9 5 -9h54q6 0 6 -21q0 -22 -17 -22h-41q-8 0 -8 -7q-2 -12 -2 -201zM241 368q-23 0 -50 -27q-35 -38 -35 -120q0 -67 38 -116.5t92 -49.5q22 0 37 11q3 2 7.5 17t4.5 21q5 115 0 177q0 3 -5.5 18.5t-10.5 22.5q-37 46 -78 46z" />
    <glyph glyph-name="Emacron" unicode="&#x112;" horiz-adv-x="599" 
d="M264 628h150q50 0 87 8q3 1 7.5 -4t5.5 -10q1 -4 1 -113q0 -11 -5 -20t-12 -9q-6 0 -12 8.5t-8 17.5q-16 68 -63 78q-35 7 -138 7q-11 0 -12 -29q-4 -96 -4 -213q0 -3 3.5 -7t8.5 -4h86q31 0 43.5 4.5t16 9.5t15.5 33q13 28 24 28q13 0 11 -31q-4 -54 -4 -67q0 -35 4 -71
q1 -13 -3 -22t-11 -9q-6 0 -12 7t-8 16q-9 30 -22 41.5t-36 13.5q-32 3 -101 3q-3 0 -9 -6t-6 -8q-4 -43 -1 -130v-40t2 -41q1 -7 8 -15.5t15 -10.5q25 -5 76 -5q66 0 90 10q45 19 77 74q23 38 35 38q9 0 9 -30q0 -6 -16 -55.5t-23 -64.5q-3 -6 -13 -10t-15 -4
q-3 0 -160.5 2t-176.5 2q-41 0 -71.5 -2.5t-42.5 -2.5q-36 0 -36 13q0 15 31 22q38 9 50 23.5t15 54.5q8 109 8 221q0 189 -1 204q-2 28 -12 43t-40 20q-33 6 -33 20q0 6 10.5 10.5t21.5 4.5q24 0 98.5 -1.5t97.5 -1.5zM189 777l254 2q7 0 7 -30q0 -16 -7.5 -30.5
t-13.5 -14.5l-249 1q-2 0 -5.5 6t-3.5 10q0 18 6 37t12 19z" />
    <glyph glyph-name="emacron" unicode="&#x113;" horiz-adv-x="425" 
d="M246 409q67 0 111 -44q40 -37 40 -90q0 -7 -7.5 -17t-15.5 -10h-213q-9 0 -13 -7q-3 -12 -3 -36q0 -15 7.5 -41.5t19.5 -41.5q38 -48 110 -48q62 0 90 35q10 12 13 12q2 0 5.5 -5t3.5 -10q0 -14 -7 -24q-60 -94 -168 -94q-86 0 -136.5 57.5t-50.5 144.5q0 63 34 117.5
t96 82.5q40 19 84 19zM242 380q-30 0 -56.5 -27.5t-33.5 -62.5q-1 -4 2 -7t6 -3h24h33h40q12 0 23.5 10.5t11.5 28.5q0 21 -16 41t-34 20zM121 571l223 3q6 0 6 -35q0 -10 -3.5 -20t-7.5 -15.5t-6 -5.5l-218 -1q-2 0 -5 6t-3 12q0 11 3.5 25t6.5 22.5t4 8.5z" />
    <glyph glyph-name="Ebreve" unicode="&#x114;" horiz-adv-x="599" 
d="M264 628h150q50 0 87 8q3 1 7.5 -4t5.5 -10q1 -4 1 -113q0 -11 -5 -20t-12 -9q-6 0 -12 8.5t-8 17.5q-16 68 -63 78q-35 7 -138 7q-11 0 -12 -29q-4 -96 -4 -213q0 -3 3.5 -7t8.5 -4h86q31 0 43.5 4.5t16 9.5t15.5 33q13 28 24 28q13 0 11 -31q-4 -54 -4 -67q0 -35 4 -71
q1 -13 -3 -22t-11 -9q-6 0 -12 7t-8 16q-9 30 -22 41.5t-36 13.5q-32 3 -101 3q-3 0 -9 -6t-6 -8q-4 -43 -1 -130v-40t2 -41q1 -7 8 -15.5t15 -10.5q25 -5 76 -5q66 0 90 10q45 19 77 74q23 38 35 38q9 0 9 -30q0 -6 -16 -55.5t-23 -64.5q-3 -6 -13 -10t-15 -4
q-3 0 -160.5 2t-176.5 2q-41 0 -71.5 -2.5t-42.5 -2.5q-36 0 -36 13q0 15 31 22q38 9 50 23.5t15 54.5q8 109 8 221q0 189 -1 204q-2 28 -12 43t-40 20q-33 6 -33 20q0 6 10.5 10.5t21.5 4.5q24 0 98.5 -1.5t97.5 -1.5zM300 677q-59 0 -100.5 34.5t-45.5 97.5q-2 9 2 16
t11 7q5 0 14 -6t13 -13q33 -59 108 -59q80 0 116 56q10 18 25 18q4 0 7 -6.5t3 -10.5q-1 -17 -9.5 -37.5t-24.5 -43.5t-47.5 -38t-71.5 -15z" />
    <glyph glyph-name="ebreve" unicode="&#x115;" horiz-adv-x="425" 
d="M246 409q67 0 111 -44q40 -37 40 -90q0 -7 -7.5 -17t-15.5 -10h-213q-9 0 -13 -7q-3 -12 -3 -36q0 -15 7.5 -41.5t19.5 -41.5q38 -48 110 -48q62 0 90 35q10 12 13 12q2 0 5.5 -5t3.5 -10q0 -14 -7 -24q-60 -94 -168 -94q-86 0 -136.5 57.5t-50.5 144.5q0 63 34 117.5
t96 82.5q40 19 84 19zM242 380q-30 0 -56.5 -27.5t-33.5 -62.5q-1 -4 2 -7t6 -3h24h33h40q12 0 23.5 10.5t11.5 28.5q0 21 -16 41t-34 20zM232 469q-45 0 -76.5 30.5t-34.5 91.5q-1 15 6 23.5t15 8.5q9 0 14 -18q18 -65 81 -65q57 0 83 62q9 22 25 22q10 0 10 -18
q0 -25 -10.5 -54.5t-40 -56t-72.5 -26.5z" />
    <glyph glyph-name="Edotaccent" unicode="&#x116;" horiz-adv-x="599" 
d="M264 628h150q50 0 87 8q3 1 7.5 -4t5.5 -10q1 -4 1 -113q0 -11 -5 -20t-12 -9q-6 0 -12 8.5t-8 17.5q-16 68 -63 78q-35 7 -138 7q-11 0 -12 -29q-4 -96 -4 -213q0 -3 3.5 -7t8.5 -4h86q31 0 43.5 4.5t16 9.5t15.5 33q13 28 24 28q13 0 11 -31q-4 -54 -4 -67q0 -35 4 -71
q1 -13 -3 -22t-11 -9q-6 0 -12 7t-8 16q-9 30 -22 41.5t-36 13.5q-32 3 -101 3q-3 0 -9 -6t-6 -8q-4 -43 -1 -130v-40t2 -41q1 -7 8 -15.5t15 -10.5q25 -5 76 -5q66 0 90 10q45 19 77 74q23 38 35 38q9 0 9 -30q0 -6 -16 -55.5t-23 -64.5q-3 -6 -13 -10t-15 -4
q-3 0 -160.5 2t-176.5 2q-41 0 -71.5 -2.5t-42.5 -2.5q-36 0 -36 13q0 15 31 22q38 9 50 23.5t15 54.5q8 109 8 221q0 189 -1 204q-2 28 -12 43t-40 20q-33 6 -33 20q0 6 10.5 10.5t21.5 4.5q24 0 98.5 -1.5t97.5 -1.5zM306 810q27 0 42.5 -22.5t15.5 -47.5q0 -27 -22 -45.5
t-45 -18.5t-41.5 17.5t-18.5 49.5q0 25 20 46t49 21z" />
    <glyph glyph-name="edotaccent" unicode="&#x117;" horiz-adv-x="425" 
d="M246 409q67 0 111 -44q40 -37 40 -90q0 -7 -7.5 -17t-15.5 -10h-213q-9 0 -13 -7q-3 -12 -3 -36q0 -15 7.5 -41.5t19.5 -41.5q38 -48 110 -48q62 0 90 35q10 12 13 12q2 0 5.5 -5t3.5 -10q0 -14 -7 -24q-60 -94 -168 -94q-86 0 -136.5 57.5t-50.5 144.5q0 63 34 117.5
t96 82.5q40 19 84 19zM242 380q-30 0 -56.5 -27.5t-33.5 -62.5q-1 -4 2 -7t6 -3h24h33h40q12 0 23.5 10.5t11.5 28.5q0 21 -16 41t-34 20zM236 621q27 0 43.5 -22.5t16.5 -47.5q0 -27 -22 -46t-45 -19t-42.5 17.5t-19.5 49.5q0 25 20 46.5t49 21.5z" />
    <glyph glyph-name="Eogonek" unicode="&#x118;" horiz-adv-x="599" 
d="M264 628h150q50 0 87 8q3 1 7.5 -4t5.5 -10q1 -4 1 -113q0 -11 -5 -20t-12 -9q-6 0 -12 8.5t-8 17.5q-16 68 -63 78q-35 7 -138 7q-11 0 -12 -29q-4 -96 -4 -213q0 -3 3.5 -7t8.5 -4h86q31 0 43.5 4.5t16 9.5t15.5 33q13 28 24 28q13 0 11 -31q-4 -54 -4 -67q0 -35 4 -71
q1 -13 -3 -22t-11 -9q-6 0 -12 7t-8 16q-9 30 -22 41.5t-36 13.5q-32 3 -101 3q-3 0 -9 -6t-6 -8q-4 -43 -1 -130q3 -56 7 -81q1 -7 8 -15.5t15 -10.5q25 -5 71 -5q66 0 90 10q45 19 77 74q23 38 35 38q9 0 9 -30q0 -6 -16 -55.5t-23 -64.5q-3 -6 -13 -10t-15 -4h-28
q-80 -80 -80 -141q0 -20 12.5 -34.5t36.5 -14.5q34 0 56 18q12 4 12 -10q0 -19 -9 -28q-45 -59 -111 -59q-47 0 -69.5 28.5t-22.5 60.5q0 86 136 181q-33 0 -101 1t-113.5 1.5t-55.5 0.5q-41 0 -71.5 -2.5t-42.5 -2.5q-36 0 -36 13q0 15 31 22q38 9 50 23.5t15 54.5
q8 109 8 221q0 189 -1 204q-2 28 -12 43t-40 20q-33 6 -33 20q0 6 10.5 10.5t21.5 4.5q24 0 98.5 -1.5t97.5 -1.5z" />
    <glyph glyph-name="eogonek" unicode="&#x119;" horiz-adv-x="425" 
d="M247 409q61 0 105.5 -39.5t44.5 -93.5q0 -6 -10.5 -17t-19.5 -11h-206q-9 0 -14 -9q-3 -11 -3 -21q0 -68 37 -106t102 -38q57 0 94 28q7 6 13 6t6 -10q0 -13 -6 -23q-22 -28 -49 -48q-90 -85 -90 -161q0 -17 13 -32t35 -15q31 0 53 11q2 1 4 -2t2 -7q0 -19 -8 -27
q-41 -54 -105 -54q-45 0 -67.5 28t-22.5 59q0 78 112 166q-23 -5 -45 -5q-86 0 -138 58.5t-52 147.5q0 59 34 113.5t96 82.5q40 19 85 19zM241 380q-29 0 -56 -28t-33 -63q-2 -9 4 -10q33 -1 96 0q17 1 28.5 11t11.5 29q0 17 -14.5 39t-36.5 22z" />
    <glyph glyph-name="Ecaron" unicode="&#x11a;" horiz-adv-x="599" 
d="M264 628h150q50 0 87 8q3 1 7.5 -4t5.5 -10q1 -4 1 -113q0 -11 -5 -20t-12 -9q-6 0 -12 8.5t-8 17.5q-16 68 -63 78q-35 7 -138 7q-11 0 -12 -29q-4 -96 -4 -213q0 -3 3.5 -7t8.5 -4h86q31 0 43.5 4.5t16 9.5t15.5 33q13 28 24 28q13 0 11 -31q-4 -54 -4 -67q0 -35 4 -71
q1 -13 -3 -22t-11 -9q-6 0 -12 7t-8 16q-9 30 -22 41.5t-36 13.5q-32 3 -101 3q-3 0 -9 -6t-6 -8q-4 -43 -1 -130v-40t2 -41q1 -7 8 -15.5t15 -10.5q25 -5 76 -5q66 0 90 10q45 19 77 74q23 38 35 38q9 0 9 -30q0 -6 -16 -55.5t-23 -64.5q-3 -6 -13 -10t-15 -4
q-3 0 -160.5 2t-176.5 2q-41 0 -71.5 -2.5t-42.5 -2.5q-36 0 -36 13q0 15 31 22q38 9 50 23.5t15 54.5q8 109 8 221q0 189 -1 204q-2 28 -12 43t-40 20q-33 6 -33 20q0 6 10.5 10.5t21.5 4.5q24 0 98.5 -1.5t97.5 -1.5zM307 672q-14 0 -46 30q-70 66 -97 92q-2 1 -5.5 6
t-6 11.5t0 11t12.5 4.5q18 0 36 -9q54 -27 100 -54q10 -6 21 0q12 8 50 25.5t52 25.5q22 11 35 11q11 0 6 -15q-4 -11 -18 -25l-96 -84q-30 -30 -44 -30z" />
    <glyph glyph-name="ecaron" unicode="&#x11b;" horiz-adv-x="425" 
d="M246 409q67 0 111 -44q40 -37 40 -90q0 -7 -7.5 -17t-15.5 -10h-213q-9 0 -13 -7q-3 -12 -3 -36q0 -15 7.5 -41.5t19.5 -41.5q38 -48 110 -48q62 0 90 35q10 12 13 12q2 0 5.5 -5t3.5 -10q0 -14 -7 -24q-60 -94 -168 -94q-86 0 -136.5 57.5t-50.5 144.5q0 63 34 117.5
t96 82.5q40 19 84 19zM242 380q-30 0 -56.5 -27.5t-33.5 -62.5q-1 -4 2 -7t6 -3h24h33h40q12 0 23.5 10.5t11.5 28.5q0 21 -16 41t-34 20zM224 447q-11 0 -33 41q-4 9 -28.5 54t-40.5 77q-3 6 -5.5 14t-1 15.5t9.5 7.5q6 0 17.5 -7.5t15.5 -13.5l61 -83q3 -3 7.5 -3t6.5 3
q7 9 27.5 36.5t34.5 47.5q15 18 30 18q6 0 8.5 -9t-1.5 -19q-8 -19 -20 -42t-30.5 -55.5t-25.5 -45.5q-20 -36 -32 -36z" />
    <glyph glyph-name="Gcircumflex" unicode="&#x11c;" horiz-adv-x="752" 
d="M428 645q88 0 161 -21q24 -7 48 -7q10 0 12 -23q1 -12 8.5 -57t7.5 -69q0 -10 -5.5 -18t-13.5 -8q-10 0 -19 27q-15 41 -39 71q-22 26 -64.5 48t-95.5 22q-102 0 -163 -83t-61 -204q0 -109 40 -179q31 -56 82.5 -91t113.5 -35q25 0 51 18q20 14 20 79t-4 81
q-4 14 -8.5 22.5t-21 16.5t-45.5 11q-11 1 -20.5 7t-9.5 13q0 6 10.5 10.5t24.5 4.5q26 0 68 -2t53 -2q10 0 58 3t70 3q27 0 27 -16q0 -4 -7.5 -10.5t-15.5 -8.5t-13.5 -4t-9 -5t-5.5 -4.5t-3.5 -6t-2 -5.5t-1 -6.5t-0.5 -6.5q-5 -60 -5 -123q0 -13 17 -31q8 -11 8 -16
q0 -4 -5 -9t-10 -7q-43 -13 -91 -21q-110 -21 -152 -21q-80 0 -152.5 23t-116.5 63q-103 96 -103 250q0 140 110 236q47 42 120.5 66.5t152.5 24.5zM413 845q14 0 47 -30q22 -22 97 -92q2 -1 5.5 -6t6 -11.5t-0.5 -11t-12 -4.5q-19 0 -37 9q-54 27 -100 54q-11 5 -21 0
q-12 -8 -50 -25.5t-52 -25.5q-22 -11 -34 -11q-11 0 -6 15q3 11 17 25l96 84q30 30 44 30z" />
    <glyph glyph-name="gcircumflex" unicode="&#x11d;" horiz-adv-x="474" 
d="M234 412q40 0 100 -17q26 -7 27 -7q59 0 111 -7q10 -2 10 -12t-9.5 -25.5t-13.5 -15.5q-43 0 -55 1q-2 0 -3.5 -1.5t-1.5 -3v-2.5q5 -25 5 -39q0 -79 -58 -124q-53 -39 -126 -39q-27 0 -43 3q-11 1 -14 -2q-13 -11 -13 -22t12.5 -22t23.5 -12q177 -8 189 -10
q30 -5 54 -24q43 -40 43 -93q0 -56 -33.5 -97.5t-73.5 -65.5q-73 -44 -157 -44q-72 0 -126 32q-56 37 -56 92q0 37 32 57q41 22 61 34q10 5 1 7q-21 5 -42 19q-40 27 -40 81q0 11 7 13q1 1 19.5 12.5t38 25t27.5 22.5q6 6 -1 10q-30 13 -57 46t-27 80q0 68 60 111
q51 39 129 39zM223 382q-20 0 -33 -19q-22 -31 -22 -83q0 -53 21 -91.5t51 -38.5q14 0 29 15q22 26 22 99q0 14 -6.5 42t-15.5 42q-22 34 -46 34zM257 -219q45 0 77 17q41 22 41 73q0 29 -18 46q-20 20 -58 25q-39 4 -106 4q-31 0 -44 -13q-23 -25 -23 -55q0 -42 34 -68
q37 -29 97 -29zM229 656q11 0 33 -40q3 -5 15.5 -28t26.5 -50t27 -53q3 -6 5.5 -14t1 -16t-9.5 -8q-6 0 -17.5 8t-15.5 14q-11 14 -31.5 42t-29.5 40q-3 3 -7.5 3t-6.5 -3q-3 -4 -25.5 -34.5t-36.5 -48.5q-16 -19 -30 -19q-6 0 -8.5 9.5t1.5 19.5q8 19 20 42t30.5 55.5
t25.5 45.5q19 35 32 35z" />
    <glyph glyph-name="Gbreve" unicode="&#x11e;" horiz-adv-x="752" 
d="M428 645q88 0 161 -21q24 -7 48 -7q10 0 12 -23q1 -12 8.5 -57t7.5 -69q0 -10 -5.5 -18t-13.5 -8q-10 0 -19 27q-15 41 -39 71q-22 26 -64.5 48t-95.5 22q-102 0 -163 -83t-61 -204q0 -109 40 -179q31 -56 82.5 -91t113.5 -35q25 0 51 18q20 14 20 79t-4 81
q-4 14 -8.5 22.5t-21 16.5t-45.5 11q-11 1 -20.5 7t-9.5 13q0 6 10.5 10.5t24.5 4.5q26 0 68 -2t53 -2q10 0 58 3t70 3q27 0 27 -16q0 -4 -7.5 -10.5t-15.5 -8.5t-13.5 -4t-9 -5t-5.5 -4.5t-3.5 -6t-2 -5.5t-1 -6.5t-0.5 -6.5q-5 -60 -5 -123q0 -13 17 -31q8 -11 8 -16
q0 -4 -5 -9t-10 -7q-43 -13 -91 -21q-110 -21 -152 -21q-80 0 -152.5 23t-116.5 63q-103 96 -103 250q0 140 110 236q47 42 120.5 66.5t152.5 24.5zM414 688q-59 0 -100.5 34.5t-45.5 97.5q-2 9 2 16t11 7q5 0 14 -6t13 -13q33 -59 108 -59q80 0 116 56q10 18 25 18
q4 0 7 -6.5t3 -10.5q-1 -17 -9.5 -37.5t-24.5 -43.5t-47.5 -38t-71.5 -15z" />
    <glyph glyph-name="gbreve" unicode="&#x11f;" horiz-adv-x="474" 
d="M234 412q40 0 100 -17q26 -7 27 -7q59 0 111 -7q10 -2 10 -12t-9.5 -25.5t-13.5 -15.5q-43 0 -55 1q-2 0 -3.5 -1.5t-1.5 -3v-2.5q5 -25 5 -39q0 -79 -58 -124q-53 -39 -126 -39q-27 0 -43 3q-11 1 -14 -2q-13 -11 -13 -22t12.5 -22t23.5 -12q177 -8 189 -10
q30 -5 54 -24q43 -40 43 -93q0 -56 -33.5 -97.5t-73.5 -65.5q-73 -44 -157 -44q-72 0 -126 32q-56 37 -56 92q0 37 32 57q41 22 61 34q10 5 1 7q-21 5 -42 19q-40 27 -40 81q0 11 7 13q1 1 19.5 12.5t38 25t27.5 22.5q6 6 -1 10q-30 13 -57 46t-27 80q0 68 60 111
q51 39 129 39zM223 382q-20 0 -33 -19q-22 -31 -22 -83q0 -53 21 -91.5t51 -38.5q14 0 29 15q22 26 22 99q0 14 -6.5 42t-15.5 42q-22 34 -46 34zM257 -219q45 0 77 17q41 22 41 73q0 29 -18 46q-20 20 -58 25q-39 4 -106 4q-31 0 -44 -13q-23 -25 -23 -55q0 -42 34 -68
q37 -29 97 -29zM222 469q-45 0 -76.5 30.5t-34.5 91.5q-1 15 6 23.5t15 8.5q9 0 14 -18q18 -65 81 -65q57 0 83 62q9 22 25 22q10 0 10 -18q0 -25 -10.5 -54.5t-40 -56t-72.5 -26.5z" />
    <glyph glyph-name="Gdotaccent" unicode="&#x120;" horiz-adv-x="752" 
d="M428 645q88 0 161 -21q24 -7 48 -7q10 0 12 -23q1 -12 8.5 -57t7.5 -69q0 -10 -5.5 -18t-13.5 -8q-10 0 -19 27q-15 41 -39 71q-22 26 -64.5 48t-95.5 22q-102 0 -163 -83t-61 -204q0 -109 40 -179q31 -56 82.5 -91t113.5 -35q25 0 51 18q20 14 20 79t-4 81
q-4 14 -8.5 22.5t-21 16.5t-45.5 11q-11 1 -20.5 7t-9.5 13q0 6 10.5 10.5t24.5 4.5q26 0 68 -2t53 -2q10 0 58 3t70 3q27 0 27 -16q0 -4 -7.5 -10.5t-15.5 -8.5t-13.5 -4t-9 -5t-5.5 -4.5t-3.5 -6t-2 -5.5t-1 -6.5t-0.5 -6.5q-5 -60 -5 -123q0 -13 17 -31q8 -11 8 -16
q0 -4 -5 -9t-10 -7q-43 -13 -91 -21q-110 -21 -152 -21q-80 0 -152.5 23t-116.5 63q-103 96 -103 250q0 140 110 236q47 42 120.5 66.5t152.5 24.5zM424 827q27 0 42.5 -22.5t15.5 -47.5q0 -27 -22 -45.5t-45 -18.5t-41.5 17.5t-18.5 49.5q0 25 20 46t49 21z" />
    <glyph glyph-name="gdotaccent" unicode="&#x121;" horiz-adv-x="474" 
d="M234 412q40 0 100 -17q26 -7 27 -7q59 0 111 -7q10 -2 10 -12t-9.5 -25.5t-13.5 -15.5q-43 0 -55 1q-2 0 -3.5 -1.5t-1.5 -3v-2.5q5 -25 5 -39q0 -79 -58 -124q-53 -39 -126 -39q-27 0 -43 3q-11 1 -14 -2q-13 -11 -13 -22t12.5 -22t23.5 -12q177 -8 189 -10
q30 -5 54 -24q43 -40 43 -93q0 -56 -33.5 -97.5t-73.5 -65.5q-73 -44 -157 -44q-72 0 -126 32q-56 37 -56 92q0 37 32 57q41 22 61 34q10 5 1 7q-21 5 -42 19q-40 27 -40 81q0 11 7 13q1 1 19.5 12.5t38 25t27.5 22.5q6 6 -1 10q-30 13 -57 46t-27 80q0 68 60 111
q51 39 129 39zM223 382q-20 0 -33 -19q-22 -31 -22 -83q0 -53 21 -91.5t51 -38.5q14 0 29 15q22 26 22 99q0 14 -6.5 42t-15.5 42q-22 34 -46 34zM257 -219q45 0 77 17q41 22 41 73q0 29 -18 46q-20 20 -58 25q-39 4 -106 4q-31 0 -44 -13q-23 -25 -23 -55q0 -42 34 -68
q37 -29 97 -29zM227 621q27 0 43.5 -22.5t16.5 -47.5q0 -27 -22 -46t-45 -19t-42.5 17.5t-19.5 49.5q0 25 20 46.5t49 21.5z" />
    <glyph glyph-name="Gcommaaccent" unicode="&#x122;" horiz-adv-x="752" 
d="M428 645q88 0 161 -21q24 -7 48 -7q10 0 12 -23q1 -12 8.5 -57t7.5 -69q0 -10 -5.5 -18t-13.5 -8q-10 0 -19 27q-15 41 -39 71q-22 26 -64.5 48t-95.5 22q-102 0 -163 -83t-61 -204q0 -109 40 -179q31 -56 82.5 -91t113.5 -35q25 0 51 18q20 14 20 79t-4 81
q-4 14 -8.5 22.5t-21 16.5t-45.5 11q-11 1 -20.5 7t-9.5 13q0 6 10.5 10.5t24.5 4.5q26 0 68 -2t53 -2q10 0 58 3t70 3q27 0 27 -16q0 -4 -7.5 -10.5t-15.5 -8.5t-13.5 -4t-9 -5t-5.5 -4.5t-3.5 -6t-2 -5.5t-1 -6.5t-0.5 -6.5q-5 -60 -5 -123q0 -13 17 -31q8 -11 8 -16
q0 -4 -5 -9t-10 -7q-43 -13 -91 -21q-110 -21 -152 -21q-80 0 -152.5 23t-116.5 63q-103 96 -103 250q0 140 110 236q47 42 120.5 66.5t152.5 24.5zM399 -70q35 0 60.5 -26.5t25.5 -71.5q0 -40 -27.5 -69t-54 -39t-42.5 -10q-19 0 -19 11q0 5 6 12t13 9q23 9 42 25.5
t19 38.5q0 15 -7.5 21t-28.5 9q-41 9 -41 44q0 22 17.5 34t36.5 12z" />
    <glyph glyph-name="gcommaaccent" unicode="&#x123;" horiz-adv-x="474" 
d="M248 450q-36 0 -63 27.5t-27 72.5q0 42 29 72.5t57 41.5t44 11q19 0 19 -10q0 -7 -5 -14t-11 -8q-23 -9 -42.5 -28t-19.5 -41q0 -17 9.5 -23.5t34.5 -11.5q30 -7 30 -40q0 -24 -18 -36.5t-37 -12.5zM234 412q40 0 100 -17q26 -7 27 -7q59 0 111 -7q10 -2 10 -12
t-9.5 -25.5t-13.5 -15.5q-43 0 -55 1q-2 0 -3.5 -1.5t-1.5 -3v-2.5q5 -25 5 -39q0 -79 -58 -124q-53 -39 -126 -39q-27 0 -43 3q-11 1 -14 -2q-13 -11 -13 -22t12.5 -22t23.5 -12q177 -8 189 -10q30 -5 54 -24q43 -40 43 -93q0 -56 -33.5 -97.5t-73.5 -65.5
q-73 -44 -157 -44q-72 0 -126 32q-56 37 -56 92q0 37 32 57q41 22 61 34q10 5 1 7q-21 5 -42 19q-40 27 -40 81q0 11 7 13q1 1 19.5 12.5t38 25t27.5 22.5q6 6 -1 10q-30 13 -57 46t-27 80q0 68 60 111q51 39 129 39zM223 382q-20 0 -33 -19q-22 -31 -22 -83q0 -53 21 -91.5
t51 -38.5q14 0 29 15q22 26 22 99q0 14 -6.5 42t-15.5 42q-22 34 -46 34zM257 -219q45 0 77 17q41 22 41 73q0 29 -18 46q-20 20 -58 25q-39 4 -106 4q-31 0 -44 -13q-23 -25 -23 -55q0 -42 34 -68q37 -29 97 -29z" />
    <glyph glyph-name="Hcircumflex" unicode="&#x124;" horiz-adv-x="817" 
d="M262 358q3 -9 13 -9q36 0 137 2t136 2q6 0 8 24q2 8 1.5 71.5t-3.5 90.5q-3 28 -11 39t-35 18q-32 9 -32 21q0 15 35 15q5 0 53.5 -2t63.5 -2q18 0 65 2t51 2q32 0 32 -14t-33 -23q-24 -6 -31.5 -16.5t-9.5 -35.5q-8 -72 -8 -254q0 -32 4 -200q0 -19 5.5 -29t13 -14
t29.5 -11q31 -11 31 -23q0 -15 -34 -15q-7 0 -50 1.5t-59 1.5q-12 0 -63.5 -2t-61.5 -2q-39 0 -39 15q0 14 30 22q35 9 42 22.5t11 71.5q2 29 3 89.5t-1 71.5q-2 10 -7 10h-273q-5 -1 -9 -5.5t-4 -8.5q-3 -42 1 -172q1 -37 8.5 -50.5t36.5 -22.5q38 -11 38 -27
q0 -15 -34 -15l-57 1q-57 2 -78 2q-10 0 -52 -2t-60 -2q-38 0 -38 14q0 15 31 24q30 8 40.5 21t14.5 45q10 80 10 330q0 92 -1 111q-1 25 -9.5 35t-31.5 18q-37 12 -37 24q0 15 32 15q13 0 58.5 -2.5t58.5 -2.5q23 0 65.5 2t52.5 2q33 0 33 -14q0 -16 -36 -24
q-28 -6 -35 -20.5t-8 -49.5q-4 -159 -3 -166zM424 834q14 0 47 -30q22 -22 97 -92q2 -1 5.5 -6t6 -11.5t-0.5 -11t-12 -4.5q-19 0 -37 9q-54 27 -100 54q-11 5 -21 0q-12 -8 -50 -25.5t-52 -25.5q-22 -11 -34 -11q-11 0 -6 15q3 11 17 25l96 84q30 30 44 30z" />
    <glyph glyph-name="hcircumflex" unicode="&#x125;" horiz-adv-x="531" 
d="M135 833q13 0 41 -23q81 -69 84 -71q6 -5 9 -11t1 -10.5t-10 -4.5q-15 0 -36 9q-38 17 -83 40q-11 4 -18 0q-9 -6 -90 -40q-24 -8 -28 -8q-10 0 -5 12q3 9 14 19q18 15 83 65q27 23 38 23zM317 409q73 0 109 -50q28 -38 28 -110q2 -148 4 -178q1 -18 10 -27.5t30 -14.5
q25 -6 25 -19q0 -14 -30 -14q-14 0 -43.5 2t-39.5 2q-23 0 -53.5 -2t-48.5 -2q-27 0 -27 14q0 10 21 17q16 5 22 16t8 35q2 23 2 177q0 53 -29 74q-22 16 -51 16q-33 0 -46 -10q-7 -5 -10 -26q-2 -39 -2.5 -123t0.5 -99q1 -26 7.5 -38.5t24.5 -16.5q25 -6 25 -18
q0 -15 -32 -15q-2 0 -14 0.5t-33.5 0.5h-47.5q-30 0 -58 -1.5t-32 -1.5q-10 0 -18.5 4t-8.5 10q0 12 28 21q5 2 9 4t7.5 4.5t5.5 4.5t4 5.5t3 5.5t1.5 6t1 5t1 5t0.5 5q9 72 9 290q0 191 -3 214q-1 5 -1.5 8.5t-3 7t-3.5 5t-5.5 5t-6.5 5t-8.5 6t-10.5 7.5q-10 5 -10 19
q0 6 8 8q104 19 145 42q12 7 16 7q3 0 7.5 -5t4.5 -8q-5 -35 -8 -115.5t-3 -135.5v-71q0 -1 1 -2t2.5 -3t3.5 0q53 48 113 48z" />
    <glyph glyph-name="Hbar" unicode="&#x126;" horiz-adv-x="817" 
d="M753 446h-48q-8 0 -8 -9q-1 -38 -1 -164q0 -55 1 -97.5t1.5 -63.5t0.5 -23q1 -27 13 -37.5t42 -18.5q23 -7 23 -17q0 -7 -8.5 -13t-21.5 -6q-7 0 -56.5 1.5t-65.5 1.5q-12 0 -62 -2t-60 -2q-11 0 -21 5.5t-10 12.5q0 12 24 19q39 9 47.5 23t10.5 71q3 65 3 135
q0 22 -11 22h-273q-12 -3 -12 -18q0 -95 1 -154q1 -37 9 -50t38 -22q32 -9 32 -24q0 -19 -33 -19l-52 1q-52 2 -73 2q-11 0 -57 -2t-64 -2q-35 0 -35 16q0 12 23 20q21 6 27 8.5t17 10t14.5 19t5.5 30.5q9 99 9 337q0 9 -7 9h-56q-6 0 -8 1t-2 7q0 7 6 19t11 12h49q8 0 8 11
q0 34 -1 47q-1 24 -10.5 34.5t-36.5 18.5q-32 10 -32 23q0 5 7.5 9.5t18.5 4.5q14 0 61.5 -2.5t60.5 -2.5q23 0 70.5 2t57.5 2q22 0 22 -17q0 -5 -11 -11.5t-25 -10.5q-14 -3 -22 -6.5t-12.5 -14t-5 -13t-1.5 -23.5q-1 -5 -1 -8q-1 -8 -1 -32q0 -2 4 -6.5t6 -4.5h278
q5 0 5 10q0 27 -1 44q-2 28 -11 39.5t-40 18.5q-11 3 -18.5 9.5t-7.5 11.5q0 14 31 14q5 0 55 -2t65 -2q19 0 69 2t53 2q26 0 26 -14q0 -15 -27 -21q-30 -7 -38 -17t-10 -35l-3 -49q0 -11 7 -11h60q7 1 7 -13q1 -9 -6 -17.5t-14 -8.5zM261 354q0 -21 12 -21q43 -1 95 0
t113.5 2t65.5 1q10 0 10 31v69q0 10 -8 10h-278q-10 0 -10 -10v-82z" />
    <glyph glyph-name="hbar" unicode="&#x127;" horiz-adv-x="531" 
d="M24 553l45 2q8 3 8 8q0 4 -0.5 10t-0.5 8q-1 5 -1.5 8.5t-3 7t-3.5 5t-5.5 5t-6.5 5t-8.5 6t-10.5 7.5q-10 5 -10 19q0 6 8 8q104 19 145 42q12 7 16 7q3 0 7.5 -5t4.5 -8q-5 -38 -9 -127q0 -3 6 -5l93 1q6 0 6 -7q0 -34 -12 -34l-86 -1q-7 -2 -7 -7q-2 -21 -2.5 -80.5
t0.5 -61.5q0 -1 1 -2t2.5 -3t3.5 0q53 48 113 48q73 0 109 -50q28 -38 28 -110q2 -148 4 -178q1 -18 10 -27.5t30 -14.5q25 -6 25 -19q0 -14 -30 -14q-14 0 -43.5 2t-39.5 2q-23 0 -53.5 -2t-48.5 -2q-27 0 -27 14q0 10 21 17q16 5 22 16t8 35q2 23 2 177q0 53 -29 74
q-22 16 -51 16q-33 0 -46 -10q-7 -5 -10 -26q-2 -39 -2.5 -123t0.5 -99q1 -26 7.5 -38.5t24.5 -16.5q25 -6 25 -18q0 -15 -32 -15q-2 0 -14 0.5t-33.5 0.5h-47.5q-30 0 -58 -1.5t-32 -1.5q-10 0 -18.5 4t-8.5 10q0 12 28 21q5 2 9 4t7.5 4.5t5.5 4.5t4 5.5t3 5.5t1.5 6t1 5
t1 5t0.5 5q9 72 9 254v177l-7 7h-44q-14 0 -14 9t10 29z" />
    <glyph glyph-name="Itilde" unicode="&#x128;" horiz-adv-x="383" 
d="M122 338q0 154 -2 181q-2 29 -4 39.5t-12 20.5t-33 16q-32 9 -32 22q0 6 10.5 10.5t25.5 4.5t57.5 -2t59.5 -2q26 0 67 2t57 2q34 0 34 -15q0 -16 -33 -22q-31 -5 -41 -20t-12 -40q-3 -60 -3 -201q0 -174 3 -217q4 -46 14 -60t50 -25q28 -8 28 -23q0 -14 -33 -14
q-11 0 -41 1.5t-58.5 2.5t-50.5 1q-13 0 -50 -1.5t-56 -1.5q-34 0 -34 18q0 12 31 20t41.5 25t12.5 51q4 80 4 227zM51 726q9 16 26.5 36.5t28.5 28.5q14 12 28 12q24 0 89.5 -4.5t76.5 -4.5q14 0 23.5 6.5t25.5 29.5q5 8 11 8q7 0 17 -16q4 -8 -7 -21q-6 -6 -32.5 -37
t-35.5 -38q-15 -11 -24 -11q-13 0 -54 4.5t-75.5 7.5t-42.5 0q-17 -3 -40 -36q-6 -10 -11 -10q-7 0 -13.5 5t-6.5 8q0 4 16 32z" />
    <glyph glyph-name="itilde" unicode="&#x129;" horiz-adv-x="281" 
d="M41 353q0 14 30 19q19 4 47.5 12t53 16t29.5 9q3 1 6.5 -3.5t3.5 -7.5q-4 -59 -4 -239q0 -15 2 -85q1 -21 7.5 -29t26.5 -14q23 -8 23 -20q0 -14 -31 -14q-2 0 -37 1.5t-48 1.5q-18 0 -57 -2t-46 -2q-12 0 -20.5 4.5t-8.5 9.5q0 11 28 19t35 30q6 21 6 181q0 46 -2 58
q-1 8 -31 36q-13 15 -13 19zM61 509q-4 0 -9.5 -5.5t-12.5 -15.5t-10 -13t-9 -3q-3 0 -12 9t-9 11t11 18.5t30.5 39t36.5 34.5q4 3 10 4.5t8 0.5q48 -11 107 -11q26 0 37 7q7 5 18.5 18.5t12.5 14.5q1 2 7 -2t11.5 -10t5.5 -9q0 -5 -4 -9q-11 -11 -42.5 -46t-32.5 -36
q-8 -8 -14 -8q-5 0 -59 5.5t-81 5.5z" />
    <glyph glyph-name="Imacron" unicode="&#x12a;" horiz-adv-x="383" 
d="M122 338q0 154 -2 181q-2 29 -4 39.5t-12 20.5t-33 16q-32 9 -32 22q0 6 10.5 10.5t25.5 4.5t57.5 -2t59.5 -2q26 0 67 2t57 2q34 0 34 -15q0 -16 -33 -22q-31 -5 -41 -20t-12 -40q-3 -60 -3 -201q0 -174 3 -217q4 -46 14 -60t50 -25q28 -8 28 -23q0 -14 -33 -14
q-11 0 -41 1.5t-58.5 2.5t-50.5 1q-13 0 -50 -1.5t-56 -1.5q-34 0 -34 18q0 12 31 20t41.5 25t12.5 51q4 80 4 227zM74 777l254 2q7 0 7 -30q0 -16 -7.5 -30.5t-13.5 -14.5l-249 1q-2 0 -5.5 6t-3.5 10q0 18 6 37t12 19z" />
    <glyph glyph-name="imacron" unicode="&#x12b;" horiz-adv-x="281" 
d="M41 353q0 14 30 19q19 4 47.5 12t53 16t29.5 9q3 1 6.5 -3.5t3.5 -7.5q-4 -59 -4 -239q0 -15 2 -85q1 -21 7.5 -29t26.5 -14q23 -8 23 -20q0 -14 -31 -14q-2 0 -37 1.5t-48 1.5q-18 0 -57 -2t-46 -2q-12 0 -20.5 4.5t-8.5 9.5q0 11 28 19t35 30q6 21 6 181q0 46 -2 58
q-1 8 -31 36q-13 15 -13 19zM40 571l223 3q6 0 6 -35q0 -10 -3.5 -20t-7.5 -15.5t-6 -5.5l-218 -1q-2 0 -5 6t-3 12q0 11 3.5 25t6.5 22.5t4 8.5z" />
    <glyph glyph-name="Ibreve" unicode="&#x12c;" horiz-adv-x="383" 
d="M122 338q0 154 -2 181q-2 29 -4 39.5t-12 20.5t-33 16q-32 9 -32 22q0 6 10.5 10.5t25.5 4.5t57.5 -2t59.5 -2q26 0 67 2t57 2q34 0 34 -15q0 -16 -33 -22q-31 -5 -41 -20t-12 -40q-3 -60 -3 -201q0 -174 3 -217q4 -46 14 -60t50 -25q28 -8 28 -23q0 -14 -33 -14
q-11 0 -41 1.5t-58.5 2.5t-50.5 1q-13 0 -50 -1.5t-56 -1.5q-34 0 -34 18q0 12 31 20t41.5 25t12.5 51q4 80 4 227zM189 681q-59 0 -100.5 34.5t-45.5 97.5q-2 9 2 16t11 7q5 0 14 -6t13 -13q33 -59 108 -59q80 0 116 56q11 18 25 18q4 0 7 -6.5t3 -10.5q-1 -17 -9.5 -37.5
t-24.5 -43.5t-47.5 -38t-71.5 -15z" />
    <glyph glyph-name="ibreve" unicode="&#x12d;" horiz-adv-x="281" 
d="M41 353q0 14 30 19q19 4 47.5 12t53 16t29.5 9q3 1 6.5 -3.5t3.5 -7.5q-4 -59 -4 -239q0 -15 2 -85q1 -21 7.5 -29t26.5 -14q23 -8 23 -20q0 -14 -31 -14q-2 0 -37 1.5t-48 1.5q-18 0 -57 -2t-46 -2q-12 0 -20.5 4.5t-8.5 9.5q0 11 28 19t35 30q6 21 6 181q0 46 -2 58
q-1 8 -31 36q-13 15 -13 19zM140 469q-45 0 -76.5 30.5t-34.5 91.5q-1 15 6 23.5t15 8.5q9 0 14 -18q18 -65 81 -65q57 0 83 62q9 22 25 22q10 0 10 -18q0 -25 -10.5 -54.5t-40 -56t-72.5 -26.5z" />
    <glyph glyph-name="Iogonek" unicode="&#x12e;" horiz-adv-x="383" 
d="M122 338q0 154 -2 181q-3 46 -9 56q-9 13 -37 20q-30 8 -30 22q0 15 31 15q15 0 57.5 -2t59.5 -2q26 0 67 2t57 2q34 0 34 -15q0 -16 -33 -22q-31 -5 -41 -20t-12 -40q-3 -60 -3 -201q0 -174 3 -217q4 -46 14 -60t50 -25q28 -8 28 -23q0 -14 -33 -14l-88 5
q-60 -68 -60 -136q0 -24 12.5 -41t36.5 -17q27 0 56 18q12 8 12 -10q0 -19 -9 -28q-45 -59 -111 -59q-47 0 -69.5 28.5t-22.5 60.5q0 98 116 184h-23q-13 0 -50 -1.5t-56 -1.5q-34 0 -34 18q0 12 31 20t41.5 25t12.5 51q4 80 4 227z" />
    <glyph glyph-name="iogonek" unicode="&#x12f;" horiz-adv-x="281" 
d="M42 353q0 6 8.5 12.5t21.5 8.5q97 18 128 35q4 2 7 -1.5t3 -9.5q0 -2 -1 -41t-1.5 -88t-0.5 -74q0 -51 2 -121q1 -35 34 -43q21 -6 21 -21q0 -13 -29 -13q-2 0 -48 2q-51 -67 -51 -133q0 -17 12.5 -31.5t32.5 -14.5q27 0 53 10q3 1 6.5 -1.5t3.5 -7.5q0 -18 -9 -27
q-41 -54 -105 -54q-45 0 -67.5 28t-22.5 59q0 76 107 173h-10q-19 0 -50.5 -1.5t-37.5 -1.5q-30 0 -30 11q0 15 24 21q33 9 39 29q5 18 5 137q0 93 -3 111q-4 16 -21 23q-8 3 -14.5 10.5t-6.5 13.5zM152 622q26 0 42.5 -22.5t16.5 -47.5q0 -27 -22 -46t-45 -19t-42.5 17.5
t-19.5 49.5q0 26 20 47t50 21z" />
    <glyph glyph-name="Idotaccent" unicode="&#x130;" horiz-adv-x="383" 
d="M122 338q0 154 -2 181q-2 29 -4 39.5t-12 20.5t-33 16q-32 9 -32 22q0 6 10.5 10.5t25.5 4.5t57.5 -2t59.5 -2q26 0 67 2t57 2q34 0 34 -15q0 -16 -33 -22q-31 -5 -41 -20t-12 -40q-3 -60 -3 -201q0 -174 3 -217q4 -46 14 -60t50 -25q28 -8 28 -23q0 -14 -33 -14
q-11 0 -41 1.5t-58.5 2.5t-50.5 1q-13 0 -50 -1.5t-56 -1.5q-34 0 -34 18q0 12 31 20t41.5 25t12.5 51q4 80 4 227zM197 822q27 0 42.5 -22.5t15.5 -47.5q0 -27 -22 -45.5t-45 -18.5t-41.5 17.5t-18.5 49.5q0 25 20 46t49 21z" />
    <glyph glyph-name="dotlessi" unicode="&#x131;" horiz-adv-x="281" 
d="M41 353q0 14 30 19q19 4 47.5 12t53 16t29.5 9q3 1 6.5 -3.5t3.5 -7.5q-4 -59 -4 -239q0 -15 2 -85q1 -21 7.5 -29t26.5 -14q23 -8 23 -20q0 -14 -31 -14q-2 0 -37 1.5t-48 1.5q-18 0 -57 -2t-46 -2q-12 0 -20.5 4.5t-8.5 9.5q0 11 28 19t35 30q6 21 6 181q0 46 -2 58
q-1 8 -31 36q-13 15 -13 19z" />
    <glyph glyph-name="IJ" unicode="&#x132;" horiz-adv-x="753" 
d="M122 338q0 154 -2 181q-2 29 -4 39.5t-12 20.5t-33 16q-32 9 -32 22q0 6 10.5 10.5t25.5 4.5t57.5 -2t59.5 -2q26 0 67 2t57 2q34 0 34 -15q0 -16 -33 -22q-31 -5 -41 -20t-12 -40q-3 -60 -3 -201q0 -174 3 -217q4 -46 14 -60t50 -25q28 -8 28 -23q0 -14 -33 -14
q-11 0 -41 1.5t-58.5 2.5t-50.5 1q-13 0 -50 -1.5t-56 -1.5q-34 0 -34 18q0 12 31 20t41.5 25t12.5 51q4 80 4 227zM304 -169q0 8 12.5 26.5t22.5 28.5q4 4 15.5 10.5t15.5 6.5q14 0 31 -12q45 -32 69 -32q15 0 21 9q10 13 15 56q2 28 2 340q0 121 -4 281q-2 35 -55 49
q-32 9 -32 23q0 16 32 16q14 0 53.5 -2.5t62.5 -2.5q37 0 78 2t52 2q29 0 29 -13q0 -16 -31 -24q-24 -6 -33 -19.5t-10 -49.5q0 -4 -3.5 -186t-5.5 -233q-4 -86 -41.5 -158.5t-93.5 -112.5q-74 -53 -126 -53q-26 0 -51 13t-25 35z" />
    <glyph glyph-name="ij" unicode="&#x133;" horiz-adv-x="552" 
d="M150 0q-18 0 -57 -2t-46 -2q-12 0 -20.5 4.5t-8.5 9.5q0 11 28 19t35 30q6 21 6 181q0 46 -2 58q-1 8 -31 36q-13 15 -13 19q0 14 30 19q19 4 47.5 12t53 16t29.5 9q3 1 6.5 -3.5t3.5 -7.5q-4 -59 -4 -239q0 -15 2 -85q1 -21 7.5 -29t26.5 -14q23 -8 23 -20
q0 -14 -31 -14q-2 0 -37 1.5t-48 1.5zM153 621q27 0 42.5 -22.5t15.5 -45.5q0 -26 -21.5 -46.5t-43.5 -20.5q-26 0 -44 18q-21 19 -21 49q0 29 18 47q21 21 54 21zM308 354q0 7 17 11q88 22 130 46q11 6 19 6q3 0 7.5 -5t4.5 -9q0 -22 -1.5 -178t-2.5 -170q-3 -102 -40 -163
q-38 -66 -85 -106q-22 -19 -49 -34.5t-34 -15.5q-15 0 -25 14q-7 7 3 13q46 29 62 48q46 56 46 239q0 180 -3 230q-1 10 -2.5 16.5t-10 16t-24.5 21.5q-12 8 -12 20zM406 621q37 0 55.5 -24t18.5 -44q0 -33 -22.5 -50.5t-45.5 -17.5q-19 0 -41 20t-23 47q-2 32 25 55
q14 14 33 14z" />
    <glyph glyph-name="Jcircumflex" unicode="&#x134;" horiz-adv-x="370" 
d="M-79 -169q0 8 12.5 26.5t22.5 28.5q4 4 15.5 10.5t15.5 6.5q14 0 31 -12q45 -32 69 -32q15 0 21 9q10 13 15 56q2 27 2 340q0 121 -4 281q-2 35 -55 49q-32 9 -32 23q0 16 32 16q14 0 53.5 -2.5t62.5 -2.5q37 0 78 2t52 2q29 0 29 -13q0 -16 -31 -24q-24 -6 -33 -19.5
t-10 -49.5q0 -4 -3.5 -186t-5.5 -233q-4 -86 -41.5 -158.5t-93.5 -112.5q-74 -53 -126 -53q-26 0 -51 13t-25 35zM193 836q14 0 47 -30q22 -22 97 -92q2 -1 5.5 -6t6 -11.5t-0.5 -11t-12 -4.5q-19 0 -37 9q-54 27 -100 54q-11 5 -21 0q-12 -8 -50 -25.5t-52 -25.5
q-22 -11 -34 -11q-11 0 -6 15q3 11 17 25l96 84q30 30 44 30z" />
    <glyph glyph-name="jcircumflex" unicode="&#x135;" horiz-adv-x="271" 
d="M27 354q0 7 17 11q88 22 130 46q11 6 19 6q3 0 7.5 -5t4.5 -9q0 -22 -1.5 -178t-2.5 -170q-3 -102 -40 -163q-38 -66 -85 -106q-22 -19 -49 -34.5t-34 -15.5q-15 0 -25 14q-7 7 3 13q46 29 62 48q46 56 46 239q0 180 -3 230q-1 10 -2.5 16.5t-10 16t-24.5 21.5
q-12 8 -12 20zM131 656q11 0 33 -40q3 -5 15.5 -28t26.5 -50t27 -53q3 -6 5.5 -14t1 -16t-9.5 -8q-6 0 -17.5 8t-15.5 14q-11 14 -31.5 42t-29.5 40q-3 3 -7.5 3t-6.5 -3q-3 -4 -25.5 -34.5t-36.5 -48.5q-16 -19 -30 -19q-6 0 -8.5 9.5t1.5 19.5q8 19 20 42t30.5 55.5
t25.5 45.5q19 35 32 35z" />
    <glyph glyph-name="Kcommaaccent" unicode="&#x136;" horiz-adv-x="712" 
d="M43 616q0 6 9.5 10.5t21.5 4.5q11 0 52.5 -1.5t57.5 -1.5t60.5 1.5t55.5 1.5q34 0 34 -15q0 -11 -26 -18q-31 -9 -39.5 -19t-10.5 -45q-1 -19 -1 -201q0 -7 7 -7q9 0 18 9q28 20 94.5 88.5t108.5 120.5q18 18 14.5 31.5t-35.5 20.5q-26 6 -26 17q0 15 26 15h44
q48 0 102 3t61 3q30 0 30 -13q0 -14 -40 -21q-12 -2 -23.5 -5.5t-23 -9.5t-19.5 -9.5t-20 -12.5l-16 -12t-17 -13.5t-15 -12.5q-49 -39 -145 -140q-4 -3 -1 -10q17 -29 109 -141.5t136 -158.5q19 -20 37 -30.5t52 -17.5q8 -2 15 -8.5t7 -9.5q0 -7 -10.5 -12t-20.5 -5
q-13 0 -90 4t-91 4q-20 0 -50 -1.5t-39 -1.5q-24 0 -24 16q0 7 49 26q7 3 -1 15q-114 160 -161 214q-30 35 -34 35q-8 0 -8 -25q0 -23 5 -203q0 -27 47 -40q30 -8 30 -21q0 -7 -10.5 -11.5t-23.5 -4.5q-10 0 -59 1t-66 1q-15 0 -60 -2t-61 -2q-11 0 -19.5 5t-8.5 10
q0 13 29 20q36 8 46.5 24t13.5 62q2 31 2 222q0 73 -3 181q-1 40 -9 53.5t-37 21.5q-30 9 -30 21zM369 -61q35 0 60.5 -26.5t25.5 -71.5q0 -40 -27.5 -69t-54 -39t-42.5 -10q-19 0 -19 11q0 5 6 12t13 9q23 9 42 25.5t19 38.5q0 15 -7.5 21t-28.5 9q-41 9 -41 44
q0 22 17.5 34t36.5 12z" />
    <glyph glyph-name="kcommaaccent" unicode="&#x137;" horiz-adv-x="518" 
d="M305 395h40q33 0 87.5 5t62.5 5q10 0 10 -8t-8.5 -16t-13.5 -9q-46 -11 -71.5 -22t-56.5 -35q-42 -33 -50 -48q-3 -5 -1 -7q5 -12 63.5 -92.5t83.5 -105.5q29 -26 57 -34q25 -8 25 -16q0 -18 -34 -18q-6 0 -63 3t-87 2l-49 -1q-27 0 -27 14q0 9 22 16t13 21
q-20 30 -89 129q-12 18 -16 18q-1 0 -5 -9q-2 -7 -1.5 -57t2.5 -62t4 -18t9 -12.5t21 -9.5q21 -6 21 -15q0 -17 -29 -17q-13 0 -50.5 2t-49.5 2q-21 0 -57.5 -2t-37.5 -2q-31 0 -31 14q0 10 32 20q20 6 28 15t9 30q7 133 7 290q0 167 -6 225q-1 14 -30 29q-16 8 -16 24
q0 5 16 9q88 18 134 41q20 10 21 10q2 0 6.5 -5.5t3.5 -8.5q-9 -56 -9 -374q0 -81 3 -91q1 -5 8 -5q2 0 14 10q40 32 112 113q1 3 2.5 7t-5 8.5t-19.5 7.5q-26 6 -26 17q0 13 21 13zM246 -51q35 0 60.5 -26.5t25.5 -71.5q0 -40 -27.5 -69t-54 -39t-42.5 -10q-19 0 -19 11
q0 5 6 12t13 9q23 9 42 25.5t19 38.5q0 15 -7.5 21t-28.5 9q-41 9 -41 44q0 22 17.5 34t36.5 12z" />
    <glyph glyph-name="kgreenlandic" unicode="&#x138;" horiz-adv-x="509" 
d="M540 11q0 -16 -32 -16q-9 0 -53 2.5t-75 2.5q-55 0 -79 -2q-8 0 -16 4.5t-8 10.5q0 9 22 16q25 8 14 21q-14 20 -36 56t-48 72q-12 17 -21 17q-5 0 -5 -10q0 -57 2 -111q1 -22 7.5 -30t22.5 -11q21 -6 21 -17q0 -19 -30 -19q-12 0 -39 1.5t-45 1.5q-17 0 -51.5 -1.5
t-47.5 -1.5q-25 0 -25 16q0 13 29 20q28 8 31 29q7 52 7 130q0 128 -3 146q-4 16 -26 23q-22 8 -22 18q0 18 33 18q63 0 133 14q3 1 7 -4t3 -8q-7 -45 -7 -171q0 -7 6 -7q9 0 22 10q24 17 60.5 56.5t44.5 59.5q1 3 1 6t-5.5 6.5t-15.5 5.5q-29 6 -29 17q0 14 28 14
q3 0 20 -0.5t30 -0.5q43 1 77 5.5t45 4.5q22 0 22 -9q0 -15 -20 -20q-76 -16 -127 -60q-15 -14 -47 -48q-1 -1 -1.5 -4.5t0.5 -4.5q115 -165 143 -195q25 -25 60 -36q23 -8 23 -17z" />
    <glyph glyph-name="Lacute" unicode="&#x139;" horiz-adv-x="598" 
d="M42 616q0 15 30 15q13 0 55 -1.5t57 -1.5q21 0 72 2.5t61 2.5q33 0 33 -12q0 -7 -7 -13t-14 -8q-59 -15 -61 -40q-8 -59 -8 -301q0 -140 4 -175q1 -13 10.5 -22.5t17.5 -13t10 -3.5q30 -6 77 -6q45 0 72 7q19 4 26 11q42 42 67 83q13 20 27 20q13 0 4 -27
q-4 -13 -33 -124q-1 -3 -10 -9.5t-12 -6.5q-2 0 -38 1.5t-108 3.5t-161 2q-19 0 -78 -3t-79 -3q-31 0 -31 13q0 6 7.5 12t18.5 8q39 7 51 21.5t15 51.5q5 62 5 248q0 149 -1 182q-1 32 -10 44.5t-41 21.5q-28 7 -28 20zM244 836q7 5 20 7.5t19 0.5q53 -26 53 -46
q0 -6 -9 -15.5t-19 -15.5q-16 -8 -45.5 -23.5t-45 -23.5t-37 -17.5t-39.5 -15.5q-30 -9 -40 1q-9 7 14 33q99 93 129 115z" />
    <glyph glyph-name="lacute" unicode="&#x13a;" horiz-adv-x="273" 
d="M29 639q0 4 6 10t14 8t32.5 8t38.5 10t35 12t37 18q2 1 8 -3t6 -7q-8 -107 -8 -442q0 -127 5 -180q2 -20 9.5 -29.5t32.5 -17.5q20 -7 20 -18q0 -13 -27 -13q-13 0 -55.5 2.5t-50.5 2.5q-12 0 -49 -2t-47 -2q-30 0 -30 12t25 19q21 6 28.5 20t9.5 54q6 94 6 320
q0 131 -1 160q0 10 -5 16.5t-22 20.5q-18 15 -18 21zM204 878q7 5 20 7.5t19 0.5q53 -26 53 -46q0 -6 -9 -15.5t-19 -15.5q-16 -8 -45.5 -23.5t-45 -23.5t-37 -17.5t-39.5 -15.5q-30 -9 -40 1q-9 7 14 33q99 93 129 115z" />
    <glyph glyph-name="Lcommaaccent" unicode="&#x13b;" horiz-adv-x="598" 
d="M42 616q0 15 30 15q13 0 55 -1.5t57 -1.5q21 0 72 2.5t61 2.5q33 0 33 -12q0 -7 -7 -13t-14 -8q-59 -15 -61 -40q-8 -59 -8 -301q0 -140 4 -175q1 -13 10.5 -22.5t17.5 -13t10 -3.5q30 -6 77 -6q45 0 72 7q19 4 26 11q42 42 67 83q13 20 27 20q13 0 4 -27
q-4 -13 -33 -124q-1 -3 -10 -9.5t-12 -6.5q-2 0 -38 1.5t-108 3.5t-161 2q-19 0 -78 -3t-79 -3q-31 0 -31 13q0 6 7.5 12t18.5 8q39 7 51 21.5t15 51.5q5 62 5 248q0 149 -1 182q-1 32 -10 44.5t-41 21.5q-28 7 -28 20zM275 -56q35 0 60.5 -26.5t25.5 -71.5q0 -40 -27.5 -69
t-54 -39t-42.5 -10q-19 0 -19 11q0 5 6 12t13 9q23 9 42 25.5t19 38.5q0 15 -7.5 21t-28.5 9q-41 9 -41 44q0 22 17.5 34t36.5 12z" />
    <glyph glyph-name="lcommaaccent" unicode="&#x13c;" horiz-adv-x="273" 
d="M29 639q0 4 6 10t14 8t32.5 8t38.5 10t35 12t37 18q2 1 8 -3t6 -7q-8 -107 -8 -442q0 -127 5 -180q2 -20 9.5 -29.5t32.5 -17.5q20 -7 20 -18q0 -13 -27 -13q-13 0 -55.5 2.5t-50.5 2.5q-12 0 -49 -2t-47 -2q-30 0 -30 12t25 19q21 6 28.5 20t9.5 54q6 94 6 320
q0 131 -1 160q0 10 -5 16.5t-22 20.5q-18 15 -18 21zM121 -51q35 0 60.5 -26.5t25.5 -71.5q0 -40 -27.5 -69t-54 -39t-42.5 -10q-19 0 -19 11q0 5 6 12t13 9q23 9 42 25.5t19 38.5q0 15 -7.5 21t-28.5 9q-41 9 -41 44q0 22 17.5 34t36.5 12z" />
    <glyph glyph-name="Lcaron" unicode="&#x13d;" horiz-adv-x="598" 
d="M42 616q0 15 30 15q13 0 55 -1.5t57 -1.5q21 0 72 2.5t61 2.5q33 0 33 -12q0 -7 -7 -13t-14 -8q-59 -15 -61 -40q-8 -59 -8 -301q0 -140 4 -175q1 -13 10.5 -22.5t17.5 -13t10 -3.5q30 -6 77 -6q45 0 72 7q19 4 26 11q42 42 67 83q13 20 27 20q13 0 4 -27
q-4 -13 -33 -124q-1 -3 -10 -9.5t-12 -6.5q-2 0 -38 1.5t-108 3.5t-161 2q-19 0 -78 -3t-79 -3q-31 0 -31 13q0 6 7.5 12t18.5 8q39 7 51 21.5t15 51.5q5 62 5 248q0 149 -1 182q-1 32 -10 44.5t-41 21.5q-28 7 -28 20zM480 653q5 0 10.5 -7.5t5.5 -20.5q0 -38 -9.5 -101
t-22.5 -95q-12 -33 -29 -33q-12 0 -14 24q-2 21 -5.5 62.5t-6 71.5t-5.5 41q0 13 6 18q13 13 34 26.5t36 13.5z" />
    <glyph glyph-name="lcaron" unicode="&#x13e;" horiz-adv-x="273" 
d="M29 639q0 4 6 10t14 8t32.5 8t38.5 10t35 12t37 18q2 1 8 -3t6 -7q-8 -107 -8 -442q0 -127 5 -180q2 -20 9.5 -29.5t32.5 -17.5q20 -7 20 -18q0 -13 -27 -13q-13 0 -55.5 2.5t-50.5 2.5q-12 0 -49 -2t-47 -2q-30 0 -30 12t25 19q21 6 28.5 20t9.5 54q6 94 6 320
q0 131 -1 160q0 10 -5 16.5t-22 20.5q-18 15 -18 21zM314 695q5 0 10.5 -7.5t5.5 -20.5q0 -38 -9.5 -101t-22.5 -95q-12 -33 -29 -33q-12 0 -14 24q-2 21 -5.5 62.5t-6 71.5t-5.5 41q0 13 6 18q13 13 34 26.5t36 13.5z" />
    <glyph glyph-name="Ldot" unicode="&#x13f;" horiz-adv-x="598" 
d="M42 616q0 15 30 15q13 0 55 -1.5t57 -1.5q21 0 72 2.5t61 2.5q33 0 33 -12q0 -7 -7 -13t-14 -8q-59 -15 -61 -40q-8 -59 -8 -301q0 -140 4 -175q1 -13 10.5 -22.5t17.5 -13t10 -3.5q30 -6 77 -6q45 0 72 7q19 4 26 11q42 42 67 83q13 20 27 20q13 0 4 -27
q-4 -13 -33 -124q-1 -3 -10 -9.5t-12 -6.5q-2 0 -38 1.5t-108 3.5t-161 2q-19 0 -78 -3t-79 -3q-31 0 -31 13q0 6 7.5 12t18.5 8q39 7 51 21.5t15 51.5q5 62 5 248q0 149 -1 182q-1 32 -10 44.5t-41 21.5q-28 7 -28 20zM464 410q27 0 42.5 -22.5t15.5 -47.5q0 -27 -22 -45.5
t-45 -18.5t-41.5 17.5t-18.5 49.5q0 25 20 46t49 21z" />
    <glyph glyph-name="ldot" unicode="&#x140;" horiz-adv-x="273" 
d="M29 639q0 4 6 10t14 8t32.5 8t38.5 10t35 12t37 18q2 1 8 -3t6 -7q-8 -107 -8 -442q0 -127 5 -180q2 -20 9.5 -29.5t32.5 -17.5q20 -7 20 -18q0 -13 -27 -13q-13 0 -55.5 2.5t-50.5 2.5q-12 0 -49 -2t-47 -2q-30 0 -30 12t25 19q21 6 28.5 20t9.5 54q6 94 6 320
q0 131 -1 160q0 10 -5 16.5t-22 20.5q-18 15 -18 21zM280 411q27 0 43.5 -22.5t16.5 -47.5q0 -27 -22 -46t-45 -19t-42.5 17.5t-19.5 49.5q0 25 20 46.5t49 21.5z" />
    <glyph glyph-name="Lslash" unicode="&#x141;" horiz-adv-x="598" 
d="M125 314q1 145 -1 216q-1 32 -10 46t-39 20t-30 19q0 16 27 16q13 0 56.5 -1.5t58.5 -1.5q21 0 75 2.5t64 2.5q24 0 24 -15q0 -5 -8 -11.5t-19 -9.5q-36 -9 -44.5 -19t-10.5 -39q-5 -115 -5 -167q0 -3 2 -5t4 -1q10 4 58.5 25t74.5 33q2 1 6.5 0t5.5 -3q9 -14 9 -21
q0 -10 -23 -20q-125 -57 -130 -59q-1 0 -2.5 -1.5t-3 -4.5t-1.5 -6q0 -161 4 -226q1 -13 11.5 -25t23.5 -13q50 -6 130 -6q60 0 112 99q12 22 21 22q6 0 10.5 -8.5t2.5 -17.5q0 -4 -17.5 -66t-19.5 -65q-8 -10 -23 -10q-2 0 -31.5 1.5t-95.5 3.5t-155 2q-20 0 -90 -3t-89 -3
q-28 0 -28 17q0 9 25 16q39 11 50.5 23t15.5 50q4 34 5 152q0 3 -1.5 5.5t-4.5 1.5l-61 -24q-14 -5 -17 -1q-10 12 -10 23q0 7 4 8q8 4 39 18t46 20q5 2 5 11z" />
    <glyph glyph-name="lslash" unicode="&#x142;" horiz-adv-x="281" 
d="M12 309l50 29q7 4 7 8q0 210 -1 233q-1 18 -28 40q-16 15 -16 25q0 2 5.5 6t12.5 6q110 28 147 49q2 1 7 -3t5 -7q0 -8 -1.5 -50t-3.5 -108t-2 -127q1 -6 4 -6l47 25q8 5 11 -2q6 -12 6 -18q0 -11 -15 -21l-46 -26q-7 -4 -7 -9q-1 -11 0.5 -135.5t3.5 -144.5t9.5 -29.5
t31.5 -17.5q21 -7 21 -18q0 -13 -27 -13q-13 0 -55.5 2.5t-50.5 2.5q-12 0 -49 -2t-47 -2q-30 0 -30 12t25 19q21 6 28.5 20t9.5 54q4 73 5 189q0 4 -1 5t-4 0l-31 -17q-13 -6 -19 0q-8 10 -8 20t6 11z" />
    <glyph glyph-name="Nacute" unicode="&#x143;" horiz-adv-x="772" 
d="M26 617q0 6 8.5 11t19.5 5q7 0 72 -2.5t94 -2.5q10 0 23 -13q7 -8 18.5 -21t31.5 -35t36 -40q39 -45 282 -294q3 -3 5.5 0t2.5 5q2 11 2 199q0 62 -6 110q-6 39 -61 53q-36 9 -36 23t30 14q13 0 33.5 -0.5t26.5 -0.5q30 0 72.5 3t52.5 3q24 0 24 -15q0 -11 -25 -20
q-25 -8 -38 -20t-16 -21t-6 -28q0 -2 -0.5 -3.5t-0.5 -3.5q-3 -23 -6.5 -170t-3.5 -189q0 -22 3 -87t3 -79q0 -6 -7.5 -12t-10.5 -6q-30 0 -58 41q-12 16 -35.5 43.5t-31.5 37.5q-53 65 -179.5 203t-160.5 178q-3 4 -7 0.5t-4 -6.5q-4 -55 -5 -127q-3 -206 4 -259
q3 -21 16 -35t47 -24q29 -9 29 -19q0 -16 -33 -16q-14 0 -37 1.5t-41 1.5q-12 0 -57 -2t-53 -2q-10 0 -18 4.5t-8 9.5q0 12 24 19q39 11 55.5 28.5t18.5 69.5q2 51 9.5 188.5t7.5 174.5q0 54 -5 60l-9 12q-8 11 -12.5 14.5t-18.5 10.5t-33 11q-9 2 -18.5 7.5t-9.5 11.5z
M484 826q7 5 20 7.5t19 0.5q53 -26 53 -46q0 -6 -9 -15.5t-19 -15.5q-16 -8 -45.5 -23.5t-45 -23.5t-37 -17.5t-39.5 -15.5q-30 -9 -40 1q-9 7 14 33q99 93 129 115z" />
    <glyph glyph-name="nacute" unicode="&#x144;" horiz-adv-x="540" 
d="M47 347q0 5 6.5 13t12.5 10q62 20 87 31q8 3 17 7.5l14 7t7 2.5q3 0 8 -6.5t5 -9.5t-0.5 -19.5t-0.5 -21.5q0 -3 2 -4.5t3.5 -1t2.5 0.5q68 53 124 53q57 0 93 -41q36 -43 36 -120q0 -141 3 -183q3 -25 33 -33q27 -7 27 -19q0 -15 -29 -15q-12 0 -48 1t-51 1
q-14 0 -45.5 -1.5t-37.5 -1.5q-29 0 -29 15q0 10 24 17q17 6 22 16t7 35q3 50 3 188q0 34 -19 53q-21 21 -54 21q-29 0 -55 -14q-5 -3 -9 -21q-1 -16 0 -125.5t2 -120.5q1 -12 6.5 -17.5t27.5 -13.5q16 -7 16 -17q0 -15 -28 -15q-12 0 -43.5 1t-41.5 1q-21 0 -57 -1.5
t-41 -1.5q-28 0 -28 16q0 9 21 17q24 8 31 17.5t9 38.5q6 60 6 207q0 11 -32 42q-7 8 -7 12zM320 641q2 4 12 10t19 6q16 0 34.5 -5t18.5 -16q0 -15 -8 -28q-14 -25 -54 -79t-56 -70q-15 -15 -30 -15t-5 33q8 26 33 84.5t36 79.5z" />
    <glyph glyph-name="Ncommaaccent" unicode="&#x145;" horiz-adv-x="772" 
d="M26 617q0 6 8.5 11t19.5 5q7 0 72 -2.5t94 -2.5q10 0 23 -13q7 -8 18.5 -21t31.5 -35t36 -40q39 -45 282 -294q3 -3 5.5 0t2.5 5q2 11 2 199q0 62 -6 110q-6 39 -61 53q-36 9 -36 23t30 14q13 0 33.5 -0.5t26.5 -0.5q30 0 72.5 3t52.5 3q24 0 24 -15q0 -11 -25 -20
q-25 -8 -38 -20t-16 -21t-6 -28q0 -2 -0.5 -3.5t-0.5 -3.5q-3 -23 -6.5 -170t-3.5 -189q0 -22 3 -87t3 -79q0 -6 -7.5 -12t-10.5 -6q-30 0 -58 41q-12 16 -35.5 43.5t-31.5 37.5q-53 65 -179.5 203t-160.5 178q-3 4 -7 0.5t-4 -6.5q-4 -55 -5 -127q-3 -206 4 -259
q3 -21 16 -35t47 -24q29 -9 29 -19q0 -16 -33 -16q-14 0 -37 1.5t-41 1.5q-12 0 -57 -2t-53 -2q-10 0 -18 4.5t-8 9.5q0 12 24 19q39 11 55.5 28.5t18.5 69.5q2 51 9.5 188.5t7.5 174.5q0 54 -5 60l-9 12q-8 11 -12.5 14.5t-18.5 10.5t-33 11q-9 2 -18.5 7.5t-9.5 11.5z
M380 -49q35 0 60.5 -26.5t25.5 -71.5q0 -40 -27.5 -69t-54 -39t-42.5 -10q-19 0 -19 11q0 5 6 12t13 9q23 9 42 25.5t19 38.5q0 15 -7.5 21t-28.5 9q-41 9 -41 44q0 22 17.5 34t36.5 12z" />
    <glyph glyph-name="ncommaaccent" unicode="&#x146;" horiz-adv-x="540" 
d="M47 347q0 5 6.5 13t12.5 10q62 20 87 31q8 3 17 7.5l14 7t7 2.5q3 0 8 -6.5t5 -9.5t-0.5 -19.5t-0.5 -21.5q0 -3 2 -4.5t3.5 -1t2.5 0.5q68 53 124 53q57 0 93 -41q36 -43 36 -120q0 -141 3 -183q3 -25 33 -33q27 -7 27 -19q0 -15 -29 -15q-12 0 -48 1t-51 1
q-14 0 -45.5 -1.5t-37.5 -1.5q-29 0 -29 15q0 10 24 17q17 6 22 16t7 35q3 50 3 188q0 34 -19 53q-21 21 -54 21q-29 0 -55 -14q-5 -3 -9 -21q-1 -16 0 -125.5t2 -120.5q1 -12 6.5 -17.5t27.5 -13.5q16 -7 16 -17q0 -15 -28 -15q-12 0 -43.5 1t-41.5 1q-21 0 -57 -1.5
t-41 -1.5q-28 0 -28 16q0 9 21 17q24 8 31 17.5t9 38.5q6 60 6 207q0 11 -32 42q-7 8 -7 12zM259 -51q35 0 60.5 -26.5t25.5 -71.5q0 -40 -27.5 -69t-54 -39t-42.5 -10q-19 0 -19 11q0 5 6 12t13 9q23 9 42 25.5t19 38.5q0 15 -7.5 21t-28.5 9q-41 9 -41 44q0 22 17.5 34
t36.5 12z" />
    <glyph glyph-name="Ncaron" unicode="&#x147;" horiz-adv-x="772" 
d="M26 617q0 6 8.5 11t19.5 5q7 0 72 -2.5t94 -2.5q10 0 23 -13q7 -8 18.5 -21t31.5 -35t36 -40q39 -45 282 -294q3 -3 5.5 0t2.5 5q2 11 2 199q0 62 -6 110q-6 39 -61 53q-36 9 -36 23t30 14q13 0 33.5 -0.5t26.5 -0.5q30 0 72.5 3t52.5 3q24 0 24 -15q0 -11 -25 -20
q-25 -8 -38 -20t-16 -21t-6 -28q0 -2 -0.5 -3.5t-0.5 -3.5q-3 -23 -6.5 -170t-3.5 -189q0 -22 3 -87t3 -79q0 -6 -7.5 -12t-10.5 -6q-30 0 -58 41q-12 16 -35.5 43.5t-31.5 37.5q-53 65 -179.5 203t-160.5 178q-3 4 -7 0.5t-4 -6.5q-4 -55 -5 -127q-3 -206 4 -259
q3 -21 16 -35t47 -24q29 -9 29 -19q0 -16 -33 -16q-14 0 -37 1.5t-41 1.5q-12 0 -57 -2t-53 -2q-10 0 -18 4.5t-8 9.5q0 12 24 19q39 11 55.5 28.5t18.5 69.5q2 51 9.5 188.5t7.5 174.5q0 54 -5 60l-9 12q-8 11 -12.5 14.5t-18.5 10.5t-33 11q-9 2 -18.5 7.5t-9.5 11.5z
M395 671q-14 0 -46 30q-70 66 -97 92q-2 1 -5.5 6t-6 11.5t0 11t12.5 4.5q18 0 36 -9q54 -27 100 -54q10 -6 21 0q12 8 50 25.5t52 25.5q22 11 35 11q11 0 6 -15q-4 -11 -18 -25l-96 -84q-30 -30 -44 -30z" />
    <glyph glyph-name="ncaron" unicode="&#x148;" horiz-adv-x="540" 
d="M47 347q0 5 6.5 13t12.5 10q62 20 87 31q8 3 17 7.5l14 7t7 2.5q3 0 8 -6.5t5 -9.5t-0.5 -19.5t-0.5 -21.5q0 -3 2 -4.5t3.5 -1t2.5 0.5q68 53 124 53q57 0 93 -41q36 -43 36 -120q0 -141 3 -183q3 -25 33 -33q27 -7 27 -19q0 -15 -29 -15q-12 0 -48 1t-51 1
q-14 0 -45.5 -1.5t-37.5 -1.5q-29 0 -29 15q0 10 24 17q17 6 22 16t7 35q3 50 3 188q0 34 -19 53q-21 21 -54 21q-29 0 -55 -14q-5 -3 -9 -21q-1 -16 0 -125.5t2 -120.5q1 -12 6.5 -17.5t27.5 -13.5q16 -7 16 -17q0 -15 -28 -15q-12 0 -43.5 1t-41.5 1q-21 0 -57 -1.5
t-41 -1.5q-28 0 -28 16q0 9 21 17q24 8 31 17.5t9 38.5q6 60 6 207q0 11 -32 42q-7 8 -7 12zM271 447q-11 0 -33 41q-4 9 -28.5 54t-40.5 77q-3 6 -5.5 14t-1 15.5t9.5 7.5q6 0 17.5 -7.5t15.5 -13.5l61 -83q3 -3 7.5 -3t6.5 3q7 9 27.5 36.5t34.5 47.5q15 18 30 18
q6 0 8.5 -9t-1.5 -19q-8 -19 -20 -42t-30.5 -55.5t-25.5 -45.5q-20 -36 -32 -36z" />
    <glyph glyph-name="napostrophe" unicode="&#x149;" horiz-adv-x="540" 
d="M47 347q0 5 6.5 13t12.5 10q62 20 87 31q8 3 17 7.5l14 7t7 2.5q3 0 8 -6.5t5 -9.5t-0.5 -19.5t-0.5 -21.5q0 -3 2 -4.5t3.5 -1t2.5 0.5q68 53 124 53q57 0 93 -41q36 -43 36 -120q0 -141 3 -183q3 -25 33 -33q27 -7 27 -19q0 -15 -29 -15q-12 0 -48 1t-51 1
q-14 0 -45.5 -1.5t-37.5 -1.5q-29 0 -29 15q0 10 24 17q17 6 22 16t7 35q3 50 3 188q0 34 -19 53q-21 21 -54 21q-29 0 -55 -14q-5 -3 -9 -21q-1 -16 0 -125.5t2 -120.5q1 -12 6.5 -17.5t27.5 -13.5q16 -7 16 -17q0 -15 -28 -15q-12 0 -43.5 1t-41.5 1q-21 0 -57 -1.5
t-41 -1.5q-28 0 -28 16q0 9 21 17q24 8 31 17.5t9 38.5q6 60 6 207q0 11 -32 42q-7 8 -7 12zM91 659q34 0 59.5 -24.5t25.5 -63.5q0 -38 -25 -63.5t-49.5 -33.5t-40.5 -8q-20 0 -20 11q0 12 17 18q19 8 37 24t18 34q0 20 -34 27q-40 9 -40 38q0 20 17 30.5t35 10.5z" />
    <glyph glyph-name="Eng" unicode="&#x14a;" horiz-adv-x="772" 
d="M184 483q-3 4 -7 0.5t-4 -6.5q-5 -72 -6 -127q-2 -198 5 -259q3 -21 16 -35t47 -24q29 -9 29 -19q0 -16 -33 -16q-14 0 -37 1.5t-41 1.5q-12 0 -57 -2t-53 -2q-10 0 -18 4.5t-8 9.5q0 12 24 19q39 11 55.5 28.5t18.5 69.5q2 50 9.5 189t7.5 176q0 54 -5 60q-1 2 -5 7
t-6.5 7.5l-7 7t-9.5 7.5t-12 6.5t-16.5 6.5t-20.5 5q-9 2 -16.5 7t-7.5 11t8.5 11t19.5 5q7 0 72 -2.5t94 -2.5q10 0 23 -13q7 -8 18.5 -21t31.5 -35t36 -40q54 -61 282 -294q3 -3 5.5 0t2.5 5q2 11 2 199q0 62 -6 110q-6 39 -61 53q-36 9 -36 23t30 14q13 0 33.5 -0.5
t26.5 -0.5q30 0 72.5 3t52.5 3q24 0 24 -15q0 -11 -25 -20q-25 -8 -38 -20t-16 -21t-6 -28q0 -2 -0.5 -3.5t-0.5 -3.5q-3 -23 -6.5 -231.5t-3.5 -258.5q0 -172 -32 -231q-15 -27 -36.5 -41t-37.5 -14q-55 0 -70 60q-3 13 5 17q3 1 21 6t35.5 12t26.5 15l6 5l7 7t6 7t6.5 9.5
t5.5 10t5.5 13t4 15t3 19t0.5 22.5q0 6 -6.5 23.5t-15.5 28.5q-11 15 -36.5 44t-34.5 41q-42 50 -102 117.5t-139.5 155t-98.5 108.5z" />
    <glyph glyph-name="eng" unicode="&#x14b;" horiz-adv-x="530" 
d="M331 409q57 0 93 -41q36 -43 36 -120v-89t-0.5 -89.5t-0.5 -41.5q0 -139 -83 -232q-21 -24 -55 -44t-45 -20q-17 0 -30 9t-13 20q0 21 7 36q4 11 12 11q6 0 24.5 -8t29.5 -8q19 0 25 20.5t7 91.5q0 17 0.5 183.5t0.5 180.5q0 34 -19 53q-21 21 -50 21t-55 -14
q-5 -3 -9 -21q-1 -16 0 -125.5t2 -120.5q1 -12 6.5 -17.5t27.5 -13.5q16 -7 16 -17q0 -15 -28 -15q-12 0 -43.5 1t-41.5 1q-21 0 -57 -1.5t-41 -1.5q-28 0 -28 16q0 9 21 17q24 8 31 17.5t9 38.5q6 60 6 207q0 11 -32 42q-7 8 -7 12q0 5 6.5 13t12.5 10q9 3 27 10.5t37.5 16
t24.5 10.5q8 3 17 7.5l14 7t7 2.5q3 0 8 -6.5t5 -9.5t-1.5 -22.5t-1.5 -24.5q0 -8 8 -5q68 53 120 53z" />
    </font>
</defs>
</svg>
